<svg width="14" height="13" viewBox="0 0 14 13" fill="none" xmlns="http://www.w3.org/2000/svg">
<g clip-path="url(#clip0_2005_5242)">
<path d="M0.791016 11.9267C1.13631 10.7417 1.48036 9.55681 1.82566 8.37188C1.85298 8.27749 1.88155 8.18309 1.90639 8.08869C1.94614 7.94586 2.02066 7.83034 2.13493 7.7347C2.24175 7.64652 2.33615 7.54094 2.43427 7.44282C4.05268 5.83931 5.6711 4.23581 7.28827 2.63106C7.32553 2.5938 7.35782 2.55157 7.38391 2.51928C7.60375 2.74037 7.80994 2.94779 8.03972 3.17881C8.01488 3.1962 7.96644 3.22104 7.92918 3.25831C6.25238 4.93137 4.57684 6.60443 2.90377 8.28121C2.84415 8.34207 2.79447 8.42529 2.77087 8.50727C2.56966 9.17177 2.37838 9.84 2.17965 10.507C2.15481 10.5902 2.16723 10.6424 2.23057 10.6995C2.33366 10.7927 2.42433 10.8995 2.52867 10.9914C2.56469 11.0224 2.633 11.046 2.67647 11.0349C3.34471 10.8436 4.0117 10.6486 4.67744 10.4474C4.73458 10.43 4.78799 10.3815 4.8327 10.3356C6.53309 8.64017 8.231 6.94227 9.9289 5.24561C9.9612 5.21331 9.98852 5.17729 10.0072 5.15618C10.2481 5.39714 10.4816 5.63065 10.7375 5.88651C10.7263 5.89397 10.6816 5.9126 10.6505 5.94365C8.97624 7.6018 7.29945 9.25623 5.63384 10.9231C5.40157 11.1566 5.14943 11.3007 4.83767 11.3889C3.73223 11.7019 2.63176 12.0322 1.5288 12.3564C1.45552 12.3775 1.381 12.3974 1.30772 12.4185H1.20835C1.15494 12.3949 1.10029 12.3738 1.04688 12.349C0.897833 12.2794 0.846909 12.1378 0.791016 12V11.9267ZM4.13093 9.86857C4.09864 9.66239 4.06386 9.47359 4.04151 9.2848C4.03033 9.19537 3.99431 9.15935 3.90736 9.1432C3.69497 9.10222 3.48506 9.04881 3.28881 9.00534C5.05006 7.24036 6.81131 5.47415 8.56139 3.71911C8.84085 3.99858 9.13274 4.28922 9.41469 4.56993C7.67083 6.31875 5.91082 8.08372 4.13093 9.86857ZM9.20354 0.794051C9.36252 0.638793 9.52151 0.473598 9.69167 0.319583C10.1798 -0.120108 10.8157 -0.110172 11.2915 0.35436C11.8168 0.866091 12.3348 1.38403 12.8465 1.90942C13.3309 2.40501 13.3235 3.06827 12.8403 3.56261C12.695 3.71166 12.5447 3.85698 12.4056 3.99361C11.3424 2.93164 10.2804 1.87092 9.20354 0.794051ZM7.90806 1.96656C8.14902 1.7405 8.39619 1.50824 8.63094 1.28715C9.74384 2.40004 10.8505 3.50796 11.9671 4.62458C11.7349 4.84194 11.4852 5.07669 11.2443 5.30274L7.90806 1.96656Z" fill="#A0A4A8"/>
</g>
<defs>
<clipPath id="clip0_2005_5242">
<rect width="12.4207" height="12.4207" fill="white" transform="translate(0.791016 -0.00170898)"/>
</clipPath>
</defs>
</svg>
