<svg width="140" height="115" viewBox="0 0 140 115" fill="none" xmlns="http://www.w3.org/2000/svg">
<rect width="140" height="115" rx="15" fill="url(#paint0_linear_2005_5571)"/>
<path d="M45.7259 67.0469V77H43.6751L39.6761 70.3281V77H37.6253V67.0469H39.6761L43.6819 73.7256V67.0469H45.7259ZM51.8396 75.2295V69.6035H53.8084V77H51.9558L51.8396 75.2295ZM52.0584 73.7119L52.6394 73.6982C52.6394 74.1904 52.5825 74.6484 52.4685 75.0723C52.3546 75.4915 52.1837 75.8561 51.9558 76.166C51.728 76.4714 51.4409 76.7106 51.0945 76.8838C50.7482 77.0524 50.3403 77.1367 49.8709 77.1367C49.5109 77.1367 49.1782 77.0866 48.8728 76.9863C48.572 76.8815 48.3123 76.7197 48.0935 76.501C47.8793 76.2777 47.7107 75.9928 47.5877 75.6465C47.4692 75.2956 47.4099 74.874 47.4099 74.3818V69.6035H49.3787V74.3955C49.3787 74.6143 49.4038 74.7988 49.4539 74.9492C49.5086 75.0996 49.5838 75.2227 49.6795 75.3184C49.7752 75.4141 49.8868 75.4824 50.0144 75.5234C50.1466 75.5645 50.2924 75.585 50.4519 75.585C50.8575 75.585 51.1765 75.5029 51.409 75.3389C51.6459 75.1748 51.8123 74.9515 51.908 74.6689C52.0082 74.3818 52.0584 74.0628 52.0584 73.7119ZM57.3587 71.1348V77H55.3831V69.6035H57.2356L57.3587 71.1348ZM57.0852 73.042H56.5383C56.5383 72.527 56.5999 72.0531 56.7229 71.6201C56.8505 71.1826 57.0351 70.8044 57.2766 70.4854C57.5227 70.1618 57.8258 69.9111 58.1858 69.7334C58.5458 69.5557 58.9628 69.4668 59.4368 69.4668C59.7649 69.4668 60.0657 69.5169 60.3391 69.6172C60.6126 69.7129 60.8473 69.8656 61.0432 70.0752C61.2438 70.2803 61.3987 70.5492 61.5081 70.8818C61.6175 71.21 61.6721 71.6042 61.6721 72.0645V77H59.7034V72.2832C59.7034 71.946 59.6578 71.6862 59.5667 71.5039C59.4755 71.3216 59.3456 71.194 59.177 71.1211C59.013 71.0482 58.8147 71.0117 58.5823 71.0117C58.3271 71.0117 58.1038 71.0641 57.9124 71.1689C57.7255 71.2738 57.5706 71.4196 57.4475 71.6064C57.3245 71.7887 57.2333 72.0029 57.1741 72.249C57.1148 72.4951 57.0852 72.7594 57.0852 73.042ZM61.4876 72.8164L60.7835 72.9053C60.7835 72.4222 60.8427 71.9733 60.9612 71.5586C61.0842 71.1439 61.2643 70.7793 61.5012 70.4648C61.7428 70.1504 62.0413 69.9066 62.3967 69.7334C62.7522 69.5557 63.1624 69.4668 63.6272 69.4668C63.9827 69.4668 64.3063 69.5192 64.5979 69.624C64.8896 69.7243 65.138 69.8861 65.343 70.1094C65.5527 70.3281 65.7122 70.6152 65.8216 70.9707C65.9355 71.3262 65.9925 71.7614 65.9925 72.2764V77H64.0169V72.2764C64.0169 71.9346 63.9713 71.6748 63.8801 71.4971C63.7936 71.3148 63.666 71.1895 63.4973 71.1211C63.3333 71.0482 63.1373 71.0117 62.9094 71.0117C62.6725 71.0117 62.4651 71.0596 62.2874 71.1553C62.1096 71.2464 61.9615 71.374 61.843 71.5381C61.7245 71.7021 61.6357 71.8936 61.5764 72.1123C61.5172 72.3265 61.4876 72.5612 61.4876 72.8164ZM67.5945 66.5H69.5632V75.3047L69.365 77H67.5945V66.5ZM74.2459 73.2266V73.3701C74.2459 73.9215 74.1866 74.4274 74.0681 74.8877C73.9542 75.348 73.7765 75.7467 73.5349 76.084C73.2934 76.4167 72.9926 76.6764 72.6326 76.8633C72.2771 77.0456 71.8578 77.1367 71.3748 77.1367C70.9236 77.1367 70.5317 77.0456 70.199 76.8633C69.8709 76.681 69.5951 76.4235 69.3718 76.0908C69.1485 75.7581 68.9685 75.3685 68.8318 74.9219C68.6951 74.4753 68.5925 73.9876 68.5242 73.459V73.1445C68.5925 72.6159 68.6951 72.1283 68.8318 71.6816C68.9685 71.235 69.1485 70.8454 69.3718 70.5127C69.5951 70.18 69.8709 69.9225 70.199 69.7402C70.5271 69.5579 70.9145 69.4668 71.3611 69.4668C71.8487 69.4668 72.2726 69.5602 72.6326 69.7471C72.9972 69.9294 73.2979 70.1891 73.5349 70.5264C73.7765 70.859 73.9542 71.2555 74.0681 71.7158C74.1866 72.1715 74.2459 72.6751 74.2459 73.2266ZM72.2771 73.3701V73.2266C72.2771 72.9258 72.2543 72.6432 72.2088 72.3789C72.1677 72.11 72.0948 71.8753 71.99 71.6748C71.8852 71.4697 71.7416 71.3079 71.5593 71.1895C71.3816 71.071 71.1515 71.0117 70.8689 71.0117C70.6 71.0117 70.3722 71.0573 70.1853 71.1484C69.9985 71.2396 69.8435 71.3672 69.7205 71.5312C69.602 71.6953 69.5131 71.8913 69.4539 72.1191C69.3946 72.3424 69.3582 72.5885 69.3445 72.8574V73.7529C69.3582 74.113 69.4174 74.432 69.5222 74.71C69.6316 74.9834 69.7957 75.1999 70.0144 75.3594C70.2377 75.5143 70.5271 75.5918 70.8826 75.5918C71.1606 75.5918 71.3907 75.5371 71.573 75.4277C71.7553 75.3184 71.8966 75.1634 71.9968 74.9629C72.1017 74.7624 72.1746 74.5277 72.2156 74.2588C72.2566 73.9854 72.2771 73.6891 72.2771 73.3701ZM78.9514 77.1367C78.3772 77.1367 77.8622 77.0456 77.4065 76.8633C76.9508 76.6764 76.5634 76.4189 76.2444 76.0908C75.9299 75.7627 75.6884 75.3822 75.5198 74.9492C75.3512 74.5117 75.2668 74.0469 75.2668 73.5547V73.2812C75.2668 72.7207 75.3466 72.208 75.5061 71.7432C75.6656 71.2783 75.8935 70.875 76.1897 70.5332C76.4905 70.1914 76.8551 69.9294 77.2835 69.7471C77.7118 69.5602 78.1949 69.4668 78.7327 69.4668C79.2568 69.4668 79.7216 69.5534 80.1272 69.7266C80.5328 69.8997 80.8723 70.1458 81.1458 70.4648C81.4238 70.7839 81.6334 71.1667 81.7747 71.6133C81.9159 72.0553 81.9866 72.5475 81.9866 73.0898V73.9102H76.1077V72.5977H80.052V72.4473C80.052 72.1738 80.0019 71.93 79.9016 71.7158C79.8059 71.4971 79.6601 71.3239 79.4641 71.1963C79.2682 71.0687 79.0175 71.0049 78.7122 71.0049C78.4524 71.0049 78.2291 71.0618 78.0422 71.1758C77.8554 71.2897 77.7027 71.4492 77.5842 71.6543C77.4703 71.8594 77.3837 72.1009 77.3245 72.3789C77.2698 72.6523 77.2424 72.9531 77.2424 73.2812V73.5547C77.2424 73.8509 77.2835 74.1243 77.3655 74.375C77.4521 74.6257 77.5728 74.8421 77.7278 75.0244C77.8873 75.2067 78.0787 75.348 78.302 75.4482C78.5299 75.5485 78.7874 75.5986 79.0745 75.5986C79.4299 75.5986 79.7603 75.5303 80.0657 75.3936C80.3756 75.2523 80.6422 75.0404 80.8655 74.7578L81.8225 75.7969C81.6676 76.0202 81.4557 76.2344 81.1868 76.4395C80.9224 76.6445 80.6034 76.8132 80.2297 76.9453C79.856 77.0729 79.4299 77.1367 78.9514 77.1367ZM85.154 71.2168V77H83.1853V69.6035H85.0378L85.154 71.2168ZM87.3826 69.5557L87.3484 71.3809C87.2527 71.3672 87.1365 71.3558 86.9998 71.3467C86.8676 71.333 86.7468 71.3262 86.6374 71.3262C86.3595 71.3262 86.1179 71.3626 85.9128 71.4355C85.7123 71.5039 85.5437 71.6064 85.407 71.7432C85.2748 71.8799 85.1746 72.0462 85.1062 72.2422C85.0424 72.4382 85.0059 72.6615 84.9968 72.9121L84.6003 72.7891C84.6003 72.3105 84.6482 71.8708 84.7439 71.4697C84.8396 71.0641 84.9786 70.7109 85.1609 70.4102C85.3477 70.1094 85.5756 69.877 85.8445 69.7129C86.1134 69.5488 86.421 69.4668 86.7673 69.4668C86.8767 69.4668 86.9884 69.4759 87.1023 69.4941C87.2162 69.5078 87.3096 69.5283 87.3826 69.5557ZM91.6394 73.377V73.2334C91.6394 72.6911 91.7169 72.1921 91.8718 71.7363C92.0268 71.276 92.2523 70.8773 92.5486 70.54C92.8448 70.2028 93.2094 69.9408 93.6423 69.7539C94.0753 69.5625 94.572 69.4668 95.1326 69.4668C95.6931 69.4668 96.1921 69.5625 96.6296 69.7539C97.0671 69.9408 97.434 70.2028 97.7302 70.54C98.031 70.8773 98.2589 71.276 98.4138 71.7363C98.5688 72.1921 98.6462 72.6911 98.6462 73.2334V73.377C98.6462 73.9147 98.5688 74.4137 98.4138 74.874C98.2589 75.3298 98.031 75.7285 97.7302 76.0703C97.434 76.4076 97.0694 76.6696 96.6365 76.8564C96.2035 77.0433 95.7068 77.1367 95.1462 77.1367C94.5857 77.1367 94.0867 77.0433 93.6492 76.8564C93.2162 76.6696 92.8493 76.4076 92.5486 76.0703C92.2523 75.7285 92.0268 75.3298 91.8718 74.874C91.7169 74.4137 91.6394 73.9147 91.6394 73.377ZM93.6081 73.2334V73.377C93.6081 73.6868 93.6355 73.9762 93.6902 74.2451C93.7449 74.514 93.8314 74.751 93.9499 74.9561C94.073 75.1566 94.2325 75.3138 94.4285 75.4277C94.6244 75.5417 94.8637 75.5986 95.1462 75.5986C95.4197 75.5986 95.6544 75.5417 95.8503 75.4277C96.0463 75.3138 96.2035 75.1566 96.322 74.9561C96.4405 74.751 96.5271 74.514 96.5818 74.2451C96.641 73.9762 96.6706 73.6868 96.6706 73.377V73.2334C96.6706 72.9326 96.641 72.6501 96.5818 72.3857C96.5271 72.1169 96.4382 71.8799 96.3152 71.6748C96.1967 71.4652 96.0395 71.3011 95.8435 71.1826C95.6475 71.0641 95.4105 71.0049 95.1326 71.0049C94.8546 71.0049 94.6176 71.0641 94.4216 71.1826C94.2302 71.3011 94.073 71.4652 93.9499 71.6748C93.8314 71.8799 93.7449 72.1169 93.6902 72.3857C93.6355 72.6501 93.6081 72.9326 93.6081 73.2334ZM102.443 77H100.46V68.9473C100.46 68.3867 100.57 67.915 100.788 67.5322C101.012 67.1449 101.324 66.8532 101.725 66.6572C102.13 66.4567 102.611 66.3564 103.167 66.3564C103.349 66.3564 103.525 66.3701 103.694 66.3975C103.862 66.4202 104.026 66.4499 104.186 66.4863L104.165 67.9697C104.079 67.9469 103.988 67.931 103.892 67.9219C103.796 67.9128 103.684 67.9082 103.557 67.9082C103.32 67.9082 103.117 67.9492 102.948 68.0312C102.784 68.1087 102.659 68.2249 102.572 68.3799C102.486 68.5348 102.443 68.724 102.443 68.9473V77ZM103.919 69.6035V70.998H99.3596V69.6035H103.919ZM44.6504 82.0469H48.3623C49.1234 82.0469 49.7774 82.1608 50.3242 82.3887C50.8757 82.6165 51.2995 82.9538 51.5957 83.4004C51.892 83.847 52.0401 84.3962 52.0401 85.0479C52.0401 85.5811 51.9489 86.0391 51.7666 86.4219C51.5889 86.8001 51.336 87.1169 51.0078 87.3721C50.6843 87.6227 50.3037 87.8232 49.8662 87.9736L49.2168 88.3154H45.9903L45.9766 86.7158H48.376C48.736 86.7158 49.0345 86.652 49.2715 86.5244C49.5085 86.3968 49.6862 86.2191 49.8047 85.9912C49.9278 85.7633 49.9893 85.499 49.9893 85.1982C49.9893 84.8792 49.93 84.6035 49.8116 84.3711C49.6931 84.1387 49.5131 83.9609 49.2715 83.8379C49.03 83.7148 48.7269 83.6533 48.3623 83.6533H46.7012V92H44.6504V82.0469ZM50.2149 92L47.9453 87.5635L50.1123 87.5498L52.4092 91.9043V92H50.2149ZM56.9781 92.1367C56.4038 92.1367 55.8889 92.0456 55.4331 91.8633C54.9774 91.6764 54.59 91.4189 54.271 91.0908C53.9566 90.7627 53.715 90.3822 53.5464 89.9492C53.3778 89.5117 53.2935 89.0469 53.2935 88.5547V88.2812C53.2935 87.7207 53.3732 87.208 53.5327 86.7432C53.6922 86.2783 53.9201 85.875 54.2163 85.5332C54.5171 85.1914 54.8817 84.9294 55.3101 84.7471C55.7385 84.5602 56.2215 84.4668 56.7593 84.4668C57.2834 84.4668 57.7482 84.5534 58.1538 84.7266C58.5594 84.8997 58.8989 85.1458 59.1724 85.4648C59.4504 85.7839 59.66 86.1667 59.8013 86.6133C59.9426 87.0553 60.0132 87.5475 60.0132 88.0898V88.9102H54.1343V87.5977H58.0786V87.4473C58.0786 87.1738 58.0285 86.93 57.9282 86.7158C57.8325 86.4971 57.6867 86.3239 57.4907 86.1963C57.2948 86.0687 57.0441 86.0049 56.7388 86.0049C56.479 86.0049 56.2557 86.0618 56.0689 86.1758C55.882 86.2897 55.7294 86.4492 55.6109 86.6543C55.4969 86.8594 55.4103 87.1009 55.3511 87.3789C55.2964 87.6523 55.2691 87.9531 55.2691 88.2812V88.5547C55.2691 88.8509 55.3101 89.1243 55.3921 89.375C55.4787 89.6257 55.5995 89.8421 55.7544 90.0244C55.9139 90.2067 56.1053 90.348 56.3286 90.4482C56.5565 90.5485 56.814 90.5986 57.1011 90.5986C57.4566 90.5986 57.787 90.5303 58.0923 90.3936C58.4022 90.2523 58.6688 90.0404 58.8921 89.7578L59.8491 90.7969C59.6942 91.0202 59.4823 91.2344 59.2134 91.4395C58.9491 91.6445 58.6301 91.8132 58.2564 91.9453C57.8827 92.0729 57.4566 92.1367 56.9781 92.1367ZM65.8945 84.6035H67.6787V91.7539C67.6787 92.4284 67.5283 93.0003 67.2276 93.4697C66.9313 93.9437 66.5166 94.3014 65.9834 94.543C65.4502 94.7891 64.8304 94.9121 64.124 94.9121C63.8141 94.9121 63.486 94.8711 63.1397 94.7891C62.7979 94.707 62.4697 94.5794 62.1553 94.4062C61.8454 94.2331 61.5856 94.0143 61.376 93.75L62.2442 92.5879C62.472 92.8522 62.7363 93.0573 63.0371 93.2031C63.3379 93.3535 63.6706 93.4287 64.0352 93.4287C64.3906 93.4287 64.6914 93.3626 64.9375 93.2305C65.1836 93.1029 65.3727 92.9137 65.5049 92.6631C65.6371 92.417 65.7031 92.1185 65.7031 91.7676V86.3125L65.8945 84.6035ZM60.918 88.3906V88.2471C60.918 87.682 60.9863 87.1693 61.1231 86.709C61.2643 86.2441 61.4626 85.8454 61.7178 85.5127C61.9776 85.18 62.292 84.9225 62.6611 84.7402C63.0303 84.5579 63.4473 84.4668 63.9121 84.4668C64.4043 84.4668 64.8167 84.5579 65.1494 84.7402C65.4821 84.9225 65.7555 85.1823 65.9697 85.5195C66.1839 85.8522 66.3503 86.2464 66.4688 86.7021C66.5918 87.1533 66.6875 87.6478 66.7559 88.1855V88.5C66.6875 89.015 66.585 89.4935 66.4483 89.9355C66.3115 90.3776 66.1315 90.765 65.9082 91.0977C65.6849 91.4258 65.4069 91.681 65.0742 91.8633C64.7461 92.0456 64.3542 92.1367 63.8985 92.1367C63.4427 92.1367 63.0303 92.0433 62.6611 91.8564C62.2966 91.6696 61.9844 91.4076 61.7246 91.0703C61.4649 90.7331 61.2643 90.3366 61.1231 89.8809C60.9863 89.4251 60.918 88.9284 60.918 88.3906ZM62.8867 88.2471V88.3906C62.8867 88.696 62.9164 88.9808 62.9756 89.2451C63.0348 89.5094 63.126 89.7441 63.249 89.9492C63.3766 90.1497 63.5339 90.307 63.7207 90.4209C63.9121 90.5303 64.1377 90.585 64.3975 90.585C64.7575 90.585 65.0514 90.5098 65.2793 90.3594C65.5072 90.2044 65.6781 89.9925 65.792 89.7236C65.9059 89.4548 65.972 89.1449 65.9902 88.7939V87.8984C65.9811 87.6113 65.9424 87.3538 65.874 87.126C65.8057 86.8936 65.71 86.6953 65.5869 86.5312C65.4639 86.3672 65.3044 86.2396 65.1084 86.1484C64.9125 86.0573 64.68 86.0117 64.4111 86.0117C64.1514 86.0117 63.9258 86.071 63.7344 86.1895C63.5475 86.3034 63.3903 86.4606 63.2627 86.6611C63.1397 86.8617 63.0462 87.0986 62.9824 87.3721C62.9186 87.641 62.8867 87.9326 62.8867 88.2471ZM71.3657 84.6035V92H69.3901V84.6035H71.3657ZM69.2671 82.6758C69.2671 82.3887 69.3674 82.1517 69.5679 81.9648C69.7684 81.778 70.0373 81.6846 70.3745 81.6846C70.7072 81.6846 70.9738 81.778 71.1743 81.9648C71.3794 82.1517 71.4819 82.3887 71.4819 82.6758C71.4819 82.9629 71.3794 83.1999 71.1743 83.3867C70.9738 83.5736 70.7072 83.667 70.3745 83.667C70.0373 83.667 69.7684 83.5736 69.5679 83.3867C69.3674 83.1999 69.2671 82.9629 69.2671 82.6758ZM77.0693 89.9561C77.0693 89.8148 77.0283 89.6872 76.9463 89.5732C76.8643 89.4593 76.7116 89.3545 76.4883 89.2588C76.2695 89.1585 75.9528 89.0674 75.5381 88.9854C75.1644 88.9033 74.8158 88.8008 74.4922 88.6777C74.1732 88.5501 73.8952 88.3975 73.6582 88.2197C73.4258 88.042 73.2435 87.8324 73.1113 87.5908C72.9792 87.3447 72.9131 87.0645 72.9131 86.75C72.9131 86.4401 72.9792 86.1484 73.1113 85.875C73.248 85.6016 73.4417 85.36 73.6924 85.1504C73.9476 84.9362 74.2575 84.7699 74.6221 84.6514C74.9912 84.5283 75.4059 84.4668 75.8662 84.4668C76.5088 84.4668 77.0602 84.5693 77.5205 84.7744C77.9854 84.9795 78.3408 85.262 78.5869 85.6221C78.8376 85.9775 78.9629 86.3831 78.9629 86.8389H76.9941C76.9941 86.6475 76.9531 86.4766 76.8711 86.3262C76.7936 86.1712 76.6706 86.0505 76.502 85.9639C76.3379 85.8727 76.1237 85.8271 75.8594 85.8271C75.6406 85.8271 75.4515 85.8659 75.292 85.9434C75.1325 86.0163 75.0094 86.1165 74.9229 86.2441C74.8408 86.3672 74.7998 86.5039 74.7998 86.6543C74.7998 86.7682 74.8226 86.8708 74.8682 86.9619C74.9183 87.0485 74.998 87.1283 75.1074 87.2012C75.2168 87.2741 75.3581 87.3424 75.5312 87.4062C75.709 87.4655 75.9277 87.5202 76.1875 87.5703C76.7207 87.6797 77.1969 87.8232 77.6162 88.001C78.0355 88.1742 78.3682 88.4111 78.6143 88.7119C78.8604 89.0081 78.9834 89.3978 78.9834 89.8809C78.9834 90.209 78.9105 90.5098 78.7646 90.7832C78.6188 91.0566 78.4092 91.2959 78.1357 91.501C77.8623 91.7015 77.5342 91.8587 77.1514 91.9727C76.7731 92.082 76.347 92.1367 75.873 92.1367C75.1849 92.1367 74.6016 92.0137 74.123 91.7676C73.6491 91.5215 73.2891 91.2093 73.043 90.8311C72.8014 90.4482 72.6807 90.0563 72.6807 89.6553H74.5469C74.556 89.9242 74.6243 90.1406 74.752 90.3047C74.8841 90.4688 75.0505 90.5872 75.251 90.6602C75.4561 90.7331 75.6771 90.7695 75.9141 90.7695C76.1693 90.7695 76.3812 90.7354 76.5498 90.667C76.7184 90.5941 76.846 90.4984 76.9326 90.3799C77.0238 90.2568 77.0693 90.1156 77.0693 89.9561ZM83.9624 84.6035V85.998H79.6558V84.6035H83.9624ZM80.7222 82.7783H82.6909V89.7715C82.6909 89.9857 82.7183 90.1497 82.7729 90.2637C82.8322 90.3776 82.9188 90.4574 83.0327 90.5029C83.1466 90.5439 83.2902 90.5645 83.4634 90.5645C83.5864 90.5645 83.6958 90.5599 83.7915 90.5508C83.8918 90.5371 83.9761 90.5234 84.0444 90.5098L84.0513 91.959C83.8826 92.0137 83.7004 92.057 83.5044 92.0889C83.3084 92.1208 83.092 92.1367 82.855 92.1367C82.422 92.1367 82.0438 92.0661 81.7202 91.9248C81.4012 91.779 81.1551 91.5465 80.9819 91.2275C80.8087 90.9085 80.7222 90.4893 80.7222 89.9697V82.7783ZM88.5654 92.1367C87.9912 92.1367 87.4762 92.0456 87.0205 91.8633C86.5648 91.6764 86.1774 91.4189 85.8584 91.0908C85.5439 90.7627 85.3024 90.3822 85.1338 89.9492C84.9652 89.5117 84.8808 89.0469 84.8808 88.5547V88.2812C84.8808 87.7207 84.9606 87.208 85.1201 86.7432C85.2796 86.2783 85.5075 85.875 85.8037 85.5332C86.1045 85.1914 86.4691 84.9294 86.8974 84.7471C87.3258 84.5602 87.8089 84.4668 88.3467 84.4668C88.8708 84.4668 89.3356 84.5534 89.7412 84.7266C90.1468 84.8997 90.4863 85.1458 90.7598 85.4648C91.0377 85.7839 91.2474 86.1667 91.3887 86.6133C91.5299 87.0553 91.6006 87.5475 91.6006 88.0898V88.9102H85.7217V87.5977H89.666V87.4473C89.666 87.1738 89.6159 86.93 89.5156 86.7158C89.4199 86.4971 89.2741 86.3239 89.0781 86.1963C88.8821 86.0687 88.6315 86.0049 88.3262 86.0049C88.0664 86.0049 87.8431 86.0618 87.6562 86.1758C87.4694 86.2897 87.3167 86.4492 87.1982 86.6543C87.0843 86.8594 86.9977 87.1009 86.9385 87.3789C86.8838 87.6523 86.8564 87.9531 86.8564 88.2812V88.5547C86.8564 88.8509 86.8974 89.1243 86.9795 89.375C87.0661 89.6257 87.1868 89.8421 87.3418 90.0244C87.5013 90.2067 87.6927 90.348 87.916 90.4482C88.1439 90.5485 88.4014 90.5986 88.6885 90.5986C89.0439 90.5986 89.3743 90.5303 89.6797 90.3936C89.9896 90.2523 90.2562 90.0404 90.4795 89.7578L91.4365 90.7969C91.2816 91.0202 91.0696 91.2344 90.8008 91.4395C90.5364 91.6445 90.2174 91.8132 89.8437 91.9453C89.47 92.0729 89.0439 92.1367 88.5654 92.1367ZM94.768 86.2168V92H92.7993V84.6035H94.6518L94.768 86.2168ZM96.9966 84.5557L96.9624 86.3809C96.8667 86.3672 96.7505 86.3558 96.6137 86.3467C96.4816 86.333 96.3608 86.3262 96.2514 86.3262C95.9734 86.3262 95.7319 86.3626 95.5268 86.4355C95.3263 86.5039 95.1577 86.6064 95.021 86.7432C94.8888 86.8799 94.7886 87.0462 94.7202 87.2422C94.6564 87.4382 94.6199 87.6615 94.6108 87.9121L94.2143 87.7891C94.2143 87.3105 94.2622 86.8708 94.3579 86.4697C94.4536 86.0641 94.5926 85.7109 94.7749 85.4102C94.9617 85.1094 95.1896 84.877 95.4585 84.7129C95.7274 84.5488 96.035 84.4668 96.3813 84.4668C96.4907 84.4668 96.6024 84.4759 96.7163 84.4941C96.8302 84.5078 96.9236 84.5283 96.9966 84.5557ZM35.1504 104.452H32.6143V102.853H35.1504C35.5424 102.853 35.8614 102.789 36.1075 102.661C36.3536 102.529 36.5336 102.347 36.6475 102.114C36.7614 101.882 36.8184 101.62 36.8184 101.328C36.8184 101.032 36.7614 100.756 36.6475 100.501C36.5336 100.246 36.3536 100.041 36.1075 99.8857C35.8614 99.7308 35.5424 99.6533 35.1504 99.6533H33.3252V108H31.2745V98.0469H35.1504C35.9297 98.0469 36.5974 98.1882 37.1534 98.4707C37.7139 98.7487 38.1423 99.1338 38.4385 99.626C38.7347 100.118 38.8829 100.681 38.8829 101.314C38.8829 101.957 38.7347 102.513 38.4385 102.982C38.1423 103.452 37.7139 103.814 37.1534 104.069C36.5974 104.325 35.9297 104.452 35.1504 104.452ZM42.2212 102.217V108H40.2525V100.604H42.105L42.2212 102.217ZM44.4497 100.556L44.4156 102.381C44.3199 102.367 44.2037 102.356 44.0669 102.347C43.9348 102.333 43.814 102.326 43.7046 102.326C43.4266 102.326 43.1851 102.363 42.98 102.436C42.7795 102.504 42.6109 102.606 42.4742 102.743C42.342 102.88 42.2417 103.046 42.1734 103.242C42.1096 103.438 42.0731 103.661 42.064 103.912L41.6675 103.789C41.6675 103.311 41.7154 102.871 41.8111 102.47C41.9068 102.064 42.0458 101.711 42.2281 101.41C42.4149 101.109 42.6428 100.877 42.9117 100.713C43.1805 100.549 43.4882 100.467 43.8345 100.467C43.9439 100.467 44.0555 100.476 44.1695 100.494C44.2834 100.508 44.3768 100.528 44.4497 100.556ZM44.9375 104.377V104.233C44.9375 103.691 45.015 103.192 45.17 102.736C45.3249 102.276 45.5505 101.877 45.8467 101.54C46.1429 101.203 46.5075 100.941 46.9405 100.754C47.3734 100.562 47.8701 100.467 48.4307 100.467C48.9912 100.467 49.4903 100.562 49.9278 100.754C50.3653 100.941 50.7321 101.203 51.0284 101.54C51.3291 101.877 51.557 102.276 51.7119 102.736C51.8669 103.192 51.9444 103.691 51.9444 104.233V104.377C51.9444 104.915 51.8669 105.414 51.7119 105.874C51.557 106.33 51.3291 106.729 51.0284 107.07C50.7321 107.408 50.3675 107.67 49.9346 107.856C49.5017 108.043 49.0049 108.137 48.4444 108.137C47.8838 108.137 47.3848 108.043 46.9473 107.856C46.5144 107.67 46.1475 107.408 45.8467 107.07C45.5505 106.729 45.3249 106.33 45.17 105.874C45.015 105.414 44.9375 104.915 44.9375 104.377ZM46.9063 104.233V104.377C46.9063 104.687 46.9336 104.976 46.9883 105.245C47.043 105.514 47.1296 105.751 47.2481 105.956C47.3711 106.157 47.5306 106.314 47.7266 106.428C47.9226 106.542 48.1618 106.599 48.4444 106.599C48.7178 106.599 48.9525 106.542 49.1485 106.428C49.3444 106.314 49.5017 106.157 49.6201 105.956C49.7386 105.751 49.8252 105.514 49.8799 105.245C49.9392 104.976 49.9688 104.687 49.9688 104.377V104.233C49.9688 103.933 49.9392 103.65 49.8799 103.386C49.8252 103.117 49.7364 102.88 49.6133 102.675C49.4948 102.465 49.3376 102.301 49.1416 102.183C48.9457 102.064 48.7087 102.005 48.4307 102.005C48.1527 102.005 47.9157 102.064 47.7198 102.183C47.5284 102.301 47.3711 102.465 47.2481 102.675C47.1296 102.88 47.043 103.117 46.9883 103.386C46.9336 103.65 46.9063 103.933 46.9063 104.233ZM55.7407 108H53.7583V99.9473C53.7583 99.3867 53.8677 98.915 54.0864 98.5322C54.3098 98.1449 54.6219 97.8532 55.023 97.6572C55.4286 97.4567 55.9094 97.3564 56.4654 97.3564C56.6476 97.3564 56.8231 97.3701 56.9917 97.3975C57.1603 97.4202 57.3244 97.4499 57.4839 97.4863L57.4634 98.9697C57.3768 98.9469 57.2857 98.931 57.19 98.9219C57.0943 98.9128 56.9826 98.9082 56.855 98.9082C56.618 98.9082 56.4152 98.9492 56.2466 99.0312C56.0825 99.1087 55.9572 99.2249 55.8706 99.3799C55.784 99.5348 55.7407 99.724 55.7407 99.9473V108ZM57.2173 100.604V101.998H52.6577V100.604H57.2173ZM61.5674 108.137C60.9932 108.137 60.4782 108.046 60.0225 107.863C59.5667 107.676 59.1794 107.419 58.8604 107.091C58.5459 106.763 58.3044 106.382 58.1358 105.949C57.9671 105.512 57.8828 105.047 57.8828 104.555V104.281C57.8828 103.721 57.9626 103.208 58.1221 102.743C58.2816 102.278 58.5095 101.875 58.8057 101.533C59.1065 101.191 59.471 100.929 59.8994 100.747C60.3278 100.56 60.8109 100.467 61.3486 100.467C61.8727 100.467 62.3376 100.553 62.7432 100.727C63.1488 100.9 63.4883 101.146 63.7617 101.465C64.0397 101.784 64.2494 102.167 64.3906 102.613C64.5319 103.055 64.6026 103.548 64.6026 104.09V104.91H58.7236V103.598H62.668V103.447C62.668 103.174 62.6179 102.93 62.5176 102.716C62.4219 102.497 62.2761 102.324 62.0801 102.196C61.8841 102.069 61.6335 102.005 61.3281 102.005C61.0684 102.005 60.8451 102.062 60.6582 102.176C60.4714 102.29 60.3187 102.449 60.2002 102.654C60.0863 102.859 59.9997 103.101 59.9404 103.379C59.8858 103.652 59.8584 103.953 59.8584 104.281V104.555C59.8584 104.851 59.8994 105.124 59.9815 105.375C60.068 105.626 60.1888 105.842 60.3438 106.024C60.5033 106.207 60.6947 106.348 60.918 106.448C61.1458 106.549 61.4033 106.599 61.6904 106.599C62.0459 106.599 62.3763 106.53 62.6817 106.394C62.9916 106.252 63.2582 106.04 63.4815 105.758L64.4385 106.797C64.2835 107.02 64.0716 107.234 63.8027 107.439C63.5384 107.645 63.2194 107.813 62.8457 107.945C62.472 108.073 62.0459 108.137 61.5674 108.137ZM69.8003 105.956C69.8003 105.815 69.7593 105.687 69.6773 105.573C69.5952 105.459 69.4426 105.354 69.2192 105.259C69.0005 105.159 68.6838 105.067 68.2691 104.985C67.8954 104.903 67.5467 104.801 67.2232 104.678C66.9041 104.55 66.6261 104.397 66.3892 104.22C66.1567 104.042 65.9745 103.832 65.8423 103.591C65.7101 103.345 65.6441 103.064 65.6441 102.75C65.6441 102.44 65.7101 102.148 65.8423 101.875C65.979 101.602 66.1727 101.36 66.4233 101.15C66.6786 100.936 66.9885 100.77 67.353 100.651C67.7222 100.528 68.1369 100.467 68.5972 100.467C69.2398 100.467 69.7912 100.569 70.2515 100.774C70.7163 100.979 71.0718 101.262 71.3179 101.622C71.5685 101.978 71.6939 102.383 71.6939 102.839H69.7251C69.7251 102.647 69.6841 102.477 69.6021 102.326C69.5246 102.171 69.4015 102.05 69.2329 101.964C69.0689 101.873 68.8547 101.827 68.5903 101.827C68.3716 101.827 68.1825 101.866 68.023 101.943C67.8635 102.016 67.7404 102.117 67.6538 102.244C67.5718 102.367 67.5308 102.504 67.5308 102.654C67.5308 102.768 67.5536 102.871 67.5991 102.962C67.6493 103.049 67.729 103.128 67.8384 103.201C67.9478 103.274 68.089 103.342 68.2622 103.406C68.4399 103.465 68.6587 103.52 68.9185 103.57C69.4517 103.68 69.9279 103.823 70.3472 104.001C70.7664 104.174 71.0991 104.411 71.3452 104.712C71.5913 105.008 71.7144 105.398 71.7144 105.881C71.7144 106.209 71.6414 106.51 71.4956 106.783C71.3498 107.057 71.1401 107.296 70.8667 107.501C70.5933 107.701 70.2651 107.859 69.8823 107.973C69.5041 108.082 69.078 108.137 68.604 108.137C67.9159 108.137 67.3325 108.014 66.854 107.768C66.3801 107.521 66.02 107.209 65.7739 106.831C65.5324 106.448 65.4116 106.056 65.4116 105.655H67.2778C67.287 105.924 67.3553 106.141 67.4829 106.305C67.6151 106.469 67.7814 106.587 67.9819 106.66C68.187 106.733 68.408 106.77 68.645 106.77C68.9002 106.77 69.1121 106.735 69.2808 106.667C69.4494 106.594 69.577 106.498 69.6636 106.38C69.7547 106.257 69.8003 106.116 69.8003 105.956ZM77.0693 105.956C77.0693 105.815 77.0283 105.687 76.9463 105.573C76.8643 105.459 76.7116 105.354 76.4883 105.259C76.2695 105.159 75.9528 105.067 75.5381 104.985C75.1644 104.903 74.8158 104.801 74.4922 104.678C74.1732 104.55 73.8952 104.397 73.6582 104.22C73.4258 104.042 73.2435 103.832 73.1113 103.591C72.9792 103.345 72.9131 103.064 72.9131 102.75C72.9131 102.44 72.9792 102.148 73.1113 101.875C73.248 101.602 73.4417 101.36 73.6924 101.15C73.9476 100.936 74.2575 100.77 74.6221 100.651C74.9912 100.528 75.4059 100.467 75.8662 100.467C76.5088 100.467 77.0602 100.569 77.5205 100.774C77.9854 100.979 78.3408 101.262 78.5869 101.622C78.8376 101.978 78.9629 102.383 78.9629 102.839H76.9941C76.9941 102.647 76.9531 102.477 76.8711 102.326C76.7936 102.171 76.6706 102.05 76.502 101.964C76.3379 101.873 76.1237 101.827 75.8594 101.827C75.6406 101.827 75.4515 101.866 75.292 101.943C75.1325 102.016 75.0094 102.117 74.9229 102.244C74.8408 102.367 74.7998 102.504 74.7998 102.654C74.7998 102.768 74.8226 102.871 74.8682 102.962C74.9183 103.049 74.998 103.128 75.1074 103.201C75.2168 103.274 75.3581 103.342 75.5312 103.406C75.709 103.465 75.9277 103.52 76.1875 103.57C76.7207 103.68 77.1969 103.823 77.6162 104.001C78.0355 104.174 78.3682 104.411 78.6143 104.712C78.8604 105.008 78.9834 105.398 78.9834 105.881C78.9834 106.209 78.9105 106.51 78.7646 106.783C78.6188 107.057 78.4092 107.296 78.1357 107.501C77.8623 107.701 77.5342 107.859 77.1514 107.973C76.7731 108.082 76.347 108.137 75.873 108.137C75.1849 108.137 74.6016 108.014 74.123 107.768C73.6491 107.521 73.2891 107.209 73.043 106.831C72.8014 106.448 72.6807 106.056 72.6807 105.655H74.5469C74.556 105.924 74.6243 106.141 74.752 106.305C74.8841 106.469 75.0505 106.587 75.251 106.66C75.4561 106.733 75.6771 106.77 75.9141 106.77C76.1693 106.77 76.3812 106.735 76.5498 106.667C76.7184 106.594 76.846 106.498 76.9326 106.38C77.0238 106.257 77.0693 106.116 77.0693 105.956ZM82.4175 100.604V108H80.4419V100.604H82.4175ZM80.3188 98.6758C80.3188 98.3887 80.4191 98.1517 80.6196 97.9648C80.8201 97.778 81.089 97.6846 81.4263 97.6846C81.7589 97.6846 82.0255 97.778 82.2261 97.9648C82.4311 98.1517 82.5337 98.3887 82.5337 98.6758C82.5337 98.9629 82.4311 99.1999 82.2261 99.3867C82.0255 99.5736 81.7589 99.667 81.4263 99.667C81.089 99.667 80.8201 99.5736 80.6196 99.3867C80.4191 99.1999 80.3188 98.9629 80.3188 98.6758ZM83.8076 104.377V104.233C83.8076 103.691 83.8851 103.192 84.04 102.736C84.195 102.276 84.4206 101.877 84.7168 101.54C85.013 101.203 85.3776 100.941 85.8105 100.754C86.2435 100.562 86.7402 100.467 87.3008 100.467C87.8613 100.467 88.3603 100.562 88.7978 100.754C89.2353 100.941 89.6022 101.203 89.8984 101.54C90.1992 101.877 90.4271 102.276 90.582 102.736C90.737 103.192 90.8144 103.691 90.8144 104.233V104.377C90.8144 104.915 90.737 105.414 90.582 105.874C90.4271 106.33 90.1992 106.729 89.8984 107.07C89.6022 107.408 89.2376 107.67 88.8047 107.856C88.3717 108.043 87.875 108.137 87.3144 108.137C86.7539 108.137 86.2549 108.043 85.8174 107.856C85.3844 107.67 85.0176 107.408 84.7168 107.07C84.4206 106.729 84.195 106.33 84.04 105.874C83.8851 105.414 83.8076 104.915 83.8076 104.377ZM85.7764 104.233V104.377C85.7764 104.687 85.8037 104.976 85.8584 105.245C85.9131 105.514 85.9997 105.751 86.1181 105.956C86.2412 106.157 86.4007 106.314 86.5967 106.428C86.7926 106.542 87.0319 106.599 87.3144 106.599C87.5879 106.599 87.8226 106.542 88.0185 106.428C88.2145 106.314 88.3717 106.157 88.4902 105.956C88.6087 105.751 88.6953 105.514 88.75 105.245C88.8092 104.976 88.8389 104.687 88.8389 104.377V104.233C88.8389 103.933 88.8092 103.65 88.75 103.386C88.6953 103.117 88.6064 102.88 88.4834 102.675C88.3649 102.465 88.2077 102.301 88.0117 102.183C87.8157 102.064 87.5788 102.005 87.3008 102.005C87.0228 102.005 86.7858 102.064 86.5898 102.183C86.3984 102.301 86.2412 102.465 86.1181 102.675C85.9997 102.88 85.9131 103.117 85.8584 103.386C85.8037 103.65 85.7764 103.933 85.7764 104.233ZM94.0298 102.183V108H92.061V100.604H93.9067L94.0298 102.183ZM93.7427 104.042H93.2094C93.2094 103.495 93.2801 103.003 93.4214 102.565C93.5626 102.123 93.7609 101.747 94.0161 101.438C94.2713 101.123 94.5744 100.884 94.9253 100.72C95.2807 100.551 95.6772 100.467 96.1147 100.467C96.4611 100.467 96.7778 100.517 97.0649 100.617C97.352 100.717 97.5981 100.877 97.8032 101.096C98.0128 101.314 98.1723 101.604 98.2817 101.964C98.3956 102.324 98.4526 102.764 98.4526 103.283V108H96.4702V103.276C96.4702 102.948 96.4246 102.693 96.3335 102.511C96.2423 102.328 96.1079 102.201 95.9302 102.128C95.757 102.05 95.5428 102.012 95.2876 102.012C95.0233 102.012 94.7931 102.064 94.5971 102.169C94.4057 102.274 94.2462 102.42 94.1186 102.606C93.9956 102.789 93.9022 103.003 93.8384 103.249C93.7746 103.495 93.7427 103.759 93.7427 104.042ZM104.02 106.332V103.037C104.02 102.8 103.981 102.597 103.903 102.429C103.826 102.256 103.705 102.121 103.541 102.025C103.381 101.93 103.174 101.882 102.919 101.882C102.7 101.882 102.511 101.921 102.352 101.998C102.192 102.071 102.069 102.178 101.982 102.319C101.896 102.456 101.853 102.618 101.853 102.805H99.8838C99.8838 102.49 99.9567 102.192 100.103 101.909C100.248 101.627 100.46 101.378 100.738 101.164C101.016 100.945 101.347 100.774 101.729 100.651C102.117 100.528 102.55 100.467 103.028 100.467C103.603 100.467 104.113 100.562 104.56 100.754C105.006 100.945 105.357 101.232 105.612 101.615C105.872 101.998 106.002 102.477 106.002 103.051V106.216C106.002 106.621 106.027 106.954 106.077 107.214C106.127 107.469 106.2 107.692 106.296 107.884V108H104.307C104.211 107.799 104.138 107.549 104.088 107.248C104.042 106.943 104.02 106.637 104.02 106.332ZM104.279 103.495L104.293 104.609H103.192C102.933 104.609 102.707 104.639 102.516 104.698C102.324 104.757 102.167 104.842 102.044 104.951C101.921 105.056 101.83 105.179 101.77 105.32C101.716 105.462 101.688 105.617 101.688 105.785C101.688 105.954 101.727 106.106 101.805 106.243C101.882 106.375 101.994 106.48 102.14 106.558C102.285 106.631 102.456 106.667 102.652 106.667C102.949 106.667 103.206 106.608 103.425 106.489C103.644 106.371 103.812 106.225 103.931 106.052C104.054 105.879 104.117 105.715 104.122 105.56L104.642 106.394C104.569 106.58 104.468 106.774 104.341 106.975C104.218 107.175 104.061 107.364 103.869 107.542C103.678 107.715 103.448 107.859 103.179 107.973C102.91 108.082 102.591 108.137 102.222 108.137C101.752 108.137 101.326 108.043 100.943 107.856C100.565 107.665 100.264 107.403 100.041 107.07C99.8222 106.733 99.7129 106.35 99.7129 105.922C99.7129 105.535 99.7858 105.19 99.9316 104.89C100.077 104.589 100.292 104.336 100.574 104.131C100.861 103.921 101.219 103.764 101.647 103.659C102.076 103.55 102.573 103.495 103.138 103.495H104.279ZM109.675 97.5V108H107.7V97.5H109.675Z" fill="white"/>
<path d="M91.6456 35.6719C91.6456 47.7933 81.8192 57.6197 69.6978 57.6197C57.5764 57.6197 47.75 47.7933 47.75 35.6719C47.75 23.5505 57.5764 13.7241 69.6978 13.7241C81.8192 13.7241 91.6456 23.5505 91.6456 35.6719Z" stroke="white" stroke-width="1.5"/>
<defs>
<linearGradient id="paint0_linear_2005_5571" x1="70" y1="0" x2="70" y2="115" gradientUnits="userSpaceOnUse">
<stop stop-color="#58DD9E"/>
<stop offset="1" stop-color="#12A05E"/>
</linearGradient>
</defs>
</svg>
