<svg width="140" height="115" viewBox="0 0 140 115" fill="none" xmlns="http://www.w3.org/2000/svg">
<rect width="140" height="115" rx="15" fill="url(#paint0_linear_2005_5573)"/>
<path d="M45.2259 77.0469V87H43.1751L39.1761 80.3281V87H37.1253V77.0469H39.1761L43.1819 83.7256V77.0469H45.2259ZM51.3396 85.2295V79.6035H53.3084V87H51.4558L51.3396 85.2295ZM51.5584 83.7119L52.1394 83.6982C52.1394 84.1904 52.0825 84.6484 51.9685 85.0723C51.8546 85.4915 51.6837 85.8561 51.4558 86.166C51.228 86.4714 50.9409 86.7106 50.5945 86.8838C50.2482 87.0524 49.8403 87.1367 49.3709 87.1367C49.0109 87.1367 48.6782 87.0866 48.3728 86.9863C48.072 86.8815 47.8123 86.7197 47.5935 86.501C47.3793 86.2777 47.2107 85.9928 47.0877 85.6465C46.9692 85.2956 46.9099 84.874 46.9099 84.3818V79.6035H48.8787V84.3955C48.8787 84.6143 48.9038 84.7988 48.9539 84.9492C49.0086 85.0996 49.0838 85.2227 49.1795 85.3184C49.2752 85.4141 49.3868 85.4824 49.5144 85.5234C49.6466 85.5645 49.7924 85.585 49.9519 85.585C50.3575 85.585 50.6765 85.5029 50.909 85.3389C51.1459 85.1748 51.3123 84.9515 51.408 84.6689C51.5082 84.3818 51.5584 84.0628 51.5584 83.7119ZM56.8587 81.1348V87H54.8831V79.6035H56.7356L56.8587 81.1348ZM56.5852 83.042H56.0383C56.0383 82.527 56.0999 82.0531 56.2229 81.6201C56.3505 81.1826 56.5351 80.8044 56.7766 80.4854C57.0227 80.1618 57.3258 79.9111 57.6858 79.7334C58.0458 79.5557 58.4628 79.4668 58.9368 79.4668C59.2649 79.4668 59.5657 79.5169 59.8391 79.6172C60.1126 79.7129 60.3473 79.8656 60.5432 80.0752C60.7438 80.2803 60.8987 80.5492 61.0081 80.8818C61.1175 81.21 61.1721 81.6042 61.1721 82.0645V87H59.2034V82.2832C59.2034 81.946 59.1578 81.6862 59.0667 81.5039C58.9755 81.3216 58.8456 81.194 58.677 81.1211C58.513 81.0482 58.3147 81.0117 58.0823 81.0117C57.8271 81.0117 57.6038 81.0641 57.4124 81.1689C57.2255 81.2738 57.0706 81.4196 56.9475 81.6064C56.8245 81.7887 56.7333 82.0029 56.6741 82.249C56.6148 82.4951 56.5852 82.7594 56.5852 83.042ZM60.9876 82.8164L60.2835 82.9053C60.2835 82.4222 60.3427 81.9733 60.4612 81.5586C60.5842 81.1439 60.7643 80.7793 61.0012 80.4648C61.2428 80.1504 61.5413 79.9066 61.8967 79.7334C62.2522 79.5557 62.6624 79.4668 63.1272 79.4668C63.4827 79.4668 63.8063 79.5192 64.0979 79.624C64.3896 79.7243 64.638 79.8861 64.843 80.1094C65.0527 80.3281 65.2122 80.6152 65.3216 80.9707C65.4355 81.3262 65.4925 81.7614 65.4925 82.2764V87H63.5169V82.2764C63.5169 81.9346 63.4713 81.6748 63.3801 81.4971C63.2936 81.3148 63.166 81.1895 62.9973 81.1211C62.8333 81.0482 62.6373 81.0117 62.4094 81.0117C62.1725 81.0117 61.9651 81.0596 61.7874 81.1553C61.6096 81.2464 61.4615 81.374 61.343 81.5381C61.2245 81.7021 61.1357 81.8936 61.0764 82.1123C61.0172 82.3265 60.9876 82.5612 60.9876 82.8164ZM67.0945 76.5H69.0632V85.3047L68.865 87H67.0945V76.5ZM73.7459 83.2266V83.3701C73.7459 83.9215 73.6866 84.4274 73.5681 84.8877C73.4542 85.348 73.2765 85.7467 73.0349 86.084C72.7934 86.4167 72.4926 86.6764 72.1326 86.8633C71.7771 87.0456 71.3578 87.1367 70.8748 87.1367C70.4236 87.1367 70.0317 87.0456 69.699 86.8633C69.3709 86.681 69.0951 86.4235 68.8718 86.0908C68.6485 85.7581 68.4685 85.3685 68.3318 84.9219C68.1951 84.4753 68.0925 83.9876 68.0242 83.459V83.1445C68.0925 82.6159 68.1951 82.1283 68.3318 81.6816C68.4685 81.235 68.6485 80.8454 68.8718 80.5127C69.0951 80.18 69.3709 79.9225 69.699 79.7402C70.0271 79.5579 70.4145 79.4668 70.8611 79.4668C71.3487 79.4668 71.7726 79.5602 72.1326 79.7471C72.4972 79.9294 72.7979 80.1891 73.0349 80.5264C73.2765 80.859 73.4542 81.2555 73.5681 81.7158C73.6866 82.1715 73.7459 82.6751 73.7459 83.2266ZM71.7771 83.3701V83.2266C71.7771 82.9258 71.7543 82.6432 71.7088 82.3789C71.6677 82.11 71.5948 81.8753 71.49 81.6748C71.3852 81.4697 71.2416 81.3079 71.0593 81.1895C70.8816 81.071 70.6515 81.0117 70.3689 81.0117C70.1 81.0117 69.8722 81.0573 69.6853 81.1484C69.4985 81.2396 69.3435 81.3672 69.2205 81.5312C69.102 81.6953 69.0131 81.8913 68.9539 82.1191C68.8946 82.3424 68.8582 82.5885 68.8445 82.8574V83.7529C68.8582 84.113 68.9174 84.432 69.0222 84.71C69.1316 84.9834 69.2957 85.1999 69.5144 85.3594C69.7377 85.5143 70.0271 85.5918 70.3826 85.5918C70.6606 85.5918 70.8907 85.5371 71.073 85.4277C71.2553 85.3184 71.3966 85.1634 71.4968 84.9629C71.6017 84.7624 71.6746 84.5277 71.7156 84.2588C71.7566 83.9854 71.7771 83.6891 71.7771 83.3701ZM78.4514 87.1367C77.8772 87.1367 77.3622 87.0456 76.9065 86.8633C76.4508 86.6764 76.0634 86.4189 75.7444 86.0908C75.4299 85.7627 75.1884 85.3822 75.0198 84.9492C74.8512 84.5117 74.7668 84.0469 74.7668 83.5547V83.2812C74.7668 82.7207 74.8466 82.208 75.0061 81.7432C75.1656 81.2783 75.3935 80.875 75.6897 80.5332C75.9905 80.1914 76.3551 79.9294 76.7835 79.7471C77.2118 79.5602 77.6949 79.4668 78.2327 79.4668C78.7568 79.4668 79.2216 79.5534 79.6272 79.7266C80.0328 79.8997 80.3723 80.1458 80.6458 80.4648C80.9238 80.7839 81.1334 81.1667 81.2747 81.6133C81.4159 82.0553 81.4866 82.5475 81.4866 83.0898V83.9102H75.6077V82.5977H79.552V82.4473C79.552 82.1738 79.5019 81.93 79.4016 81.7158C79.3059 81.4971 79.1601 81.3239 78.9641 81.1963C78.7682 81.0687 78.5175 81.0049 78.2122 81.0049C77.9524 81.0049 77.7291 81.0618 77.5422 81.1758C77.3554 81.2897 77.2027 81.4492 77.0842 81.6543C76.9703 81.8594 76.8837 82.1009 76.8245 82.3789C76.7698 82.6523 76.7424 82.9531 76.7424 83.2812V83.5547C76.7424 83.8509 76.7835 84.1243 76.8655 84.375C76.9521 84.6257 77.0728 84.8421 77.2278 85.0244C77.3873 85.2067 77.5787 85.348 77.802 85.4482C78.0299 85.5485 78.2874 85.5986 78.5745 85.5986C78.9299 85.5986 79.2603 85.5303 79.5657 85.3936C79.8756 85.2523 80.1422 85.0404 80.3655 84.7578L81.3225 85.7969C81.1676 86.0202 80.9557 86.2344 80.6868 86.4395C80.4224 86.6445 80.1034 86.8132 79.7297 86.9453C79.356 87.0729 78.9299 87.1367 78.4514 87.1367ZM84.654 81.2168V87H82.6853V79.6035H84.5378L84.654 81.2168ZM86.8826 79.5557L86.8484 81.3809C86.7527 81.3672 86.6365 81.3558 86.4998 81.3467C86.3676 81.333 86.2468 81.3262 86.1374 81.3262C85.8595 81.3262 85.6179 81.3626 85.4128 81.4355C85.2123 81.5039 85.0437 81.6064 84.907 81.7432C84.7748 81.8799 84.6746 82.0462 84.6062 82.2422C84.5424 82.4382 84.5059 82.6615 84.4968 82.9121L84.1003 82.7891C84.1003 82.3105 84.1482 81.8708 84.2439 81.4697C84.3396 81.0641 84.4786 80.7109 84.6609 80.4102C84.8477 80.1094 85.0756 79.877 85.3445 79.7129C85.6134 79.5488 85.921 79.4668 86.2673 79.4668C86.3767 79.4668 86.4884 79.4759 86.6023 79.4941C86.7162 79.5078 86.8096 79.5283 86.8826 79.5557ZM91.1394 83.377V83.2334C91.1394 82.6911 91.2169 82.1921 91.3718 81.7363C91.5268 81.276 91.7523 80.8773 92.0486 80.54C92.3448 80.2028 92.7094 79.9408 93.1423 79.7539C93.5753 79.5625 94.072 79.4668 94.6326 79.4668C95.1931 79.4668 95.6921 79.5625 96.1296 79.7539C96.5671 79.9408 96.934 80.2028 97.2302 80.54C97.531 80.8773 97.7589 81.276 97.9138 81.7363C98.0688 82.1921 98.1462 82.6911 98.1462 83.2334V83.377C98.1462 83.9147 98.0688 84.4137 97.9138 84.874C97.7589 85.3298 97.531 85.7285 97.2302 86.0703C96.934 86.4076 96.5694 86.6696 96.1365 86.8564C95.7035 87.0433 95.2068 87.1367 94.6462 87.1367C94.0857 87.1367 93.5867 87.0433 93.1492 86.8564C92.7162 86.6696 92.3493 86.4076 92.0486 86.0703C91.7523 85.7285 91.5268 85.3298 91.3718 84.874C91.2169 84.4137 91.1394 83.9147 91.1394 83.377ZM93.1081 83.2334V83.377C93.1081 83.6868 93.1355 83.9762 93.1902 84.2451C93.2449 84.514 93.3314 84.751 93.4499 84.9561C93.573 85.1566 93.7325 85.3138 93.9285 85.4277C94.1244 85.5417 94.3637 85.5986 94.6462 85.5986C94.9197 85.5986 95.1544 85.5417 95.3503 85.4277C95.5463 85.3138 95.7035 85.1566 95.822 84.9561C95.9405 84.751 96.0271 84.514 96.0818 84.2451C96.141 83.9762 96.1706 83.6868 96.1706 83.377V83.2334C96.1706 82.9326 96.141 82.6501 96.0818 82.3857C96.0271 82.1169 95.9382 81.8799 95.8152 81.6748C95.6967 81.4652 95.5395 81.3011 95.3435 81.1826C95.1475 81.0641 94.9105 81.0049 94.6326 81.0049C94.3546 81.0049 94.1176 81.0641 93.9216 81.1826C93.7302 81.3011 93.573 81.4652 93.4499 81.6748C93.3314 81.8799 93.2449 82.1169 93.1902 82.3857C93.1355 82.6501 93.1081 82.9326 93.1081 83.2334ZM101.943 87H99.9602V78.9473C99.9602 78.3867 100.07 77.915 100.288 77.5322C100.512 77.1449 100.824 76.8532 101.225 76.6572C101.63 76.4567 102.111 76.3564 102.667 76.3564C102.849 76.3564 103.025 76.3701 103.194 76.3975C103.362 76.4202 103.526 76.4499 103.686 76.4863L103.665 77.9697C103.579 77.9469 103.488 77.931 103.392 77.9219C103.296 77.9128 103.184 77.9082 103.057 77.9082C102.82 77.9082 102.617 77.9492 102.448 78.0312C102.284 78.1087 102.159 78.2249 102.072 78.3799C101.986 78.5348 101.943 78.724 101.943 78.9473V87ZM103.419 79.6035V80.998H98.8596V79.6035H103.419ZM21.4249 92.0469H25.1368C25.8978 92.0469 26.5518 92.1608 27.0987 92.3887C27.6501 92.6165 28.074 92.9538 28.3702 93.4004C28.6664 93.847 28.8145 94.3962 28.8145 95.0479C28.8145 95.5811 28.7234 96.0391 28.5411 96.4219C28.3633 96.8001 28.1104 97.1169 27.7823 97.3721C27.4587 97.6227 27.0782 97.8232 26.6407 97.9736L25.9913 98.3154H22.7647L22.751 96.7158H25.1505C25.5105 96.7158 25.809 96.652 26.046 96.5244C26.2829 96.3968 26.4607 96.2191 26.5792 95.9912C26.7022 95.7633 26.7637 95.499 26.7637 95.1982C26.7637 94.8792 26.7045 94.6035 26.586 94.3711C26.4675 94.1387 26.2875 93.9609 26.046 93.8379C25.8044 93.7148 25.5014 93.6533 25.1368 93.6533H23.4756V102H21.4249V92.0469ZM26.9893 102L24.7198 97.5635L26.8868 97.5498L29.1837 101.904V102H26.9893ZM33.7525 102.137C33.1783 102.137 32.6633 102.046 32.2076 101.863C31.7518 101.676 31.3645 101.419 31.0455 101.091C30.731 100.763 30.4895 100.382 30.3209 99.9492C30.1522 99.5117 30.0679 99.0469 30.0679 98.5547V98.2812C30.0679 97.7207 30.1477 97.208 30.3072 96.7432C30.4667 96.2783 30.6946 95.875 30.9908 95.5332C31.2916 95.1914 31.6561 94.9294 32.0845 94.7471C32.5129 94.5602 32.996 94.4668 33.5337 94.4668C34.0578 94.4668 34.5227 94.5534 34.9283 94.7266C35.3339 94.8997 35.6734 95.1458 35.9468 95.4648C36.2248 95.7839 36.4345 96.1667 36.5757 96.6133C36.717 97.0553 36.7877 97.5475 36.7877 98.0898V98.9102H30.9087V97.5977H34.8531V97.4473C34.8531 97.1738 34.803 96.93 34.7027 96.7158C34.607 96.4971 34.4612 96.3239 34.2652 96.1963C34.0692 96.0687 33.8186 96.0049 33.5132 96.0049C33.2535 96.0049 33.0302 96.0618 32.8433 96.1758C32.6565 96.2897 32.5038 96.4492 32.3853 96.6543C32.2714 96.8594 32.1848 97.1009 32.1255 97.3789C32.0709 97.6523 32.0435 97.9531 32.0435 98.2812V98.5547C32.0435 98.8509 32.0845 99.1243 32.1666 99.375C32.2531 99.6257 32.3739 99.8421 32.5289 100.024C32.6884 100.207 32.8798 100.348 33.1031 100.448C33.3309 100.549 33.5884 100.599 33.8755 100.599C34.231 100.599 34.5614 100.53 34.8668 100.394C35.1766 100.252 35.4433 100.04 35.6666 99.7578L36.6236 100.797C36.4686 101.02 36.2567 101.234 35.9878 101.439C35.7235 101.645 35.4045 101.813 35.0308 101.945C34.6571 102.073 34.231 102.137 33.7525 102.137ZM42.669 94.6035H44.4532V101.754C44.4532 102.428 44.3028 103 44.002 103.47C43.7058 103.944 43.2911 104.301 42.7579 104.543C42.2247 104.789 41.6049 104.912 40.8985 104.912C40.5886 104.912 40.2605 104.871 39.9141 104.789C39.5723 104.707 39.2442 104.579 38.9297 104.406C38.6198 104.233 38.3601 104.014 38.1504 103.75L39.0186 102.588C39.2465 102.852 39.5108 103.057 39.8116 103.203C40.1124 103.354 40.445 103.429 40.8096 103.429C41.1651 103.429 41.4659 103.363 41.712 103.23C41.9581 103.103 42.1472 102.914 42.2793 102.663C42.4115 102.417 42.4776 102.118 42.4776 101.768V96.3125L42.669 94.6035ZM37.6924 98.3906V98.2471C37.6924 97.682 37.7608 97.1693 37.8975 96.709C38.0388 96.2441 38.237 95.8454 38.4922 95.5127C38.752 95.18 39.0665 94.9225 39.4356 94.7402C39.8047 94.5579 40.2217 94.4668 40.6866 94.4668C41.1788 94.4668 41.5912 94.5579 41.9239 94.7402C42.2566 94.9225 42.53 95.1823 42.7442 95.5195C42.9584 95.8522 43.1247 96.2464 43.2432 96.7021C43.3663 97.1533 43.462 97.6478 43.5303 98.1855V98.5C43.462 99.015 43.3594 99.4935 43.2227 99.9355C43.086 100.378 42.906 100.765 42.6827 101.098C42.4594 101.426 42.1814 101.681 41.8487 101.863C41.5206 102.046 41.1286 102.137 40.6729 102.137C40.2172 102.137 39.8047 102.043 39.4356 101.856C39.071 101.67 38.7588 101.408 38.4991 101.07C38.2393 100.733 38.0388 100.337 37.8975 99.8809C37.7608 99.4251 37.6924 98.9284 37.6924 98.3906ZM39.6612 98.2471V98.3906C39.6612 98.696 39.6908 98.9808 39.75 99.2451C39.8093 99.5094 39.9004 99.7441 40.0235 99.9492C40.1511 100.15 40.3083 100.307 40.4952 100.421C40.6866 100.53 40.9122 100.585 41.1719 100.585C41.5319 100.585 41.8259 100.51 42.0538 100.359C42.2816 100.204 42.4525 99.9925 42.5665 99.7236C42.6804 99.4548 42.7465 99.1449 42.7647 98.7939V97.8984C42.7556 97.6113 42.7168 97.3538 42.6485 97.126C42.5801 96.8936 42.4844 96.6953 42.3614 96.5312C42.2383 96.3672 42.0788 96.2396 41.8829 96.1484C41.6869 96.0573 41.4545 96.0117 41.1856 96.0117C40.9258 96.0117 40.7002 96.071 40.5088 96.1895C40.322 96.3034 40.1648 96.4606 40.0372 96.6611C39.9141 96.8617 39.8207 97.0986 39.7569 97.3721C39.6931 97.641 39.6612 97.9326 39.6612 98.2471ZM48.1402 94.6035V102H46.1646V94.6035H48.1402ZM46.0415 92.6758C46.0415 92.3887 46.1418 92.1517 46.3423 91.9648C46.5428 91.778 46.8117 91.6846 47.149 91.6846C47.4816 91.6846 47.7482 91.778 47.9488 91.9648C48.1538 92.1517 48.2564 92.3887 48.2564 92.6758C48.2564 92.9629 48.1538 93.1999 47.9488 93.3867C47.7482 93.5736 47.4816 93.667 47.149 93.667C46.8117 93.667 46.5428 93.5736 46.3423 93.3867C46.1418 93.1999 46.0415 92.9629 46.0415 92.6758ZM53.8438 99.9561C53.8438 99.8148 53.8028 99.6872 53.7207 99.5732C53.6387 99.4593 53.486 99.3545 53.2627 99.2588C53.044 99.1585 52.7272 99.0674 52.3125 98.9854C51.9388 98.9033 51.5902 98.8008 51.2666 98.6777C50.9476 98.5501 50.6696 98.3975 50.4326 98.2197C50.2002 98.042 50.0179 97.8324 49.8858 97.5908C49.7536 97.3447 49.6875 97.0645 49.6875 96.75C49.6875 96.4401 49.7536 96.1484 49.8858 95.875C50.0225 95.6016 50.2162 95.36 50.4668 95.1504C50.722 94.9362 51.0319 94.7699 51.3965 94.6514C51.7657 94.5283 52.1804 94.4668 52.6407 94.4668C53.2832 94.4668 53.8347 94.5693 54.295 94.7744C54.7598 94.9795 55.1153 95.262 55.3614 95.6221C55.612 95.9775 55.7373 96.3831 55.7373 96.8389H53.7686C53.7686 96.6475 53.7276 96.4766 53.6455 96.3262C53.5681 96.1712 53.445 96.0505 53.2764 95.9639C53.1123 95.8727 52.8981 95.8271 52.6338 95.8271C52.4151 95.8271 52.2259 95.8659 52.0664 95.9434C51.9069 96.0163 51.7839 96.1165 51.6973 96.2441C51.6153 96.3672 51.5742 96.5039 51.5742 96.6543C51.5742 96.7682 51.597 96.8708 51.6426 96.9619C51.6927 97.0485 51.7725 97.1283 51.8819 97.2012C51.9912 97.2741 52.1325 97.3424 52.3057 97.4062C52.4834 97.4655 52.7022 97.5202 52.9619 97.5703C53.4951 97.6797 53.9714 97.8232 54.3907 98.001C54.8099 98.1742 55.1426 98.4111 55.3887 98.7119C55.6348 99.0081 55.7578 99.3978 55.7578 99.8809C55.7578 100.209 55.6849 100.51 55.5391 100.783C55.3933 101.057 55.1836 101.296 54.9102 101.501C54.6367 101.701 54.3086 101.859 53.9258 101.973C53.5476 102.082 53.1214 102.137 52.6475 102.137C51.9593 102.137 51.376 102.014 50.8975 101.768C50.4235 101.521 50.0635 101.209 49.8174 100.831C49.5759 100.448 49.4551 100.056 49.4551 99.6553H51.3213C51.3304 99.9242 51.3988 100.141 51.5264 100.305C51.6586 100.469 51.8249 100.587 52.0254 100.66C52.2305 100.733 52.4515 100.77 52.6885 100.77C52.9437 100.77 53.1556 100.735 53.3242 100.667C53.4929 100.594 53.6205 100.498 53.7071 100.38C53.7982 100.257 53.8438 100.116 53.8438 99.9561ZM60.7368 94.6035V95.998H56.4302V94.6035H60.7368ZM57.4966 92.7783H59.4654V99.7715C59.4654 99.9857 59.4927 100.15 59.5474 100.264C59.6066 100.378 59.6932 100.457 59.8072 100.503C59.9211 100.544 60.0646 100.564 60.2378 100.564C60.3609 100.564 60.4702 100.56 60.5659 100.551C60.6662 100.537 60.7505 100.523 60.8189 100.51L60.8257 101.959C60.6571 102.014 60.4748 102.057 60.2788 102.089C60.0829 102.121 59.8664 102.137 59.6294 102.137C59.1965 102.137 58.8182 102.066 58.4947 101.925C58.1756 101.779 57.9295 101.547 57.7564 101.228C57.5832 100.909 57.4966 100.489 57.4966 99.9697V92.7783ZM65.3399 102.137C64.7656 102.137 64.2507 102.046 63.7949 101.863C63.3392 101.676 62.9518 101.419 62.6328 101.091C62.3184 100.763 62.0768 100.382 61.9082 99.9492C61.7396 99.5117 61.6553 99.0469 61.6553 98.5547V98.2812C61.6553 97.7207 61.735 97.208 61.8945 96.7432C62.0541 96.2783 62.2819 95.875 62.5781 95.5332C62.8789 95.1914 63.2435 94.9294 63.6719 94.7471C64.1003 94.5602 64.5833 94.4668 65.1211 94.4668C65.6452 94.4668 66.11 94.5534 66.5156 94.7266C66.9212 94.8997 67.2608 95.1458 67.5342 95.4648C67.8122 95.7839 68.0218 96.1667 68.1631 96.6133C68.3044 97.0553 68.375 97.5475 68.375 98.0898V98.9102H62.4961V97.5977H66.4404V97.4473C66.4404 97.1738 66.3903 96.93 66.2901 96.7158C66.1944 96.4971 66.0485 96.3239 65.8526 96.1963C65.6566 96.0687 65.4059 96.0049 65.1006 96.0049C64.8408 96.0049 64.6175 96.0618 64.4307 96.1758C64.2438 96.2897 64.0912 96.4492 63.9727 96.6543C63.8587 96.8594 63.7722 97.1009 63.7129 97.3789C63.6582 97.6523 63.6309 97.9531 63.6309 98.2812V98.5547C63.6309 98.8509 63.6719 99.1243 63.7539 99.375C63.8405 99.6257 63.9613 99.8421 64.1162 100.024C64.2757 100.207 64.4671 100.348 64.6904 100.448C64.9183 100.549 65.1758 100.599 65.4629 100.599C65.8184 100.599 66.1488 100.53 66.4541 100.394C66.764 100.252 67.0306 100.04 67.2539 99.7578L68.211 100.797C68.056 101.02 67.8441 101.234 67.5752 101.439C67.3109 101.645 66.9919 101.813 66.6182 101.945C66.2445 102.073 65.8184 102.137 65.3399 102.137ZM71.5425 96.2168V102H69.5737V94.6035H71.4263L71.5425 96.2168ZM73.771 94.5557L73.7368 96.3809C73.6411 96.3672 73.5249 96.3558 73.3882 96.3467C73.256 96.333 73.1353 96.3262 73.0259 96.3262C72.7479 96.3262 72.5064 96.3626 72.3013 96.4355C72.1008 96.5039 71.9321 96.6064 71.7954 96.7432C71.6633 96.8799 71.563 97.0462 71.4946 97.2422C71.4308 97.4382 71.3944 97.6615 71.3853 97.9121L70.9888 97.7891C70.9888 97.3105 71.0366 96.8708 71.1323 96.4697C71.228 96.0641 71.367 95.7109 71.5493 95.4102C71.7362 95.1094 71.964 94.877 72.2329 94.7129C72.5018 94.5488 72.8094 94.4668 73.1558 94.4668C73.2651 94.4668 73.3768 94.4759 73.4907 94.4941C73.6047 94.5078 73.6981 94.5283 73.771 94.5557ZM82.0542 99.9219L84.3989 92.0469H86.6821L83.2163 102H81.7124L82.0542 99.9219ZM79.894 92.0469L82.2319 99.9219L82.5874 102H81.0698L77.6245 92.0469H79.894ZM89.6445 94.6035V102H87.6689V94.6035H89.6445ZM87.5459 92.6758C87.5459 92.3887 87.6461 92.1517 87.8467 91.9648C88.0472 91.778 88.3161 91.6846 88.6533 91.6846C88.986 91.6846 89.2526 91.778 89.4531 91.9648C89.6582 92.1517 89.7607 92.3887 89.7607 92.6758C89.7607 92.9629 89.6582 93.1999 89.4531 93.3867C89.2526 93.5736 88.986 93.667 88.6533 93.667C88.3161 93.667 88.0472 93.5736 87.8467 93.3867C87.6461 93.1999 87.5459 92.9629 87.5459 92.6758ZM95.3481 99.9561C95.3481 99.8148 95.3071 99.6872 95.2251 99.5732C95.143 99.4593 94.9904 99.3545 94.7671 99.2588C94.5483 99.1585 94.2316 99.0674 93.8169 98.9854C93.4432 98.9033 93.0945 98.8008 92.771 98.6777C92.452 98.5501 92.174 98.3975 91.937 98.2197C91.7046 98.042 91.5223 97.8324 91.3901 97.5908C91.258 97.3447 91.1919 97.0645 91.1919 96.75C91.1919 96.4401 91.258 96.1484 91.3901 95.875C91.5268 95.6016 91.7205 95.36 91.9712 95.1504C92.2264 94.9362 92.5363 94.7699 92.9009 94.6514C93.27 94.5283 93.6847 94.4668 94.145 94.4668C94.7876 94.4668 95.339 94.5693 95.7993 94.7744C96.2641 94.9795 96.6196 95.262 96.8657 95.6221C97.1164 95.9775 97.2417 96.3831 97.2417 96.8389H95.2729C95.2729 96.6475 95.2319 96.4766 95.1499 96.3262C95.0724 96.1712 94.9494 96.0505 94.7807 95.9639C94.6167 95.8727 94.4025 95.8271 94.1382 95.8271C93.9194 95.8271 93.7303 95.8659 93.5708 95.9434C93.4113 96.0163 93.2882 96.1165 93.2016 96.2441C93.1196 96.3672 93.0786 96.5039 93.0786 96.6543C93.0786 96.7682 93.1014 96.8708 93.1469 96.9619C93.1971 97.0485 93.2768 97.1283 93.3862 97.2012C93.4956 97.2741 93.6369 97.3424 93.81 97.4062C93.9878 97.4655 94.2065 97.5202 94.4663 97.5703C94.9995 97.6797 95.4757 97.8232 95.895 98.001C96.3143 98.1742 96.6469 98.4111 96.893 98.7119C97.1391 99.0081 97.2622 99.3978 97.2622 99.8809C97.2622 100.209 97.1893 100.51 97.0434 100.783C96.8976 101.057 96.688 101.296 96.4145 101.501C96.1411 101.701 95.813 101.859 95.4302 101.973C95.0519 102.082 94.6258 102.137 94.1518 102.137C93.4637 102.137 92.8803 102.014 92.4018 101.768C91.9279 101.521 91.5678 101.209 91.3218 100.831C91.0802 100.448 90.9594 100.056 90.9594 99.6553H92.8257C92.8348 99.9242 92.9031 100.141 93.0307 100.305C93.1629 100.469 93.3292 100.587 93.5298 100.66C93.7348 100.733 93.9559 100.77 94.1928 100.77C94.4481 100.77 94.66 100.735 94.8286 100.667C94.9972 100.594 95.1248 100.498 95.2114 100.38C95.3025 100.257 95.3481 100.116 95.3481 99.9561ZM100.696 94.6035V102H98.7207V94.6035H100.696ZM98.5976 92.6758C98.5976 92.3887 98.6979 92.1517 98.8984 91.9648C99.0989 91.778 99.3678 91.6846 99.705 91.6846C100.038 91.6846 100.304 91.778 100.505 91.9648C100.71 92.1517 100.812 92.3887 100.812 92.6758C100.812 92.9629 100.71 93.1999 100.505 93.3867C100.304 93.5736 100.038 93.667 99.705 93.667C99.3678 93.667 99.0989 93.5736 98.8984 93.3867C98.6979 93.1999 98.5976 92.9629 98.5976 92.6758ZM106.024 94.6035V95.998H101.717V94.6035H106.024ZM102.784 92.7783H104.752V99.7715C104.752 99.9857 104.78 100.15 104.834 100.264C104.894 100.378 104.98 100.457 105.094 100.503C105.208 100.544 105.352 100.564 105.525 100.564C105.648 100.564 105.757 100.56 105.853 100.551C105.953 100.537 106.038 100.523 106.106 100.51L106.113 101.959C105.944 102.014 105.762 102.057 105.566 102.089C105.37 102.121 105.153 102.137 104.916 102.137C104.484 102.137 104.105 102.066 103.782 101.925C103.463 101.779 103.217 101.547 103.043 101.228C102.87 100.909 102.784 100.489 102.784 99.9697V92.7783ZM106.73 98.377V98.2334C106.73 97.6911 106.808 97.1921 106.963 96.7363C107.118 96.276 107.343 95.8773 107.64 95.54C107.936 95.2028 108.3 94.9408 108.733 94.7539C109.166 94.5625 109.663 94.4668 110.224 94.4668C110.784 94.4668 111.283 94.5625 111.721 94.7539C112.158 94.9408 112.525 95.2028 112.821 95.54C113.122 95.8773 113.35 96.276 113.505 96.7363C113.66 97.1921 113.737 97.6911 113.737 98.2334V98.377C113.737 98.9147 113.66 99.4137 113.505 99.874C113.35 100.33 113.122 100.729 112.821 101.07C112.525 101.408 112.16 101.67 111.727 101.856C111.295 102.043 110.798 102.137 110.237 102.137C109.677 102.137 109.178 102.043 108.74 101.856C108.307 101.67 107.94 101.408 107.64 101.07C107.343 100.729 107.118 100.33 106.963 99.874C106.808 99.4137 106.73 98.9147 106.73 98.377ZM108.699 98.2334V98.377C108.699 98.6868 108.727 98.9762 108.781 99.2451C108.836 99.514 108.922 99.751 109.041 99.9561C109.164 100.157 109.324 100.314 109.519 100.428C109.715 100.542 109.955 100.599 110.237 100.599C110.511 100.599 110.745 100.542 110.941 100.428C111.137 100.314 111.295 100.157 111.413 99.9561C111.532 99.751 111.618 99.514 111.673 99.2451C111.732 98.9762 111.762 98.6868 111.762 98.377V98.2334C111.762 97.9326 111.732 97.6501 111.673 97.3857C111.618 97.1169 111.529 96.8799 111.406 96.6748C111.288 96.4652 111.13 96.3011 110.935 96.1826C110.739 96.0641 110.502 96.0049 110.224 96.0049C109.946 96.0049 109.709 96.0641 109.513 96.1826C109.321 96.3011 109.164 96.4652 109.041 96.6748C108.922 96.8799 108.836 97.1169 108.781 97.3857C108.727 97.6501 108.699 97.9326 108.699 98.2334ZM116.994 96.2168V102H115.025V94.6035H116.877L116.994 96.2168ZM119.222 94.5557L119.188 96.3809C119.092 96.3672 118.976 96.3558 118.839 96.3467C118.707 96.333 118.586 96.3262 118.477 96.3262C118.199 96.3262 117.957 96.3626 117.752 96.4355C117.552 96.5039 117.383 96.6064 117.247 96.7432C117.114 96.8799 117.014 97.0462 116.946 97.2422C116.882 97.4382 116.845 97.6615 116.836 97.9121L116.44 97.7891C116.44 97.3105 116.488 96.8708 116.583 96.4697C116.679 96.0641 116.818 95.7109 117 95.4102C117.187 95.1094 117.415 94.877 117.684 94.7129C117.953 94.5488 118.261 94.4668 118.607 94.4668C118.716 94.4668 118.828 94.4759 118.942 94.4941C119.056 94.5078 119.149 94.5283 119.222 94.5557Z" fill="white"/>
<path d="M70.4704 30.2823C70.4376 30.2109 70.385 30.1504 70.3188 30.108C70.2527 30.0656 70.1757 30.0431 70.0972 30.0431C70.0186 30.0431 69.9416 30.0656 69.8755 30.108C69.8093 30.1504 69.7567 30.2109 69.7239 30.2823L68.043 33.9281C68.0135 33.9916 67.9683 34.0465 67.9116 34.0876C67.8549 34.1286 67.7886 34.1546 67.7191 34.1628L63.7306 34.637C63.6528 34.6465 63.5793 34.6779 63.5188 34.7277C63.4584 34.7775 63.4134 34.8436 63.3892 34.9181C63.365 34.9926 63.3626 35.0725 63.3824 35.1483C63.4021 35.2241 63.4431 35.2927 63.5005 35.346L66.449 38.0715C66.5009 38.1193 66.5395 38.1796 66.5613 38.2466C66.5831 38.3136 66.5873 38.3851 66.5735 38.4542L65.7894 42.391C65.774 42.468 65.781 42.5478 65.8096 42.6209C65.8382 42.694 65.8871 42.7574 65.9505 42.8036C66.014 42.8498 66.0894 42.8768 66.1678 42.8815C66.2461 42.8862 66.3242 42.8683 66.3927 42.83L69.8976 40.8698C69.9587 40.8359 70.0273 40.8181 70.0972 40.8181C70.167 40.8181 70.2357 40.8359 70.2967 40.8698L73.8016 42.83C74.1068 43.0014 74.473 42.7361 74.4049 42.391L73.6232 38.4542C73.6094 38.3851 73.6136 38.3136 73.6354 38.2466C73.6572 38.1796 73.6958 38.1193 73.7476 38.0715L76.6938 35.346C76.7512 35.2927 76.7922 35.2241 76.812 35.1483C76.8317 35.0725 76.8293 34.9926 76.8051 34.9181C76.7809 34.8436 76.736 34.7775 76.6755 34.7277C76.615 34.6779 76.5415 34.6465 76.4638 34.637L72.4776 34.1628C72.4076 34.1549 72.3409 34.1292 72.2838 34.0881C72.2266 34.047 72.181 33.9919 72.1513 33.9281L70.4704 30.2823Z" fill="#EAF9D6"/>
<path d="M84.1708 37.0857C84.173 39.0678 83.7558 41.0279 82.9466 42.8373C82.1374 44.6466 80.9545 46.2643 79.4757 47.584V59.3876C79.4756 59.5932 79.4216 59.7951 79.3189 59.9732C79.2163 60.1513 79.0687 60.2993 78.891 60.4025C78.7132 60.5056 78.5114 60.5603 78.3058 60.561C78.1003 60.5617 77.8982 60.5084 77.7197 60.4064L70.0854 56.0447L62.4511 60.4064C62.2726 60.5084 62.0705 60.5617 61.865 60.561C61.6594 60.5603 61.4576 60.5056 61.2798 60.4025C61.1021 60.2993 60.9545 60.1513 60.8519 59.9732C60.7492 59.7951 60.6952 59.5932 60.6951 59.3876V47.584C58.9439 46.0177 57.6123 44.0381 56.8216 41.8256C56.0309 39.6131 55.8062 37.238 56.168 34.9164C56.5298 32.5949 57.4666 30.4008 58.8931 28.5338C60.3195 26.6668 62.1904 25.1864 64.3352 24.2272C66.4801 23.268 68.8308 22.8606 71.1733 23.0421C73.5158 23.2235 75.7757 23.9881 77.7473 25.2662C79.7188 26.5442 81.3393 28.2952 82.4612 30.3596C83.5832 32.4239 84.1709 34.7362 84.1708 37.0857ZM70.0854 51.1711C67.6127 51.1747 65.183 50.5244 63.0427 49.286V57.3663L69.5032 53.6736C69.6805 53.5723 69.8812 53.5191 70.0854 53.5191C70.2896 53.5191 70.4903 53.5723 70.6676 53.6736L77.1281 57.3687V49.2884C74.9876 50.526 72.5579 51.1755 70.0854 51.1711ZM70.0854 48.8236C73.1985 48.8236 76.184 47.5869 78.3853 45.3856C80.5866 43.1844 81.8232 40.1988 81.8232 37.0857C81.8232 33.9727 80.5866 30.9871 78.3853 28.7858C76.184 26.5846 73.1985 25.3479 70.0854 25.3479C66.9723 25.3479 63.9868 26.5846 61.7855 28.7858C59.5842 30.9871 58.3476 33.9727 58.3476 37.0857C58.3476 40.1988 59.5842 43.1844 61.7855 45.3856C63.9868 47.5869 66.9723 48.8236 70.0854 48.8236Z" fill="#EAF9D6"/>
<defs>
<linearGradient id="paint0_linear_2005_5573" x1="70" y1="0" x2="70" y2="115" gradientUnits="userSpaceOnUse">
<stop stop-color="#67BEF4"/>
<stop offset="1" stop-color="#097DC5"/>
</linearGradient>
</defs>
</svg>
