<svg width="140" height="115" viewBox="0 0 140 115" fill="none" xmlns="http://www.w3.org/2000/svg">
<rect width="140" height="115" rx="15" fill="url(#paint0_linear_2005_5572)"/>
<path d="M44.602 69.4036V79.3567H42.5512L38.5522 72.6848V79.3567H36.5014V69.4036H38.5522L42.5581 76.0823V69.4036H44.602ZM50.7158 77.5862V71.9602H52.6845V79.3567H50.832L50.7158 77.5862ZM50.9345 76.0686L51.5156 76.0549C51.5156 76.5471 51.4586 77.0051 51.3447 77.429C51.2307 77.8482 51.0598 78.2128 50.832 78.5227C50.6041 78.828 50.317 79.0673 49.9706 79.2405C49.6243 79.4091 49.2164 79.4934 48.747 79.4934C48.387 79.4934 48.0543 79.4433 47.749 79.343C47.4482 79.2382 47.1884 79.0764 46.9697 78.8577C46.7555 78.6344 46.5869 78.3495 46.4638 78.0032C46.3453 77.6523 46.2861 77.2307 46.2861 76.7385V71.9602H48.2548V76.7522C48.2548 76.9709 48.2799 77.1555 48.33 77.3059C48.3847 77.4563 48.4599 77.5793 48.5556 77.675C48.6513 77.7708 48.763 77.8391 48.8906 77.8801C49.0227 77.9211 49.1686 77.9417 49.3281 77.9417C49.7337 77.9417 50.0527 77.8596 50.2851 77.6956C50.5221 77.5315 50.6884 77.3082 50.7841 77.0256C50.8844 76.7385 50.9345 76.4195 50.9345 76.0686ZM56.2348 73.4915V79.3567H54.2592V71.9602H56.1118L56.2348 73.4915ZM55.9614 75.3987H55.4145C55.4145 74.8837 55.476 74.4097 55.5991 73.9768C55.7267 73.5393 55.9112 73.1611 56.1528 72.842C56.3989 72.5185 56.7019 72.2678 57.0619 72.0901C57.422 71.9124 57.839 71.8235 58.3129 71.8235C58.641 71.8235 58.9418 71.8736 59.2153 71.9739C59.4887 72.0696 59.7234 72.2222 59.9194 72.4319C60.1199 72.637 60.2748 72.9058 60.3842 73.2385C60.4936 73.5667 60.5483 73.9609 60.5483 74.4211V79.3567H58.5795V74.6399C58.5795 74.3027 58.534 74.0429 58.4428 73.8606C58.3517 73.6783 58.2218 73.5507 58.0532 73.4778C57.8891 73.4049 57.6909 73.3684 57.4584 73.3684C57.2032 73.3684 56.9799 73.4208 56.7885 73.5256C56.6017 73.6305 56.4467 73.7763 56.3237 73.9631C56.2006 74.1454 56.1095 74.3596 56.0502 74.6057C55.991 74.8518 55.9614 75.1161 55.9614 75.3987ZM60.3637 75.1731L59.6596 75.262C59.6596 74.7789 59.7188 74.33 59.8373 73.9153C59.9604 73.5006 60.1404 73.136 60.3774 72.8215C60.6189 72.5071 60.9174 72.2633 61.2729 72.0901C61.6284 71.9124 62.0385 71.8235 62.5034 71.8235C62.8588 71.8235 63.1824 71.8759 63.4741 71.9807C63.7657 72.081 64.0141 72.2428 64.2192 72.4661C64.4288 72.6848 64.5883 72.9719 64.6977 73.3274C64.8116 73.6829 64.8686 74.1181 64.8686 74.6331V79.3567H62.893V74.6331C62.893 74.2913 62.8474 74.0315 62.7563 73.8538C62.6697 73.6715 62.5421 73.5461 62.3735 73.4778C62.2094 73.4049 62.0134 73.3684 61.7856 73.3684C61.5486 73.3684 61.3412 73.4163 61.1635 73.512C60.9858 73.6031 60.8377 73.7307 60.7192 73.8948C60.6007 74.0588 60.5118 74.2502 60.4526 74.469C60.3933 74.6832 60.3637 74.9179 60.3637 75.1731ZM66.4706 68.8567H68.4394V77.6614L68.2411 79.3567H66.4706V68.8567ZM73.122 75.5833V75.7268C73.122 76.2782 73.0628 76.7841 72.9443 77.2444C72.8303 77.7047 72.6526 78.1034 72.4111 78.4407C72.1695 78.7734 71.8687 79.0331 71.5087 79.22C71.1532 79.4023 70.734 79.4934 70.2509 79.4934C69.7997 79.4934 69.4078 79.4023 69.0751 79.22C68.747 79.0377 68.4713 78.7802 68.248 78.4475C68.0247 78.1148 67.8447 77.7252 67.7079 77.2786C67.5712 76.8319 67.4687 76.3443 67.4003 75.8157V75.5012C67.4687 74.9726 67.5712 74.4849 67.7079 74.0383C67.8447 73.5917 68.0247 73.2021 68.248 72.8694C68.4713 72.5367 68.747 72.2792 69.0751 72.0969C69.4032 71.9146 69.7906 71.8235 70.2372 71.8235C70.7249 71.8235 71.1487 71.9169 71.5087 72.1038C71.8733 72.2861 72.1741 72.5458 72.4111 72.8831C72.6526 73.2157 72.8303 73.6122 72.9443 74.0725C73.0628 74.5282 73.122 75.0318 73.122 75.5833ZM71.1532 75.7268V75.5833C71.1532 75.2825 71.1305 74.9999 71.0849 74.7356C71.0439 74.4667 70.971 74.232 70.8661 74.0315C70.7613 73.8264 70.6178 73.6646 70.4355 73.5461C70.2577 73.4277 70.0276 73.3684 69.745 73.3684C69.4762 73.3684 69.2483 73.414 69.0615 73.5051C68.8746 73.5963 68.7197 73.7239 68.5966 73.8879C68.4781 74.052 68.3893 74.248 68.33 74.4758C68.2708 74.6991 68.2343 74.9452 68.2206 75.2141V76.1096C68.2343 76.4696 68.2935 76.7887 68.3984 77.0667C68.5077 77.3401 68.6718 77.5566 68.8906 77.7161C69.1139 77.871 69.4032 77.9485 69.7587 77.9485C70.0367 77.9485 70.2669 77.8938 70.4491 77.7844C70.6314 77.675 70.7727 77.5201 70.873 77.3196C70.9778 77.1191 71.0507 76.8844 71.0917 76.6155C71.1327 76.342 71.1532 76.0458 71.1532 75.7268ZM77.8276 79.4934C77.2533 79.4934 76.7384 79.4023 76.2826 79.22C75.8269 79.0331 75.4395 78.7756 75.1205 78.4475C74.8061 78.1194 74.5645 77.7389 74.3959 77.3059C74.2273 76.8684 74.143 76.4036 74.143 75.9114V75.6379C74.143 75.0774 74.2227 74.5647 74.3822 74.0999C74.5418 73.635 74.7696 73.2317 75.0658 72.8899C75.3666 72.5481 75.7312 72.2861 76.1596 72.1038C76.588 71.9169 77.0711 71.8235 77.6088 71.8235C78.1329 71.8235 78.5977 71.9101 79.0033 72.0833C79.4089 72.2564 79.7485 72.5025 80.0219 72.8215C80.2999 73.1405 80.5095 73.5234 80.6508 73.97C80.7921 74.412 80.8627 74.9042 80.8627 75.4465V76.2668H74.9838V74.9543H78.9281V74.804C78.9281 74.5305 78.878 74.2867 78.7778 74.0725C78.6821 73.8538 78.5362 73.6806 78.3403 73.553C78.1443 73.4254 77.8936 73.3616 77.5883 73.3616C77.3285 73.3616 77.1052 73.4185 76.9184 73.5325C76.7315 73.6464 76.5789 73.8059 76.4604 74.011C76.3464 74.2161 76.2599 74.4576 76.2006 74.7356C76.1459 75.009 76.1186 75.3098 76.1186 75.6379V75.9114C76.1186 76.2076 76.1596 76.481 76.2416 76.7317C76.3282 76.9823 76.449 77.1988 76.6039 77.3811C76.7634 77.5634 76.9548 77.7047 77.1781 77.8049C77.406 77.9052 77.6635 77.9553 77.9506 77.9553C78.3061 77.9553 78.6365 77.887 78.9418 77.7502C79.2517 77.609 79.5183 77.3971 79.7416 77.1145L80.6987 78.1536C80.5437 78.3769 80.3318 78.5911 80.0629 78.7961C79.7986 79.0012 79.4796 79.1698 79.1059 79.302C78.7322 79.4296 78.3061 79.4934 77.8276 79.4934ZM84.0302 73.5735V79.3567H82.0614V71.9602H83.914L84.0302 73.5735ZM86.2587 71.9124L86.2245 73.7375C86.1288 73.7239 86.0126 73.7125 85.8759 73.7034C85.7437 73.6897 85.623 73.6829 85.5136 73.6829C85.2356 73.6829 84.994 73.7193 84.789 73.7922C84.5885 73.8606 84.4198 73.9631 84.2831 74.0999C84.151 74.2366 84.0507 74.4029 83.9823 74.5989C83.9185 74.7948 83.8821 75.0181 83.873 75.2688L83.4765 75.1458C83.4765 74.6672 83.5243 74.2275 83.62 73.8264C83.7157 73.4208 83.8547 73.0676 84.037 72.7668C84.2239 72.4661 84.4517 72.2336 84.7206 72.0696C84.9895 71.9055 85.2971 71.8235 85.6435 71.8235C85.7528 71.8235 85.8645 71.8326 85.9784 71.8508C86.0924 71.8645 86.1858 71.885 86.2587 71.9124ZM90.5155 75.7336V75.5901C90.5155 75.0478 90.593 74.5487 90.7479 74.093C90.9029 73.6327 91.1285 73.234 91.4247 72.8967C91.7209 72.5595 92.0855 72.2974 92.5184 72.1106C92.9514 71.9192 93.4481 71.8235 94.0087 71.8235C94.5692 71.8235 95.0683 71.9192 95.5058 72.1106C95.9433 72.2974 96.3101 72.5595 96.6063 72.8967C96.9071 73.234 97.135 73.6327 97.2899 74.093C97.4449 74.5487 97.5224 75.0478 97.5224 75.5901V75.7336C97.5224 76.2714 97.4449 76.7704 97.2899 77.2307C97.135 77.6864 96.9071 78.0852 96.6063 78.427C96.3101 78.7642 95.9455 79.0263 95.5126 79.2131C95.0796 79.4 94.5829 79.4934 94.0224 79.4934C93.4618 79.4934 92.9628 79.4 92.5253 79.2131C92.0923 79.0263 91.7255 78.7642 91.4247 78.427C91.1285 78.0852 90.9029 77.6864 90.7479 77.2307C90.593 76.7704 90.5155 76.2714 90.5155 75.7336ZM92.4843 75.5901V75.7336C92.4843 76.0435 92.5116 76.3329 92.5663 76.6018C92.621 76.8707 92.7076 77.1077 92.8261 77.3127C92.9491 77.5133 93.1086 77.6705 93.3046 77.7844C93.5005 77.8984 93.7398 77.9553 94.0224 77.9553C94.2958 77.9553 94.5305 77.8984 94.7265 77.7844C94.9224 77.6705 95.0796 77.5133 95.1981 77.3127C95.3166 77.1077 95.4032 76.8707 95.4579 76.6018C95.5171 76.3329 95.5468 76.0435 95.5468 75.7336V75.5901C95.5468 75.2893 95.5171 75.0068 95.4579 74.7424C95.4032 74.4736 95.3143 74.2366 95.1913 74.0315C95.0728 73.8219 94.9156 73.6578 94.7196 73.5393C94.5237 73.4208 94.2867 73.3616 94.0087 73.3616C93.7307 73.3616 93.4937 73.4208 93.2977 73.5393C93.1063 73.6578 92.9491 73.8219 92.8261 74.0315C92.7076 74.2366 92.621 74.4736 92.5663 74.7424C92.5116 75.0068 92.4843 75.2893 92.4843 75.5901ZM101.319 79.3567H99.3363V71.304C99.3363 70.7434 99.4457 70.2717 99.6644 69.8889C99.8878 69.5015 100.2 69.2099 100.601 69.0139C101.007 68.8134 101.487 68.7131 102.043 68.7131C102.226 68.7131 102.401 68.7268 102.57 68.7542C102.738 68.7769 102.902 68.8066 103.062 68.843L103.041 70.3264C102.955 70.3036 102.864 70.2877 102.768 70.2786C102.672 70.2694 102.561 70.2649 102.433 70.2649C102.196 70.2649 101.993 70.3059 101.825 70.3879C101.661 70.4654 101.535 70.5816 101.449 70.7366C101.362 70.8915 101.319 71.0806 101.319 71.304V79.3567ZM102.795 71.9602V73.3547H98.2357V71.9602H102.795ZM43.5266 84.4036H47.2385C47.9995 84.4036 48.6535 84.5175 49.2004 84.7454C49.7518 84.9732 50.1756 85.3105 50.4719 85.7571C50.7681 86.2037 50.9162 86.7528 50.9162 87.4045C50.9162 87.9377 50.8251 88.3958 50.6428 88.7786C50.465 89.1568 50.2121 89.4736 49.884 89.7288C49.5604 89.9794 49.1799 90.1799 48.7424 90.3303L48.093 90.6721H44.8664L44.8527 89.0725H47.2521C47.6122 89.0725 47.9107 89.0087 48.1477 88.8811C48.3846 88.7535 48.5624 88.5758 48.6809 88.3479C48.8039 88.12 48.8654 87.8557 48.8654 87.5549C48.8654 87.2359 48.8062 86.9602 48.6877 86.7278C48.5692 86.4954 48.3892 86.3176 48.1477 86.1946C47.9061 86.0715 47.6031 86.01 47.2385 86.01H45.5773V94.3567H43.5266V84.4036ZM49.091 94.3567L46.8215 89.9202L48.9885 89.9065L51.2853 94.261V94.3567H49.091ZM55.8542 94.4934C55.28 94.4934 54.765 94.4023 54.3093 94.22C53.8535 94.0331 53.4662 93.7756 53.1472 93.4475C52.8327 93.1194 52.5912 92.7389 52.4225 92.3059C52.2539 91.8684 52.1696 91.4036 52.1696 90.9114V90.6379C52.1696 90.0774 52.2494 89.5647 52.4089 89.0999C52.5684 88.635 52.7962 88.2317 53.0925 87.8899C53.3932 87.5481 53.7578 87.2861 54.1862 87.1038C54.6146 86.9169 55.0977 86.8235 55.6354 86.8235C56.1595 86.8235 56.6244 86.9101 57.03 87.0833C57.4356 87.2564 57.7751 87.5025 58.0485 87.8215C58.3265 88.1405 58.5362 88.5234 58.6774 88.97C58.8187 89.412 58.8893 89.9042 58.8893 90.4465V91.2668H53.0104V89.9543H56.9548V89.804C56.9548 89.5305 56.9046 89.2867 56.8044 89.0725C56.7087 88.8538 56.5628 88.6806 56.3669 88.553C56.1709 88.4254 55.9203 88.3616 55.6149 88.3616C55.3552 88.3616 55.1319 88.4185 54.945 88.5325C54.7582 88.6464 54.6055 88.8059 54.487 89.011C54.3731 89.2161 54.2865 89.4576 54.2272 89.7356C54.1725 90.009 54.1452 90.3098 54.1452 90.6379V90.9114C54.1452 91.2076 54.1862 91.481 54.2682 91.7317C54.3548 91.9823 54.4756 92.1988 54.6306 92.3811C54.7901 92.5634 54.9815 92.7047 55.2048 92.8049C55.4326 92.9052 55.6901 92.9553 55.9772 92.9553C56.3327 92.9553 56.6631 92.887 56.9684 92.7502C57.2783 92.609 57.5449 92.3971 57.7682 92.1145L58.7253 93.1536C58.5703 93.3769 58.3584 93.5911 58.0895 93.7961C57.8252 94.0012 57.5062 94.1698 57.1325 94.302C56.7588 94.4296 56.3327 94.4934 55.8542 94.4934ZM64.7707 86.9602H66.5549V94.1106C66.5549 94.7851 66.4045 95.357 66.1037 95.8264C65.8075 96.3004 65.3928 96.6581 64.8596 96.8997C64.3263 97.1458 63.7066 97.2688 63.0002 97.2688C62.6903 97.2688 62.3622 97.2278 62.0158 97.1458C61.674 97.0637 61.3459 96.9361 61.0314 96.7629C60.7215 96.5898 60.4618 96.371 60.2521 96.1067L61.1203 94.9446C61.3482 95.2089 61.6125 95.414 61.9133 95.5598C62.214 95.7102 62.5467 95.7854 62.9113 95.7854C63.2668 95.7854 63.5676 95.7193 63.8137 95.5872C64.0597 95.4596 64.2489 95.2704 64.381 95.0198C64.5132 94.7737 64.5793 94.4752 64.5793 94.1243V88.6692L64.7707 86.9602ZM59.7941 90.7473V90.6038C59.7941 90.0387 59.8625 89.526 59.9992 89.0657C60.1405 88.6008 60.3387 88.2021 60.5939 87.8694C60.8537 87.5367 61.1681 87.2792 61.5373 87.0969C61.9064 86.9146 62.3234 86.8235 62.7883 86.8235C63.2804 86.8235 63.6929 86.9146 64.0256 87.0969C64.3582 87.2792 64.6317 87.539 64.8459 87.8762C65.0601 88.2089 65.2264 88.6031 65.3449 89.0588C65.4679 89.51 65.5637 90.0045 65.632 90.5422V90.8567C65.5637 91.3717 65.4611 91.8502 65.3244 92.2922C65.1877 92.7343 65.0077 93.1217 64.7844 93.4543C64.561 93.7825 64.2831 94.0377 63.9504 94.22C63.6222 94.4023 63.2303 94.4934 62.7746 94.4934C62.3189 94.4934 61.9064 94.4 61.5373 94.2131C61.1727 94.0263 60.8605 93.7642 60.6008 93.427C60.341 93.0898 60.1405 92.6933 59.9992 92.2375C59.8625 91.7818 59.7941 91.2851 59.7941 90.7473ZM61.7629 90.6038V90.7473C61.7629 91.0527 61.7925 91.3375 61.8517 91.6018C61.911 91.8661 62.0021 92.1008 62.1252 92.3059C62.2528 92.5064 62.41 92.6637 62.5969 92.7776C62.7883 92.887 63.0138 92.9417 63.2736 92.9417C63.6336 92.9417 63.9276 92.8665 64.1554 92.7161C64.3833 92.5611 64.5542 92.3492 64.6681 92.0803C64.7821 91.8114 64.8482 91.5015 64.8664 91.1506V90.2551C64.8573 89.968 64.8185 89.7105 64.7502 89.4827C64.6818 89.2502 64.5861 89.052 64.4631 88.8879C64.34 88.7239 64.1805 88.5963 63.9846 88.5051C63.7886 88.414 63.5562 88.3684 63.2873 88.3684C63.0275 88.3684 62.8019 88.4277 62.6105 88.5461C62.4237 88.6601 62.2665 88.8173 62.1388 89.0178C62.0158 89.2183 61.9224 89.4553 61.8586 89.7288C61.7948 89.9976 61.7629 90.2893 61.7629 90.6038ZM70.2419 86.9602V94.3567H68.2663V86.9602H70.2419ZM68.1432 85.0325C68.1432 84.7454 68.2435 84.5084 68.444 84.3215C68.6445 84.1347 68.9134 84.0413 69.2507 84.0413C69.5833 84.0413 69.8499 84.1347 70.0505 84.3215C70.2555 84.5084 70.3581 84.7454 70.3581 85.0325C70.3581 85.3196 70.2555 85.5566 70.0505 85.7434C69.8499 85.9303 69.5833 86.0237 69.2507 86.0237C68.9134 86.0237 68.6445 85.9303 68.444 85.7434C68.2435 85.5566 68.1432 85.3196 68.1432 85.0325ZM75.9455 92.3127C75.9455 92.1715 75.9045 92.0439 75.8224 91.9299C75.7404 91.816 75.5877 91.7112 75.3644 91.6155C75.1457 91.5152 74.8289 91.4241 74.4142 91.342C74.0405 91.26 73.6919 91.1575 73.3683 91.0344C73.0493 90.9068 72.7713 90.7542 72.5343 90.5764C72.3019 90.3987 72.1196 90.189 71.9875 89.9475C71.8553 89.7014 71.7892 89.4211 71.7892 89.1067C71.7892 88.7968 71.8553 88.5051 71.9875 88.2317C72.1242 87.9583 72.3179 87.7167 72.5685 87.5071C72.8237 87.2929 73.1336 87.1265 73.4982 87.0081C73.8673 86.885 74.2821 86.8235 74.7423 86.8235C75.3849 86.8235 75.9364 86.926 76.3966 87.1311C76.8615 87.3362 77.217 87.6187 77.4631 87.9788C77.7137 88.3342 77.839 88.7398 77.839 89.1956H75.8703C75.8703 89.0042 75.8293 88.8333 75.7472 88.6829C75.6698 88.5279 75.5467 88.4071 75.3781 88.3206C75.214 88.2294 74.9998 88.1838 74.7355 88.1838C74.5168 88.1838 74.3276 88.2226 74.1681 88.3C74.0086 88.373 73.8856 88.4732 73.799 88.6008C73.717 88.7239 73.6759 88.8606 73.6759 89.011C73.6759 89.1249 73.6987 89.2275 73.7443 89.3186C73.7944 89.4052 73.8742 89.4849 73.9836 89.5579C74.0929 89.6308 74.2342 89.6991 74.4074 89.7629C74.5851 89.8222 74.8039 89.8769 75.0636 89.927C75.5968 90.0364 76.0731 90.1799 76.4923 90.3577C76.9116 90.5308 77.2443 90.7678 77.4904 91.0686C77.7365 91.3648 77.8595 91.7545 77.8595 92.2375C77.8595 92.5657 77.7866 92.8665 77.6408 93.1399C77.495 93.4133 77.2853 93.6526 77.0119 93.8577C76.7384 94.0582 76.4103 94.2154 76.0275 94.3293C75.6492 94.4387 75.2231 94.4934 74.7492 94.4934C74.061 94.4934 73.4777 94.3704 72.9992 94.1243C72.5252 93.8782 72.1652 93.566 71.9191 93.1877C71.6776 92.8049 71.5568 92.413 71.5568 92.012H73.423C73.4321 92.2808 73.5005 92.4973 73.6281 92.6614C73.7603 92.8254 73.9266 92.9439 74.1271 93.0168C74.3322 93.0898 74.5532 93.1262 74.7902 93.1262C75.0454 93.1262 75.2573 93.092 75.4259 93.0237C75.5946 92.9508 75.7222 92.8551 75.8088 92.7366C75.8999 92.6135 75.9455 92.4722 75.9455 92.3127ZM82.8385 86.9602V88.3547H78.5319V86.9602H82.8385ZM79.5983 85.135H81.567V92.1282C81.567 92.3424 81.5944 92.5064 81.6491 92.6204C81.7083 92.7343 81.7949 92.814 81.9088 92.8596C82.0228 92.9006 82.1663 92.9211 82.3395 92.9211C82.4626 92.9211 82.5719 92.9166 82.6676 92.9075C82.7679 92.8938 82.8522 92.8801 82.9206 92.8665L82.9274 94.3157C82.7588 94.3704 82.5765 94.4137 82.3805 94.4456C82.1846 94.4775 81.9681 94.4934 81.7311 94.4934C81.2982 94.4934 80.9199 94.4228 80.5963 94.2815C80.2773 94.1357 80.0312 93.9032 79.8581 93.5842C79.6849 93.2652 79.5983 92.8459 79.5983 92.3264V85.135ZM87.4416 94.4934C86.8673 94.4934 86.3524 94.4023 85.8966 94.22C85.4409 94.0331 85.0535 93.7756 84.7345 93.4475C84.4201 93.1194 84.1785 92.7389 84.0099 92.3059C83.8413 91.8684 83.757 91.4036 83.757 90.9114V90.6379C83.757 90.0774 83.8367 89.5647 83.9962 89.0999C84.1557 88.635 84.3836 88.2317 84.6798 87.8899C84.9806 87.5481 85.3452 87.2861 85.7736 87.1038C86.202 86.9169 86.685 86.8235 87.2228 86.8235C87.7469 86.8235 88.2117 86.9101 88.6173 87.0833C89.0229 87.2564 89.3624 87.5025 89.6359 87.8215C89.9139 88.1405 90.1235 88.5234 90.2648 88.97C90.4061 89.412 90.4767 89.9042 90.4767 90.4465V91.2668H84.5978V89.9543H88.5421V89.804C88.5421 89.5305 88.492 89.2867 88.3917 89.0725C88.296 88.8538 88.1502 88.6806 87.9542 88.553C87.7583 88.4254 87.5076 88.3616 87.2023 88.3616C86.9425 88.3616 86.7192 88.4185 86.5324 88.5325C86.3455 88.6464 86.1929 88.8059 86.0744 89.011C85.9604 89.2161 85.8738 89.4576 85.8146 89.7356C85.7599 90.009 85.7326 90.3098 85.7326 90.6379V90.9114C85.7326 91.2076 85.7736 91.481 85.8556 91.7317C85.9422 91.9823 86.063 92.1988 86.2179 92.3811C86.3774 92.5634 86.5688 92.7047 86.7921 92.8049C87.02 92.9052 87.2775 92.9553 87.5646 92.9553C87.9201 92.9553 88.2505 92.887 88.5558 92.7502C88.8657 92.609 89.1323 92.3971 89.3556 92.1145L90.3126 93.1536C90.1577 93.3769 89.9458 93.5911 89.6769 93.7961C89.4126 94.0012 89.0936 94.1698 88.7199 94.302C88.3462 94.4296 87.9201 94.4934 87.4416 94.4934ZM93.6442 88.5735V94.3567H91.6754V86.9602H93.528L93.6442 88.5735ZM95.8727 86.9124L95.8385 88.7375C95.7428 88.7239 95.6266 88.7125 95.4899 88.7034C95.3577 88.6897 95.237 88.6829 95.1276 88.6829C94.8496 88.6829 94.608 88.7193 94.403 88.7922C94.2024 88.8606 94.0338 88.9631 93.8971 89.0999C93.7649 89.2366 93.6647 89.4029 93.5963 89.5989C93.5325 89.7948 93.4961 90.0181 93.487 90.2688L93.0905 90.1458C93.0905 89.6672 93.1383 89.2275 93.234 88.8264C93.3297 88.4208 93.4687 88.0676 93.651 87.7668C93.8379 87.4661 94.0657 87.2336 94.3346 87.0696C94.6035 86.9055 94.9111 86.8235 95.2575 86.8235C95.3668 86.8235 95.4785 86.8326 95.5924 86.8508C95.7064 86.8645 95.7998 86.885 95.8727 86.9124ZM36.319 106.809H33.7829V105.209H36.319C36.711 105.209 37.03 105.145 37.2761 105.018C37.5222 104.886 37.7022 104.703 37.8161 104.471C37.93 104.239 37.987 103.976 37.987 103.685C37.987 103.389 37.93 103.113 37.8161 102.858C37.7022 102.602 37.5222 102.397 37.2761 102.242C37.03 102.087 36.711 102.01 36.319 102.01H34.4939V110.357H32.4431V100.404H36.319C37.0983 100.404 37.766 100.545 38.322 100.827C38.8825 101.105 39.3109 101.49 39.6071 101.983C39.9034 102.475 40.0515 103.038 40.0515 103.671C40.0515 104.314 39.9034 104.87 39.6071 105.339C39.3109 105.809 38.8825 106.171 38.322 106.426C37.766 106.681 37.0983 106.809 36.319 106.809ZM43.342 99.8567V110.357H41.3732V99.8567H43.342ZM43.0617 106.399H42.5217C42.5262 105.884 42.5946 105.41 42.7268 104.977C42.8589 104.539 43.048 104.161 43.2941 103.842C43.5402 103.518 43.8342 103.268 44.176 103.09C44.5223 102.912 44.9051 102.823 45.3244 102.823C45.689 102.823 46.0194 102.876 46.3156 102.981C46.6164 103.081 46.8739 103.245 47.0881 103.473C47.3068 103.696 47.4755 103.99 47.5939 104.355C47.7124 104.719 47.7717 105.161 47.7717 105.681V110.357H45.7893V105.667C45.7893 105.339 45.7414 105.082 45.6457 104.895C45.5546 104.703 45.4201 104.569 45.2424 104.491C45.0692 104.409 44.855 104.368 44.5998 104.368C44.3172 104.368 44.0757 104.421 43.8752 104.526C43.6792 104.63 43.522 104.776 43.4035 104.963C43.285 105.145 43.1984 105.36 43.1437 105.606C43.0891 105.852 43.0617 106.116 43.0617 106.399ZM53.3386 108.689V105.394C53.3386 105.157 53.2998 104.954 53.2224 104.785C53.1449 104.612 53.0241 104.478 52.86 104.382C52.7005 104.286 52.4932 104.239 52.238 104.239C52.0192 104.239 51.8301 104.277 51.6706 104.355C51.5111 104.428 51.388 104.535 51.3015 104.676C51.2149 104.813 51.1716 104.975 51.1716 105.161H49.2028C49.2028 104.847 49.2757 104.548 49.4216 104.266C49.5674 103.983 49.7793 103.735 50.0573 103.521C50.3353 103.302 50.6657 103.131 51.0485 103.008C51.4359 102.885 51.8688 102.823 52.3474 102.823C52.9216 102.823 53.432 102.919 53.8786 103.111C54.3252 103.302 54.6761 103.589 54.9313 103.972C55.1911 104.355 55.321 104.833 55.321 105.407V108.573C55.321 108.978 55.346 109.311 55.3962 109.571C55.4463 109.826 55.5192 110.049 55.6149 110.24V110.357H53.6257C53.53 110.156 53.4571 109.906 53.4069 109.605C53.3613 109.299 53.3386 108.994 53.3386 108.689ZM53.5983 105.852L53.612 106.966H52.5114C52.2516 106.966 52.0261 106.996 51.8347 107.055C51.6432 107.114 51.486 107.198 51.363 107.308C51.2399 107.413 51.1488 107.536 51.0895 107.677C51.0349 107.818 51.0075 107.973 51.0075 108.142C51.0075 108.31 51.0462 108.463 51.1237 108.6C51.2012 108.732 51.3128 108.837 51.4587 108.914C51.6045 108.987 51.7754 109.024 51.9714 109.024C52.2676 109.024 52.5251 108.964 52.7438 108.846C52.9626 108.727 53.1312 108.582 53.2497 108.408C53.3727 108.235 53.4365 108.071 53.4411 107.916L53.9606 108.75C53.8877 108.937 53.7875 109.131 53.6599 109.331C53.5368 109.532 53.3796 109.721 53.1882 109.899C52.9968 110.072 52.7666 110.215 52.4977 110.329C52.2289 110.439 51.9099 110.493 51.5407 110.493C51.0713 110.493 50.6452 110.4 50.2624 110.213C49.8841 110.022 49.5834 109.76 49.36 109.427C49.1413 109.09 49.0319 108.707 49.0319 108.279C49.0319 107.891 49.1048 107.547 49.2507 107.246C49.3965 106.946 49.6107 106.693 49.8932 106.488C50.1804 106.278 50.5381 106.121 50.9665 106.016C51.3949 105.906 51.8916 105.852 52.4567 105.852H53.5983ZM58.8849 104.573V110.357H56.9162V102.96H58.7687L58.8849 104.573ZM61.1135 102.912L61.0793 104.738C60.9836 104.724 60.8674 104.712 60.7306 104.703C60.5985 104.69 60.4777 104.683 60.3683 104.683C60.0903 104.683 59.8488 104.719 59.6437 104.792C59.4432 104.861 59.2746 104.963 59.1379 105.1C59.0057 105.237 58.9054 105.403 58.8371 105.599C58.7733 105.795 58.7368 106.018 58.7277 106.269L58.3312 106.146C58.3312 105.667 58.3791 105.227 58.4748 104.826C58.5705 104.421 58.7095 104.068 58.8918 103.767C59.0786 103.466 59.3065 103.234 59.5754 103.07C59.8443 102.906 60.1519 102.823 60.4982 102.823C60.6076 102.823 60.7193 102.833 60.8332 102.851C60.9471 102.865 61.0405 102.885 61.1135 102.912ZM64.0895 104.491V110.357H62.1139V102.96H63.9665L64.0895 104.491ZM63.8161 106.399H63.2692C63.2692 105.884 63.3307 105.41 63.4538 104.977C63.5814 104.539 63.766 104.161 64.0075 103.842C64.2536 103.518 64.5566 103.268 64.9167 103.09C65.2767 102.912 65.6937 102.823 66.1676 102.823C66.4958 102.823 66.7966 102.874 67.07 102.974C67.3434 103.07 67.5781 103.222 67.7741 103.432C67.9746 103.637 68.1296 103.906 68.2389 104.239C68.3483 104.567 68.403 104.961 68.403 105.421V110.357H66.4342V105.64C66.4342 105.303 66.3887 105.043 66.2975 104.861C66.2064 104.678 66.0765 104.551 65.9079 104.478C65.7438 104.405 65.5456 104.368 65.3132 104.368C65.0579 104.368 64.8346 104.421 64.6432 104.526C64.4564 104.63 64.3014 104.776 64.1784 104.963C64.0553 105.145 63.9642 105.36 63.905 105.606C63.8457 105.852 63.8161 106.116 63.8161 106.399ZM68.2184 106.173L67.5143 106.262C67.5143 105.779 67.5736 105.33 67.6921 104.915C67.8151 104.501 67.9951 104.136 68.2321 103.822C68.4736 103.507 68.7721 103.263 69.1276 103.09C69.4831 102.912 69.8932 102.823 70.3581 102.823C70.7135 102.823 71.0371 102.876 71.3288 102.981C71.6204 103.081 71.8688 103.243 72.0739 103.466C72.2835 103.685 72.443 103.972 72.5524 104.327C72.6663 104.683 72.7233 105.118 72.7233 105.633V110.357H70.7477V105.633C70.7477 105.291 70.7022 105.031 70.611 104.854C70.5244 104.671 70.3968 104.546 70.2282 104.478C70.0641 104.405 69.8682 104.368 69.6403 104.368C69.4033 104.368 69.196 104.416 69.0182 104.512C68.8405 104.603 68.6924 104.731 68.5739 104.895C68.4554 105.059 68.3665 105.25 68.3073 105.469C68.2481 105.683 68.2184 105.918 68.2184 106.173ZM78.3175 108.689V105.394C78.3175 105.157 78.2788 104.954 78.2013 104.785C78.1239 104.612 78.0031 104.478 77.839 104.382C77.6795 104.286 77.4722 104.239 77.217 104.239C76.9982 104.239 76.8091 104.277 76.6496 104.355C76.4901 104.428 76.367 104.535 76.2804 104.676C76.1938 104.813 76.1506 104.975 76.1506 105.161H74.1818C74.1818 104.847 74.2547 104.548 74.4006 104.266C74.5464 103.983 74.7583 103.735 75.0363 103.521C75.3143 103.302 75.6447 103.131 76.0275 103.008C76.4149 102.885 76.8478 102.823 77.3263 102.823C77.9006 102.823 78.411 102.919 78.8576 103.111C79.3042 103.302 79.6551 103.589 79.9103 103.972C80.1701 104.355 80.3 104.833 80.3 105.407V108.573C80.3 108.978 80.325 109.311 80.3752 109.571C80.4253 109.826 80.4982 110.049 80.5939 110.24V110.357H78.6047C78.5089 110.156 78.436 109.906 78.3859 109.605C78.3403 109.299 78.3175 108.994 78.3175 108.689ZM78.5773 105.852L78.591 106.966H77.4904C77.2306 106.966 77.005 106.996 76.8136 107.055C76.6222 107.114 76.465 107.198 76.342 107.308C76.2189 107.413 76.1278 107.536 76.0685 107.677C76.0138 107.818 75.9865 107.973 75.9865 108.142C75.9865 108.31 76.0252 108.463 76.1027 108.6C76.1802 108.732 76.2918 108.837 76.4377 108.914C76.5835 108.987 76.7544 109.024 76.9504 109.024C77.2466 109.024 77.5041 108.964 77.7228 108.846C77.9416 108.727 78.1102 108.582 78.2287 108.408C78.3517 108.235 78.4155 108.071 78.4201 107.916L78.9396 108.75C78.8667 108.937 78.7664 109.131 78.6388 109.331C78.5158 109.532 78.3586 109.721 78.1672 109.899C77.9757 110.072 77.7456 110.215 77.4767 110.329C77.2078 110.439 76.8888 110.493 76.5197 110.493C76.0503 110.493 75.6242 110.4 75.2414 110.213C74.8631 110.022 74.5623 109.76 74.339 109.427C74.1203 109.09 74.0109 108.707 74.0109 108.279C74.0109 107.891 74.0838 107.547 74.2297 107.246C74.3755 106.946 74.5897 106.693 74.8722 106.488C75.1593 106.278 75.5171 106.121 75.9455 106.016C76.3739 105.906 76.8706 105.852 77.4357 105.852H78.5773ZM84.9508 108.955C85.1924 108.955 85.4066 108.91 85.5934 108.819C85.7803 108.723 85.9261 108.591 86.0309 108.422C86.1403 108.249 86.1973 108.046 86.2018 107.814H88.0544C88.0498 108.333 87.9108 108.796 87.6374 109.201C87.3639 109.602 86.9971 109.919 86.5368 110.152C86.0765 110.379 85.5615 110.493 84.9919 110.493C84.4176 110.493 83.9163 110.398 83.4879 110.206C83.0641 110.015 82.7109 109.751 82.4284 109.413C82.1458 109.072 81.9339 108.675 81.7926 108.224C81.6514 107.768 81.5807 107.281 81.5807 106.761V106.563C81.5807 106.039 81.6514 105.551 81.7926 105.1C81.9339 104.644 82.1458 104.248 82.4284 103.91C82.7109 103.569 83.0641 103.302 83.4879 103.111C83.9118 102.919 84.4085 102.823 84.9782 102.823C85.5843 102.823 86.1152 102.94 86.571 103.172C87.0312 103.405 87.3913 103.737 87.651 104.17C87.9154 104.599 88.0498 105.107 88.0544 105.695H86.2018C86.1973 105.448 86.1448 105.225 86.0446 105.025C85.9489 104.824 85.8076 104.665 85.6208 104.546C85.4385 104.423 85.2129 104.362 84.944 104.362C84.6569 104.362 84.4222 104.423 84.2399 104.546C84.0576 104.665 83.9163 104.829 83.8161 105.038C83.7158 105.243 83.6452 105.478 83.6042 105.742C83.5677 106.002 83.5495 106.276 83.5495 106.563V106.761C83.5495 107.048 83.5677 107.324 83.6042 107.588C83.6406 107.852 83.709 108.087 83.8092 108.292C83.9141 108.497 84.0576 108.659 84.2399 108.778C84.4222 108.896 84.6592 108.955 84.9508 108.955ZM91.3517 102.96V110.357H89.3761V102.96H91.3517ZM89.2531 101.032C89.2531 100.745 89.3533 100.508 89.5539 100.322C89.7544 100.135 90.0233 100.041 90.3605 100.041C90.6932 100.041 90.9598 100.135 91.1603 100.322C91.3654 100.508 91.4679 100.745 91.4679 101.032C91.4679 101.32 91.3654 101.557 91.1603 101.743C90.9598 101.93 90.6932 102.024 90.3605 102.024C90.0233 102.024 89.7544 101.93 89.5539 101.743C89.3533 101.557 89.2531 101.32 89.2531 101.032ZM96.4606 110.493C95.8864 110.493 95.3714 110.402 94.9157 110.22C94.4599 110.033 94.0726 109.776 93.7536 109.448C93.4391 109.119 93.1976 108.739 93.0289 108.306C92.8603 107.868 92.776 107.404 92.776 106.911V106.638C92.776 106.077 92.8558 105.565 93.0153 105.1C93.1748 104.635 93.4026 104.232 93.6989 103.89C93.9996 103.548 94.3642 103.286 94.7926 103.104C95.221 102.917 95.7041 102.823 96.2418 102.823C96.7659 102.823 97.2308 102.91 97.6364 103.083C98.042 103.256 98.3815 103.503 98.6549 103.822C98.9329 104.141 99.1426 104.523 99.2838 104.97C99.4251 105.412 99.4957 105.904 99.4957 106.447V107.267H93.6168V105.954H97.5612V105.804C97.5612 105.531 97.511 105.287 97.4108 105.073C97.3151 104.854 97.1692 104.681 96.9733 104.553C96.7773 104.425 96.5267 104.362 96.2213 104.362C95.9616 104.362 95.7383 104.419 95.5514 104.532C95.3646 104.646 95.2119 104.806 95.0934 105.011C94.9795 105.216 94.8929 105.458 94.8336 105.736C94.7789 106.009 94.7516 106.31 94.7516 106.638V106.911C94.7516 107.208 94.7926 107.481 94.8746 107.732C94.9612 107.982 95.082 108.199 95.237 108.381C95.3965 108.563 95.5879 108.705 95.8112 108.805C96.039 108.905 96.2965 108.955 96.5836 108.955C96.9391 108.955 97.2695 108.887 97.5748 108.75C97.8847 108.609 98.1513 108.397 98.3746 108.115L99.3317 109.154C99.1767 109.377 98.9648 109.591 98.6959 109.796C98.4316 110.001 98.1126 110.17 97.7389 110.302C97.3652 110.43 96.9391 110.493 96.4606 110.493ZM104.693 108.313C104.693 108.171 104.652 108.044 104.57 107.93C104.488 107.816 104.336 107.711 104.112 107.615C103.894 107.515 103.577 107.424 103.162 107.342C102.789 107.26 102.44 107.157 102.116 107.034C101.797 106.907 101.519 106.754 101.282 106.576C101.05 106.399 100.868 106.189 100.735 105.948C100.603 105.701 100.537 105.421 100.537 105.107C100.537 104.797 100.603 104.505 100.735 104.232C100.872 103.958 101.066 103.717 101.317 103.507C101.572 103.293 101.882 103.127 102.246 103.008C102.615 102.885 103.03 102.823 103.49 102.823C104.133 102.823 104.684 102.926 105.145 103.131C105.61 103.336 105.965 103.619 106.211 103.979C106.462 104.334 106.587 104.74 106.587 105.196H104.618C104.618 105.004 104.577 104.833 104.495 104.683C104.418 104.528 104.295 104.407 104.126 104.321C103.962 104.229 103.748 104.184 103.484 104.184C103.265 104.184 103.076 104.223 102.916 104.3C102.757 104.373 102.634 104.473 102.547 104.601C102.465 104.724 102.424 104.861 102.424 105.011C102.424 105.125 102.447 105.227 102.492 105.319C102.542 105.405 102.622 105.485 102.732 105.558C102.841 105.631 102.982 105.699 103.155 105.763C103.333 105.822 103.552 105.877 103.812 105.927C104.345 106.036 104.821 106.18 105.24 106.358C105.66 106.531 105.992 106.768 106.238 107.069C106.485 107.365 106.608 107.754 106.608 108.238C106.608 108.566 106.535 108.866 106.389 109.14C106.243 109.413 106.033 109.653 105.76 109.858C105.486 110.058 105.158 110.215 104.776 110.329C104.397 110.439 103.971 110.493 103.497 110.493C102.809 110.493 102.226 110.37 101.747 110.124C101.273 109.878 100.913 109.566 100.667 109.188C100.426 108.805 100.305 108.413 100.305 108.012H102.171C102.18 108.281 102.249 108.497 102.376 108.661C102.508 108.825 102.675 108.944 102.875 109.017C103.08 109.09 103.301 109.126 103.538 109.126C103.793 109.126 104.005 109.092 104.174 109.024C104.343 108.951 104.47 108.855 104.557 108.737C104.648 108.614 104.693 108.472 104.693 108.313Z" fill="white"/>
<path d="M91.6456 42.6719C91.6456 54.7933 81.8192 64.6197 69.6978 64.6197C57.5764 64.6197 47.75 54.7933 47.75 42.6719C47.75 30.5505 57.5764 20.7241 69.6978 20.7241C81.8192 20.7241 91.6456 30.5505 91.6456 42.6719Z" stroke="white" stroke-width="1.5"/>
<g clip-path="url(#clip0_2005_5572)">
<path d="M63.7798 41.5218H63.9916C64.8073 41.5218 65.4746 42.1891 65.4746 43.0047V50.4193C65.4746 51.2349 64.8073 51.9022 63.9916 51.9022H63.7798C62.9642 51.9022 62.2969 51.2349 62.2969 50.4193V43.0047C62.2969 42.1891 62.9642 41.5218 63.7798 41.5218ZM69.7115 37.073C70.5271 37.073 71.1944 37.7403 71.1944 38.5559V50.4193C71.1944 51.2349 70.5271 51.9022 69.7115 51.9022C68.8959 51.9022 68.2286 51.2349 68.2286 50.4193V38.5559C68.2286 37.7403 68.8959 37.073 69.7115 37.073ZM75.6432 45.5468C76.4588 45.5468 77.1261 46.2142 77.1261 47.0298V50.4193C77.1261 51.2349 76.4588 51.9022 75.6432 51.9022C74.8276 51.9022 74.1603 51.2349 74.1603 50.4193V47.0298C74.1603 46.2142 74.8276 45.5468 75.6432 45.5468Z" fill="white"/>
</g>
<defs>
<linearGradient id="paint0_linear_2005_5572" x1="70" y1="0" x2="70" y2="115" gradientUnits="userSpaceOnUse">
<stop stop-color="#F56789"/>
<stop offset="1" stop-color="#DA496B"/>
</linearGradient>
<clipPath id="clip0_2005_5572">
<rect width="25.4215" height="25.4215" fill="white" transform="translate(57 31.7769)"/>
</clipPath>
</defs>
</svg>
