<svg width="140" height="115" viewBox="0 0 140 115" fill="none" xmlns="http://www.w3.org/2000/svg">
<rect width="140" height="115" rx="15" fill="url(#paint0_linear_2005_5569)"/>
<path d="M20.9893 82.0469V92H18.9385L14.9395 85.3281V92H12.8887V82.0469H14.9395L18.9453 88.7256V82.0469H20.9893ZM27.103 90.2295V84.6035H29.0718V92H27.2192L27.103 90.2295ZM27.3218 88.7119L27.9028 88.6982C27.9028 89.1904 27.8459 89.6484 27.7319 90.0723C27.618 90.4915 27.4471 90.8561 27.2192 91.166C26.9914 91.4714 26.7043 91.7106 26.3579 91.8838C26.0115 92.0524 25.6037 92.1367 25.1343 92.1367C24.7742 92.1367 24.4416 92.0866 24.1362 91.9863C23.8354 91.8815 23.5757 91.7197 23.3569 91.501C23.1427 91.2777 22.9741 90.9928 22.8511 90.6465C22.7326 90.2956 22.6733 89.874 22.6733 89.3818V84.6035H24.6421V89.3955C24.6421 89.6143 24.6671 89.7988 24.7173 89.9492C24.772 90.0996 24.8472 90.2227 24.9429 90.3184C25.0386 90.4141 25.1502 90.4824 25.2778 90.5234C25.41 90.5645 25.5558 90.585 25.7153 90.585C26.1209 90.585 26.4399 90.5029 26.6724 90.3389C26.9093 90.1748 27.0757 89.9515 27.1714 89.6689C27.2716 89.3818 27.3218 89.0628 27.3218 88.7119ZM32.6221 86.1348V92H30.6465V84.6035H32.499L32.6221 86.1348ZM32.3486 88.042H31.8017C31.8017 87.527 31.8633 87.0531 31.9863 86.6201C32.1139 86.1826 32.2985 85.8044 32.54 85.4854C32.7861 85.1618 33.0892 84.9111 33.4492 84.7334C33.8092 84.5557 34.2262 84.4668 34.7002 84.4668C35.0283 84.4668 35.3291 84.5169 35.6025 84.6172C35.876 84.7129 36.1107 84.8656 36.3066 85.0752C36.5071 85.2803 36.6621 85.5492 36.7715 85.8818C36.8808 86.21 36.9355 86.6042 36.9355 87.0645V92H34.9668V87.2832C34.9668 86.946 34.9212 86.6862 34.8301 86.5039C34.7389 86.3216 34.609 86.194 34.4404 86.1211C34.2764 86.0482 34.0781 86.0117 33.8457 86.0117C33.5905 86.0117 33.3672 86.0641 33.1758 86.1689C32.9889 86.2738 32.834 86.4196 32.7109 86.6064C32.5879 86.7887 32.4967 87.0029 32.4375 87.249C32.3782 87.4951 32.3486 87.7594 32.3486 88.042ZM36.751 87.8164L36.0469 87.9053C36.0469 87.4222 36.1061 86.9733 36.2246 86.5586C36.3476 86.1439 36.5277 85.7793 36.7646 85.4648C37.0062 85.1504 37.3047 84.9066 37.6601 84.7334C38.0156 84.5557 38.4258 84.4668 38.8906 84.4668C39.2461 84.4668 39.5696 84.5192 39.8613 84.624C40.153 84.7243 40.4014 84.8861 40.6064 85.1094C40.8161 85.3281 40.9756 85.6152 41.0849 85.9707C41.1989 86.3262 41.2558 86.7614 41.2558 87.2764V92H39.2803V87.2764C39.2803 86.9346 39.2347 86.6748 39.1435 86.4971C39.057 86.3148 38.9293 86.1895 38.7607 86.1211C38.5967 86.0482 38.4007 86.0117 38.1728 86.0117C37.9359 86.0117 37.7285 86.0596 37.5508 86.1553C37.373 86.2464 37.2249 86.374 37.1064 86.5381C36.9879 86.7021 36.8991 86.8936 36.8398 87.1123C36.7806 87.3265 36.751 87.5612 36.751 87.8164ZM42.8579 81.5H44.8266V90.3047L44.6284 92H42.8579V81.5ZM49.5093 88.2266V88.3701C49.5093 88.9215 49.45 89.4274 49.3315 89.8877C49.2176 90.348 49.0399 90.7467 48.7983 91.084C48.5568 91.4167 48.256 91.6764 47.896 91.8633C47.5405 92.0456 47.1212 92.1367 46.6382 92.1367C46.187 92.1367 45.7951 92.0456 45.4624 91.8633C45.1343 91.681 44.8585 91.4235 44.6352 91.0908C44.4119 90.7581 44.2319 90.3685 44.0952 89.9219C43.9585 89.4753 43.8559 88.9876 43.7876 88.459V88.1445C43.8559 87.6159 43.9585 87.1283 44.0952 86.6816C44.2319 86.235 44.4119 85.8454 44.6352 85.5127C44.8585 85.18 45.1343 84.9225 45.4624 84.7402C45.7905 84.5579 46.1779 84.4668 46.6245 84.4668C47.1121 84.4668 47.5359 84.5602 47.896 84.7471C48.2606 84.9294 48.5613 85.1891 48.7983 85.5264C49.0399 85.859 49.2176 86.2555 49.3315 86.7158C49.45 87.1715 49.5093 87.6751 49.5093 88.2266ZM47.5405 88.3701V88.2266C47.5405 87.9258 47.5177 87.6432 47.4721 87.3789C47.4311 87.11 47.3582 86.8753 47.2534 86.6748C47.1486 86.4697 47.005 86.3079 46.8227 86.1895C46.645 86.071 46.4149 86.0117 46.1323 86.0117C45.8634 86.0117 45.6356 86.0573 45.4487 86.1484C45.2619 86.2396 45.1069 86.3672 44.9839 86.5312C44.8654 86.6953 44.7765 86.8913 44.7173 87.1191C44.658 87.3424 44.6216 87.5885 44.6079 87.8574V88.7529C44.6216 89.113 44.6808 89.432 44.7856 89.71C44.895 89.9834 45.0591 90.1999 45.2778 90.3594C45.5011 90.5143 45.7905 90.5918 46.146 90.5918C46.424 90.5918 46.6541 90.5371 46.8364 90.4277C47.0187 90.3184 47.16 90.1634 47.2602 89.9629C47.365 89.7624 47.438 89.5277 47.479 89.2588C47.52 88.9854 47.5405 88.6891 47.5405 88.3701ZM54.2148 92.1367C53.6406 92.1367 53.1256 92.0456 52.6699 91.8633C52.2142 91.6764 51.8268 91.4189 51.5078 91.0908C51.1933 90.7627 50.9518 90.3822 50.7832 89.9492C50.6146 89.5117 50.5302 89.0469 50.5302 88.5547V88.2812C50.5302 87.7207 50.61 87.208 50.7695 86.7432C50.929 86.2783 51.1569 85.875 51.4531 85.5332C51.7539 85.1914 52.1185 84.9294 52.5468 84.7471C52.9752 84.5602 53.4583 84.4668 53.9961 84.4668C54.5202 84.4668 54.985 84.5534 55.3906 84.7266C55.7962 84.8997 56.1357 85.1458 56.4091 85.4648C56.6871 85.7839 56.8968 86.1667 57.0381 86.6133C57.1793 87.0553 57.25 87.5475 57.25 88.0898V88.9102H51.3711V87.5977H55.3154V87.4473C55.3154 87.1738 55.2653 86.93 55.165 86.7158C55.0693 86.4971 54.9235 86.3239 54.7275 86.1963C54.5315 86.0687 54.2809 86.0049 53.9756 86.0049C53.7158 86.0049 53.4925 86.0618 53.3056 86.1758C53.1188 86.2897 52.9661 86.4492 52.8476 86.6543C52.7337 86.8594 52.6471 87.1009 52.5879 87.3789C52.5332 87.6523 52.5058 87.9531 52.5058 88.2812V88.5547C52.5058 88.8509 52.5468 89.1243 52.6289 89.375C52.7155 89.6257 52.8362 89.8421 52.9912 90.0244C53.1507 90.2067 53.3421 90.348 53.5654 90.4482C53.7933 90.5485 54.0508 90.5986 54.3379 90.5986C54.6933 90.5986 55.0237 90.5303 55.3291 90.3936C55.639 90.2523 55.9056 90.0404 56.1289 89.7578L57.0859 90.7969C56.931 91.0202 56.719 91.2344 56.4502 91.4395C56.1858 91.6445 55.8668 91.8132 55.4931 91.9453C55.1194 92.0729 54.6933 92.1367 54.2148 92.1367ZM60.4174 86.2168V92H58.4487V84.6035H60.3012L60.4174 86.2168ZM62.646 84.5557L62.6118 86.3809C62.5161 86.3672 62.3999 86.3558 62.2631 86.3467C62.131 86.333 62.0102 86.3262 61.9008 86.3262C61.6228 86.3262 61.3813 86.3626 61.1762 86.4355C60.9757 86.5039 60.8071 86.6064 60.6704 86.7432C60.5382 86.8799 60.438 87.0462 60.3696 87.2422C60.3058 87.4382 60.2693 87.6615 60.2602 87.9121L59.8637 87.7891C59.8637 87.3105 59.9116 86.8708 60.0073 86.4697C60.103 86.0641 60.242 85.7109 60.4243 85.4102C60.6111 85.1094 60.839 84.877 61.1079 84.7129C61.3768 84.5488 61.6844 84.4668 62.0307 84.4668C62.1401 84.4668 62.2518 84.4759 62.3657 84.4941C62.4796 84.5078 62.573 84.5283 62.646 84.5557ZM66.9028 88.377V88.2334C66.9028 87.6911 66.9803 87.1921 67.1352 86.7363C67.2901 86.276 67.5157 85.8773 67.812 85.54C68.1082 85.2028 68.4728 84.9408 68.9057 84.7539C69.3387 84.5625 69.8354 84.4668 70.3959 84.4668C70.9565 84.4668 71.4555 84.5625 71.893 84.7539C72.3305 84.9408 72.6974 85.2028 72.9936 85.54C73.2944 85.8773 73.5222 86.276 73.6772 86.7363C73.8321 87.1921 73.9096 87.6911 73.9096 88.2334V88.377C73.9096 88.9147 73.8321 89.4137 73.6772 89.874C73.5222 90.3298 73.2944 90.7285 72.9936 91.0703C72.6974 91.4076 72.3328 91.6696 71.8998 91.8564C71.4669 92.0433 70.9702 92.1367 70.4096 92.1367C69.8491 92.1367 69.35 92.0433 68.9125 91.8564C68.4796 91.6696 68.1127 91.4076 67.812 91.0703C67.5157 90.7285 67.2901 90.3298 67.1352 89.874C66.9803 89.4137 66.9028 88.9147 66.9028 88.377ZM68.8715 88.2334V88.377C68.8715 88.6868 68.8989 88.9762 68.9536 89.2451C69.0082 89.514 69.0948 89.751 69.2133 89.9561C69.3364 90.1566 69.4959 90.3138 69.6918 90.4277C69.8878 90.5417 70.1271 90.5986 70.4096 90.5986C70.6831 90.5986 70.9178 90.5417 71.1137 90.4277C71.3097 90.3138 71.4669 90.1566 71.5854 89.9561C71.7039 89.751 71.7905 89.514 71.8452 89.2451C71.9044 88.9762 71.934 88.6868 71.934 88.377V88.2334C71.934 87.9326 71.9044 87.6501 71.8452 87.3857C71.7905 87.1169 71.7016 86.8799 71.5786 86.6748C71.4601 86.4652 71.3028 86.3011 71.1069 86.1826C70.9109 86.0641 70.6739 86.0049 70.3959 86.0049C70.1179 86.0049 69.881 86.0641 69.685 86.1826C69.4936 86.3011 69.3364 86.4652 69.2133 86.6748C69.0948 86.8799 69.0082 87.1169 68.9536 87.3857C68.8989 87.6501 68.8715 87.9326 68.8715 88.2334ZM77.706 92H75.7236V83.9473C75.7236 83.3867 75.8329 82.915 76.0517 82.5322C76.275 82.1449 76.5872 81.8532 76.9882 81.6572C77.3938 81.4567 77.8746 81.3564 78.4306 81.3564C78.6129 81.3564 78.7884 81.3701 78.957 81.3975C79.1256 81.4202 79.2897 81.4499 79.4492 81.4863L79.4286 82.9697C79.3421 82.9469 79.2509 82.931 79.1552 82.9219C79.0595 82.9128 78.9479 82.9082 78.8203 82.9082C78.5833 82.9082 78.3805 82.9492 78.2119 83.0312C78.0478 83.1087 77.9225 83.2249 77.8359 83.3799C77.7493 83.5348 77.706 83.724 77.706 83.9473V92ZM79.1826 84.6035V85.998H74.623V84.6035H79.1826ZM87.5683 89.9219L89.913 82.0469H92.1962L88.7304 92H87.2265L87.5683 89.9219ZM85.4081 82.0469L87.746 89.9219L88.1015 92H86.5839L83.1386 82.0469H85.4081ZM95.1586 84.6035V92H93.183V84.6035H95.1586ZM93.06 82.6758C93.06 82.3887 93.1602 82.1517 93.3608 81.9648C93.5613 81.778 93.8302 81.6846 94.1674 81.6846C94.5001 81.6846 94.7667 81.778 94.9672 81.9648C95.1723 82.1517 95.2748 82.3887 95.2748 82.6758C95.2748 82.9629 95.1723 83.1999 94.9672 83.3867C94.7667 83.5736 94.5001 83.667 94.1674 83.667C93.8302 83.667 93.5613 83.5736 93.3608 83.3867C93.1602 83.1999 93.06 82.9629 93.06 82.6758ZM100.862 89.9561C100.862 89.8148 100.821 89.6872 100.739 89.5732C100.657 89.4593 100.504 89.3545 100.281 89.2588C100.062 89.1585 99.7457 89.0674 99.331 88.9854C98.9573 88.9033 98.6086 88.8008 98.2851 88.6777C97.9661 88.5501 97.6881 88.3975 97.4511 88.2197C97.2187 88.042 97.0364 87.8324 96.9042 87.5908C96.772 87.3447 96.706 87.0645 96.706 86.75C96.706 86.4401 96.772 86.1484 96.9042 85.875C97.0409 85.6016 97.2346 85.36 97.4853 85.1504C97.7405 84.9362 98.0504 84.7699 98.4149 84.6514C98.7841 84.5283 99.1988 84.4668 99.6591 84.4668C100.302 84.4668 100.853 84.5693 101.313 84.7744C101.778 84.9795 102.134 85.262 102.38 85.6221C102.63 85.9775 102.756 86.3831 102.756 86.8389H100.787C100.787 86.6475 100.746 86.4766 100.664 86.3262C100.586 86.1712 100.463 86.0505 100.295 85.9639C100.131 85.8727 99.9166 85.8271 99.6523 85.8271C99.4335 85.8271 99.2444 85.8659 99.0849 85.9434C98.9254 86.0163 98.8023 86.1165 98.7157 86.2441C98.6337 86.3672 98.5927 86.5039 98.5927 86.6543C98.5927 86.7682 98.6155 86.8708 98.661 86.9619C98.7112 87.0485 98.7909 87.1283 98.9003 87.2012C99.0097 87.2741 99.151 87.3424 99.3241 87.4062C99.5019 87.4655 99.7206 87.5202 99.9804 87.5703C100.514 87.6797 100.99 87.8232 101.409 88.001C101.828 88.1742 102.161 88.4111 102.407 88.7119C102.653 89.0081 102.776 89.3978 102.776 89.8809C102.776 90.209 102.703 90.5098 102.558 90.7832C102.412 91.0566 102.202 91.2959 101.929 91.501C101.655 91.7015 101.327 91.8587 100.944 91.9727C100.566 92.082 100.14 92.1367 99.6659 92.1367C98.9778 92.1367 98.3944 92.0137 97.9159 91.7676C97.442 91.5215 97.0819 91.2093 96.8358 90.8311C96.5943 90.4482 96.4735 90.0563 96.4735 89.6553H98.3398C98.3489 89.9242 98.4172 90.1406 98.5448 90.3047C98.677 90.4688 98.8433 90.5872 99.0439 90.6602C99.2489 90.7331 99.47 90.7695 99.7069 90.7695C99.9621 90.7695 100.174 90.7354 100.343 90.667C100.511 90.5941 100.639 90.4984 100.725 90.3799C100.817 90.2568 100.862 90.1156 100.862 89.9561ZM106.21 84.6035V92H104.235V84.6035H106.21ZM104.112 82.6758C104.112 82.3887 104.212 82.1517 104.412 81.9648C104.613 81.778 104.882 81.6846 105.219 81.6846C105.552 81.6846 105.818 81.778 106.019 81.9648C106.224 82.1517 106.327 82.3887 106.327 82.6758C106.327 82.9629 106.224 83.1999 106.019 83.3867C105.818 83.5736 105.552 83.667 105.219 83.667C104.882 83.667 104.613 83.5736 104.412 83.3867C104.212 83.1999 104.112 82.9629 104.112 82.6758ZM111.538 84.6035V85.998H107.231V84.6035H111.538ZM108.298 82.7783H110.266V89.7715C110.266 89.9857 110.294 90.1497 110.349 90.2637C110.408 90.3776 110.494 90.4574 110.608 90.5029C110.722 90.5439 110.866 90.5645 111.039 90.5645C111.162 90.5645 111.271 90.5599 111.367 90.5508C111.467 90.5371 111.552 90.5234 111.62 90.5098L111.627 91.959C111.458 92.0137 111.276 92.057 111.08 92.0889C110.884 92.1208 110.668 92.1367 110.431 92.1367C109.998 92.1367 109.619 92.0661 109.296 91.9248C108.977 91.779 108.731 91.5465 108.558 91.2275C108.384 90.9085 108.298 90.4893 108.298 89.9697V82.7783ZM112.245 88.377V88.2334C112.245 87.6911 112.322 87.1921 112.477 86.7363C112.632 86.276 112.857 85.8773 113.154 85.54C113.45 85.2028 113.815 84.9408 114.247 84.7539C114.68 84.5625 115.177 84.4668 115.738 84.4668C116.298 84.4668 116.797 84.5625 117.235 84.7539C117.672 84.9408 118.039 85.2028 118.335 85.54C118.636 85.8773 118.864 86.276 119.019 86.7363C119.174 87.1921 119.251 87.6911 119.251 88.2334V88.377C119.251 88.9147 119.174 89.4137 119.019 89.874C118.864 90.3298 118.636 90.7285 118.335 91.0703C118.039 91.4076 117.675 91.6696 117.242 91.8564C116.809 92.0433 116.312 92.1367 115.751 92.1367C115.191 92.1367 114.692 92.0433 114.254 91.8564C113.821 91.6696 113.454 91.4076 113.154 91.0703C112.857 90.7285 112.632 90.3298 112.477 89.874C112.322 89.4137 112.245 88.9147 112.245 88.377ZM114.213 88.2334V88.377C114.213 88.6868 114.241 88.9762 114.295 89.2451C114.35 89.514 114.437 89.751 114.555 89.9561C114.678 90.1566 114.838 90.3138 115.034 90.4277C115.23 90.5417 115.469 90.5986 115.751 90.5986C116.025 90.5986 116.259 90.5417 116.455 90.4277C116.651 90.3138 116.809 90.1566 116.927 89.9561C117.046 89.751 117.132 89.514 117.187 89.2451C117.246 88.9762 117.276 88.6868 117.276 88.377V88.2334C117.276 87.9326 117.246 87.6501 117.187 87.3857C117.132 87.1169 117.043 86.8799 116.92 86.6748C116.802 86.4652 116.645 86.3011 116.449 86.1826C116.253 86.0641 116.016 86.0049 115.738 86.0049C115.46 86.0049 115.223 86.0641 115.027 86.1826C114.835 86.3011 114.678 86.4652 114.555 86.6748C114.437 86.8799 114.35 87.1169 114.295 87.3857C114.241 87.6501 114.213 87.9326 114.213 88.2334ZM122.508 86.2168V92H120.539V84.6035H122.391L122.508 86.2168ZM124.736 84.5557L124.702 86.3809C124.606 86.3672 124.49 86.3558 124.353 86.3467C124.221 86.333 124.1 86.3262 123.991 86.3262C123.713 86.3262 123.472 86.3626 123.266 86.4355C123.066 86.5039 122.897 86.6064 122.761 86.7432C122.628 86.8799 122.528 87.0462 122.46 87.2422C122.396 87.4382 122.36 87.6615 122.35 87.9121L121.954 87.7891C121.954 87.3105 122.002 86.8708 122.098 86.4697C122.193 86.0641 122.332 85.7109 122.515 85.4102C122.701 85.1094 122.929 84.877 123.198 84.7129C123.467 84.5488 123.775 84.4668 124.121 84.4668C124.23 84.4668 124.342 84.4759 124.456 84.4941C124.57 84.5078 124.663 84.5283 124.736 84.5557Z" fill="white"/>
<path d="M76.7311 35.8492C76.9796 35.6006 77.1192 35.2636 77.1192 34.9121C77.1192 34.5606 76.9796 34.2236 76.7311 33.9751C76.4826 33.7265 76.1455 33.5869 75.794 33.5869C75.4426 33.5869 75.1055 33.7265 74.857 33.9751L62.5588 46.2759L58.2017 41.9162C58.0787 41.7932 57.9326 41.6956 57.7718 41.629C57.611 41.5624 57.4387 41.5281 57.2647 41.5281C57.0906 41.5281 56.9183 41.5624 56.7575 41.629C56.5967 41.6956 56.4507 41.7932 56.3276 41.9162C56.2045 42.0393 56.1069 42.1854 56.0403 42.3462C55.9737 42.5069 55.9395 42.6793 55.9395 42.8533C55.9395 43.0273 55.9737 43.1996 56.0403 43.3604C56.1069 43.5212 56.2045 43.6673 56.3276 43.7903L61.6217 49.0845C61.7447 49.2077 61.8907 49.3055 62.0515 49.3722C62.2123 49.4389 62.3847 49.4733 62.5588 49.4733C62.7329 49.4733 62.9052 49.4389 63.066 49.3722C63.2268 49.3055 63.3729 49.2077 63.4958 49.0845L76.7311 35.8492Z" fill="#EAF9D6"/>
<path d="M55.0994 23C54.1671 23 53.2439 23.1836 52.3826 23.5404C51.5212 23.8972 50.7386 24.4201 50.0794 25.0794C48.748 26.4108 48 28.2165 48 30.0994V52.9594C48 56.8823 51.1765 60.0588 55.0994 60.0588H71.9559C72.1544 59.0794 72.5673 58.1794 73.147 57.4117H55.0994C53.9186 57.4117 52.7861 56.9426 51.9511 56.1077C51.1161 55.2727 50.6471 54.1402 50.6471 52.9594V30.0994C50.6471 27.6403 52.6403 25.6471 55.0994 25.6471H77.9594C80.4185 25.6471 82.4117 27.6403 82.4117 30.0994V41.6406C83.2879 41.4935 84.1826 41.4935 85.0588 41.6406V30.0994C85.0588 26.1765 81.8823 23 77.9594 23H55.0994Z" fill="#EAF9D6"/>
<path d="M89.0276 49.4706C89.0276 50.8747 88.4698 52.2213 87.4769 53.2141C86.4841 54.207 85.1375 54.7647 83.7334 54.7647C82.3294 54.7647 80.9828 54.207 79.9899 53.2141C78.9971 52.2213 78.4393 50.8747 78.4393 49.4706C78.4393 48.0665 78.9971 46.72 79.9899 45.7271C80.9828 44.7343 82.3294 44.1765 83.7334 44.1765C85.1375 44.1765 86.4841 44.7343 87.4769 45.7271C88.4698 46.72 89.0276 48.0665 89.0276 49.4706ZM92.9981 61.3824C92.9981 64.678 90.3511 68 83.7334 68C77.1158 68 74.4688 64.6912 74.4688 61.3824C74.4688 60.3293 74.8871 59.3194 75.6317 58.5748C76.3763 57.8301 77.3863 57.4118 78.4393 57.4118H89.0276C90.0806 57.4118 91.0906 57.8301 91.8352 58.5748C92.5798 59.3194 92.9981 60.3293 92.9981 61.3824Z" fill="#EAF9D6"/>
<defs>
<linearGradient id="paint0_linear_2005_5569" x1="70" y1="0" x2="70" y2="115" gradientUnits="userSpaceOnUse">
<stop stop-color="#A491FA"/>
<stop offset="1" stop-color="#5D47C0"/>
</linearGradient>
</defs>
</svg>
