<svg width="140" height="115" viewBox="0 0 140 115" fill="none" xmlns="http://www.w3.org/2000/svg">
<rect width="140" height="115" rx="15" fill="url(#paint0_linear_2005_5590)"/>
<path d="M47.1433 84.0469H50.8553C51.6163 84.0469 52.2703 84.1608 52.8172 84.3887C53.3686 84.6165 53.7924 84.9538 54.0886 85.4004C54.3849 85.847 54.533 86.3962 54.533 87.0479C54.533 87.5811 54.4418 88.0391 54.2595 88.4219C54.0818 88.8001 53.8289 89.1169 53.5008 89.3721C53.1772 89.6227 52.7967 89.8232 52.3592 89.9736L51.7097 90.3154H48.4832L48.4695 88.7158H50.8689C51.2289 88.7158 51.5275 88.652 51.7644 88.5244C52.0014 88.3968 52.1791 88.2191 52.2976 87.9912C52.4207 87.7633 52.4822 87.499 52.4822 87.1982C52.4822 86.8792 52.423 86.6035 52.3045 86.3711C52.186 86.1387 52.006 85.9609 51.7644 85.8379C51.5229 85.7148 51.2198 85.6533 50.8553 85.6533H49.1941V94H47.1433V84.0469ZM52.7078 94L50.4383 89.5635L52.6053 89.5498L54.9021 93.9043V94H52.7078ZM60.0589 92.332V89.0371C60.0589 88.8001 60.0201 88.5973 59.9426 88.4287C59.8652 88.2555 59.7444 88.1211 59.5803 88.0254C59.4208 87.9297 59.2135 87.8818 58.9583 87.8818C58.7395 87.8818 58.5504 87.9206 58.3909 87.998C58.2314 88.071 58.1083 88.1781 58.0217 88.3193C57.9352 88.4561 57.8919 88.6178 57.8919 88.8047H55.9231C55.9231 88.4902 55.996 88.1917 56.1419 87.9092C56.2877 87.6266 56.4996 87.3783 56.7776 87.1641C57.0556 86.9453 57.386 86.7744 57.7688 86.6514C58.1562 86.5283 58.5891 86.4668 59.0676 86.4668C59.6419 86.4668 60.1523 86.5625 60.5989 86.7539C61.0455 86.9453 61.3964 87.2324 61.6516 87.6152C61.9114 87.998 62.0413 88.4766 62.0413 89.0508V92.2158C62.0413 92.6214 62.0663 92.9541 62.1165 93.2139C62.1666 93.4691 62.2395 93.6924 62.3352 93.8838V94H60.346C60.2503 93.7995 60.1773 93.5488 60.1272 93.248C60.0816 92.9427 60.0589 92.6374 60.0589 92.332ZM60.3186 89.4951L60.3323 90.6094H59.2317C58.9719 90.6094 58.7464 90.639 58.555 90.6982C58.3635 90.7575 58.2063 90.8418 58.0833 90.9512C57.9602 91.056 57.8691 91.179 57.8098 91.3203C57.7551 91.4616 57.7278 91.6165 57.7278 91.7852C57.7278 91.9538 57.7665 92.1064 57.844 92.2432C57.9215 92.3753 58.0331 92.4801 58.179 92.5576C58.3248 92.6305 58.4957 92.667 58.6917 92.667C58.9879 92.667 59.2454 92.6077 59.4641 92.4893C59.6829 92.3708 59.8515 92.2249 59.97 92.0518C60.093 91.8786 60.1568 91.7145 60.1614 91.5596L60.6809 92.3936C60.608 92.5804 60.5078 92.7741 60.3801 92.9746C60.2571 93.1751 60.0999 93.3643 59.9085 93.542C59.7171 93.7152 59.4869 93.8587 59.218 93.9727C58.9492 94.082 58.6301 94.1367 58.261 94.1367C57.7916 94.1367 57.3655 94.0433 56.9827 93.8564C56.6044 93.665 56.3036 93.403 56.0803 93.0703C55.8616 92.7331 55.7522 92.3503 55.7522 91.9219C55.7522 91.5345 55.8251 91.1904 55.971 90.8896C56.1168 90.5889 56.331 90.3359 56.6135 90.1309C56.9007 89.9212 57.2584 89.764 57.6868 89.6592C58.1152 89.5498 58.6119 89.4951 59.177 89.4951H60.3186ZM67.2595 86.6035V87.998H62.9529V86.6035H67.2595ZM64.0193 84.7783H65.988V91.7715C65.988 91.9857 66.0154 92.1497 66.0701 92.2637C66.1293 92.3776 66.2159 92.4574 66.3298 92.5029C66.4438 92.5439 66.5873 92.5645 66.7605 92.5645C66.8836 92.5645 66.9929 92.5599 67.0886 92.5508C67.1889 92.5371 67.2732 92.5234 67.3416 92.5098L67.3484 93.959C67.1798 94.0137 66.9975 94.057 66.8015 94.0889C66.6056 94.1208 66.3891 94.1367 66.1521 94.1367C65.7192 94.1367 65.3409 94.0661 65.0173 93.9248C64.6983 93.779 64.4522 93.5465 64.2791 93.2275C64.1059 92.9085 64.0193 92.4893 64.0193 91.9697V84.7783ZM70.5364 86.6035V94H68.5608V86.6035H70.5364ZM68.4377 84.6758C68.4377 84.3887 68.538 84.1517 68.7385 83.9648C68.9391 83.778 69.2079 83.6846 69.5452 83.6846C69.8779 83.6846 70.1445 83.778 70.345 83.9648C70.5501 84.1517 70.6526 84.3887 70.6526 84.6758C70.6526 84.9629 70.5501 85.1999 70.345 85.3867C70.1445 85.5736 69.8779 85.667 69.5452 85.667C69.2079 85.667 68.9391 85.5736 68.7385 85.3867C68.538 85.1999 68.4377 84.9629 68.4377 84.6758ZM74.1687 88.1826V94H72.1999V86.6035H74.0457L74.1687 88.1826ZM73.8816 90.042H73.3484C73.3484 89.4951 73.419 89.0029 73.5603 88.5654C73.7016 88.1234 73.8998 87.7474 74.155 87.4375C74.4102 87.123 74.7133 86.8838 75.0642 86.7197C75.4197 86.5511 75.8162 86.4668 76.2537 86.4668C76.6 86.4668 76.9167 86.5169 77.2039 86.6172C77.491 86.7174 77.7371 86.877 77.9421 87.0957C78.1518 87.3145 78.3113 87.6038 78.4207 87.9639C78.5346 88.3239 78.5915 88.7637 78.5915 89.2832V94H76.6091V89.2764C76.6091 88.9482 76.5636 88.693 76.4724 88.5107C76.3813 88.3285 76.2468 88.2008 76.0691 88.1279C75.8959 88.0505 75.6817 88.0117 75.4265 88.0117C75.1622 88.0117 74.932 88.0641 74.7361 88.1689C74.5447 88.2738 74.3852 88.4196 74.2576 88.6064C74.1345 88.7887 74.0411 89.0029 73.9773 89.249C73.9135 89.4951 73.8816 89.7594 73.8816 90.042ZM84.8489 86.6035H86.633V93.7539C86.633 94.4284 86.4827 95.0003 86.1819 95.4697C85.8856 95.9437 85.4709 96.3014 84.9377 96.543C84.4045 96.7891 83.7847 96.9121 83.0784 96.9121C82.7685 96.9121 82.4403 96.8711 82.094 96.7891C81.7522 96.707 81.4241 96.5794 81.1096 96.4062C80.7997 96.2331 80.5399 96.0143 80.3303 95.75L81.1985 94.5879C81.4263 94.8522 81.6907 95.0573 81.9914 95.2031C82.2922 95.3535 82.6249 95.4287 82.9895 95.4287C83.345 95.4287 83.6457 95.3626 83.8918 95.2305C84.1379 95.1029 84.3271 94.9137 84.4592 94.6631C84.5914 94.417 84.6575 94.1185 84.6575 93.7676V88.3125L84.8489 86.6035ZM79.8723 90.3906V90.2471C79.8723 89.682 79.9407 89.1693 80.0774 88.709C80.2187 88.2441 80.4169 87.8454 80.6721 87.5127C80.9319 87.18 81.2463 86.9225 81.6155 86.7402C81.9846 86.5579 82.4016 86.4668 82.8664 86.4668C83.3586 86.4668 83.7711 86.5579 84.1037 86.7402C84.4364 86.9225 84.7099 87.1823 84.9241 87.5195C85.1383 87.8522 85.3046 88.2464 85.4231 88.7021C85.5461 89.1533 85.6418 89.6478 85.7102 90.1855V90.5C85.6418 91.015 85.5393 91.4935 85.4026 91.9355C85.2659 92.3776 85.0858 92.765 84.8625 93.0977C84.6392 93.4258 84.3612 93.681 84.0286 93.8633C83.7004 94.0456 83.3085 94.1367 82.8528 94.1367C82.397 94.1367 81.9846 94.0433 81.6155 93.8564C81.2509 93.6696 80.9387 93.4076 80.6789 93.0703C80.4192 92.7331 80.2187 92.3366 80.0774 91.8809C79.9407 91.4251 79.8723 90.9284 79.8723 90.3906ZM81.8411 90.2471V90.3906C81.8411 90.696 81.8707 90.9808 81.9299 91.2451C81.9892 91.5094 82.0803 91.7441 82.2034 91.9492C82.331 92.1497 82.4882 92.307 82.675 92.4209C82.8664 92.5303 83.092 92.585 83.3518 92.585C83.7118 92.585 84.0058 92.5098 84.2336 92.3594C84.4615 92.2044 84.6324 91.9925 84.7463 91.7236C84.8603 91.4548 84.9263 91.1449 84.9446 90.7939V89.8984C84.9355 89.6113 84.8967 89.3538 84.8284 89.126C84.76 88.8936 84.6643 88.6953 84.5412 88.5312C84.4182 88.3672 84.2587 88.2396 84.0627 88.1484C83.8668 88.0573 83.6343 88.0117 83.3655 88.0117C83.1057 88.0117 82.8801 88.071 82.6887 88.1895C82.5019 88.3034 82.3446 88.4606 82.217 88.6611C82.094 88.8617 82.0006 89.0986 81.9368 89.3721C81.873 89.641 81.8411 89.9326 81.8411 90.2471ZM92.2409 91.9561C92.2409 91.8148 92.1999 91.6872 92.1179 91.5732C92.0359 91.4593 91.8832 91.3545 91.6599 91.2588C91.4411 91.1585 91.1244 91.0674 90.7097 90.9854C90.336 90.9033 89.9874 90.8008 89.6638 90.6777C89.3448 90.5501 89.0668 90.3975 88.8298 90.2197C88.5974 90.042 88.4151 89.8324 88.2829 89.5908C88.1508 89.3447 88.0847 89.0645 88.0847 88.75C88.0847 88.4401 88.1508 88.1484 88.2829 87.875C88.4197 87.6016 88.6133 87.36 88.864 87.1504C89.1192 86.9362 89.4291 86.7699 89.7937 86.6514C90.1628 86.5283 90.5775 86.4668 91.0378 86.4668C91.6804 86.4668 92.2318 86.5693 92.6921 86.7744C93.157 86.9795 93.5124 87.262 93.7585 87.6221C94.0092 87.9775 94.1345 88.3831 94.1345 88.8389H92.1658C92.1658 88.6475 92.1247 88.4766 92.0427 88.3262C91.9652 88.1712 91.8422 88.0505 91.6736 87.9639C91.5095 87.8727 91.2953 87.8271 91.031 87.8271C90.8122 87.8271 90.6231 87.8659 90.4636 87.9434C90.3041 88.0163 90.1811 88.1165 90.0945 88.2441C90.0124 88.3672 89.9714 88.5039 89.9714 88.6543C89.9714 88.7682 89.9942 88.8708 90.0398 88.9619C90.0899 89.0485 90.1697 89.1283 90.279 89.2012C90.3884 89.2741 90.5297 89.3424 90.7029 89.4062C90.8806 89.4655 91.0993 89.5202 91.3591 89.5703C91.8923 89.6797 92.3686 89.8232 92.7878 90.001C93.2071 90.1742 93.5398 90.4111 93.7859 90.7119C94.032 91.0081 94.155 91.3978 94.155 91.8809C94.155 92.209 94.0821 92.5098 93.9363 92.7832C93.7904 93.0566 93.5808 93.2959 93.3074 93.501C93.0339 93.7015 92.7058 93.8587 92.323 93.9727C91.9447 94.082 91.5186 94.1367 91.0447 94.1367C90.3565 94.1367 89.7732 94.0137 89.2947 93.7676C88.8207 93.5215 88.4607 93.2093 88.2146 92.8311C87.973 92.4482 87.8523 92.0563 87.8523 91.6553H89.7185C89.7276 91.9242 89.796 92.1406 89.9236 92.3047C90.0557 92.4688 90.2221 92.5872 90.4226 92.6602C90.6277 92.7331 90.8487 92.7695 91.0857 92.7695C91.3409 92.7695 91.5528 92.7354 91.7214 92.667C91.89 92.5941 92.0176 92.4984 92.1042 92.3799C92.1954 92.2568 92.2409 92.1156 92.2409 91.9561Z" fill="white"/>
<path fill-rule="evenodd" clip-rule="evenodd" d="M25.5486 29.0312C25.6651 29.122 25.7528 29.2447 25.8011 29.3843C25.8382 29.524 25.835 29.6713 25.7917 29.8092C25.7484 29.9471 25.667 30.0698 25.5567 30.1632L22.4029 33.2178L23.1665 37.5552C23.1938 37.6984 23.1795 37.8464 23.1254 37.9817C23.0713 38.117 22.9795 38.234 22.8611 38.3189C22.73 38.4137 22.5723 38.4645 22.4105 38.464C22.2875 38.4644 22.1664 38.4328 22.0592 38.3723L18.1647 36.3334L14.2702 38.3723C14.1421 38.4448 13.9958 38.4786 13.8489 38.4699C13.702 38.4611 13.5608 38.4101 13.4422 38.323C13.3236 38.2359 13.2327 38.1163 13.1804 37.9788C13.1282 37.8412 13.1168 37.6915 13.1476 37.5476L13.9112 33.2102L10.7574 30.1556C10.6593 30.0577 10.5896 29.9348 10.556 29.8003C10.5224 29.6658 10.526 29.5246 10.5665 29.392C10.6108 29.2563 10.6922 29.1357 10.8015 29.0439C10.9109 28.9521 11.0437 28.8928 11.1851 28.8727L15.5302 28.2312L17.4774 24.2909C17.54 24.1618 17.6376 24.0529 17.7591 23.9767C17.8807 23.9005 18.0212 23.8601 18.1647 23.8601C18.3082 23.8601 18.4487 23.9005 18.5703 23.9767C18.6918 24.0529 18.7894 24.1618 18.852 24.2909L20.7992 28.2389L25.1443 28.8727C25.2916 28.8853 25.432 28.9403 25.5486 29.0312Z" fill="white"/>
<path fill-rule="evenodd" clip-rule="evenodd" d="M51.5114 29.0312C51.628 29.122 51.7157 29.2447 51.764 29.3843C51.8011 29.524 51.7978 29.6713 51.7546 29.8092C51.7113 29.9471 51.6298 30.0698 51.5196 30.1632L48.3658 33.2178L49.1294 37.5552C49.1567 37.6984 49.1424 37.8464 49.0883 37.9817C49.0341 38.117 48.9424 38.234 48.824 38.3189C48.6929 38.4137 48.5352 38.4645 48.3734 38.464C48.2504 38.4644 48.1293 38.4328 48.0221 38.3723L44.1276 36.3334L40.233 38.3723C40.105 38.4448 39.9587 38.4786 39.8118 38.4699C39.6649 38.4611 39.5236 38.4101 39.4051 38.323C39.2865 38.2359 39.1956 38.1163 39.1433 37.9788C39.0911 37.8412 39.0797 37.6915 39.1105 37.5476L39.8741 33.2102L36.7203 30.1556C36.6222 30.0577 36.5525 29.9348 36.5189 29.8003C36.4853 29.6658 36.4889 29.5246 36.5294 29.392C36.5737 29.2563 36.6551 29.1357 36.7644 29.0439C36.8738 28.9521 37.0066 28.8928 37.148 28.8727L41.493 28.2312L43.4403 24.2909C43.5029 24.1618 43.6005 24.0529 43.722 23.9767C43.8436 23.9005 43.9841 23.8601 44.1276 23.8601C44.271 23.8601 44.4116 23.9005 44.5332 23.9767C44.6547 24.0529 44.7523 24.1618 44.8149 24.2909L46.7621 28.2389L51.1072 28.8727C51.2545 28.8853 51.3949 28.9403 51.5114 29.0312Z" fill="white"/>
<path fill-rule="evenodd" clip-rule="evenodd" d="M77.4743 29.0312C77.5909 29.122 77.6786 29.2447 77.7268 29.3843C77.764 29.524 77.7607 29.6713 77.7175 29.8092C77.6742 29.9471 77.5927 30.0698 77.4825 30.1632L74.3287 33.2178L75.0923 37.5552C75.1196 37.6984 75.1053 37.8464 75.0512 37.9817C74.997 38.117 74.9053 38.234 74.7868 38.3189C74.6558 38.4137 74.4981 38.4645 74.3363 38.464C74.2132 38.4644 74.0922 38.4328 73.985 38.3723L70.0905 36.3334L66.1959 38.3723C66.0678 38.4448 65.9216 38.4786 65.7747 38.4699C65.6278 38.4611 65.4865 38.4101 65.3679 38.323C65.2494 38.2359 65.1585 38.1163 65.1062 37.9788C65.054 37.8412 65.0426 37.6915 65.0734 37.5476L65.837 33.2102L62.6832 30.1556C62.5851 30.0577 62.5154 29.9348 62.4818 29.8003C62.4482 29.6658 62.4518 29.5246 62.4923 29.392C62.5366 29.2563 62.618 29.1357 62.7273 29.0439C62.8366 28.9521 62.9695 28.8928 63.1108 28.8727L67.4559 28.2312L69.4032 24.2909C69.4657 24.1618 69.5634 24.0529 69.6849 23.9767C69.8065 23.9005 69.947 23.8601 70.0905 23.8601C70.2339 23.8601 70.3745 23.9005 70.496 23.9767C70.6176 24.0529 70.7152 24.1618 70.7778 24.2909L72.725 28.2389L77.0701 28.8727C77.2174 28.8853 77.3578 28.9403 77.4743 29.0312Z" fill="white"/>
<path fill-rule="evenodd" clip-rule="evenodd" d="M103.439 29.0312C103.556 29.122 103.643 29.2447 103.692 29.3843C103.729 29.524 103.726 29.6713 103.682 29.8092C103.639 29.9471 103.558 30.0698 103.447 30.1632L100.294 33.2178L101.057 37.5552C101.084 37.6984 101.07 37.8464 101.016 37.9817C100.962 38.117 100.87 38.234 100.752 38.3189C100.621 38.4137 100.463 38.4645 100.301 38.464C100.178 38.4644 100.057 38.4328 99.9499 38.3723L96.0553 36.3334L92.1608 38.3723C92.0327 38.4448 91.8864 38.4786 91.7395 38.4699C91.5926 38.4611 91.4514 38.4101 91.3328 38.323C91.2142 38.2359 91.1233 38.1163 91.0711 37.9788C91.0188 37.8412 91.0074 37.6915 91.0382 37.5476L91.8019 33.2102L88.6481 30.1556C88.5499 30.0577 88.4803 29.9348 88.4466 29.8003C88.413 29.6658 88.4166 29.5246 88.4571 29.392C88.5014 29.2563 88.5828 29.1357 88.6922 29.0439C88.8015 28.9521 88.9344 28.8928 89.0757 28.8727L93.4208 28.2312L95.3681 24.2909C95.4306 24.1618 95.5282 24.0529 95.6498 23.9767C95.7713 23.9005 95.9119 23.8601 96.0553 23.8601C96.1988 23.8601 96.3393 23.9005 96.4609 23.9767C96.5824 24.0529 96.6801 24.1618 96.7426 24.2909L98.6899 28.2389L103.035 28.8727C103.182 28.8853 103.323 28.9403 103.439 29.0312Z" fill="white"/>
<path fill-rule="evenodd" clip-rule="evenodd" d="M129.4 29.0312C129.517 29.122 129.604 29.2447 129.653 29.3843C129.69 29.524 129.687 29.6713 129.643 29.8092C129.6 29.9471 129.519 30.0698 129.408 30.1632L126.254 33.2178L127.018 37.5552C127.045 37.6984 127.031 37.8464 126.977 37.9817C126.923 38.117 126.831 38.234 126.713 38.3189C126.582 38.4137 126.424 38.4645 126.262 38.464C126.139 38.4644 126.018 38.4328 125.911 38.3723L122.016 36.3334L118.122 38.3723C117.994 38.4448 117.847 38.4786 117.7 38.4699C117.554 38.4611 117.412 38.4101 117.294 38.323C117.175 38.2359 117.084 38.1163 117.032 37.9788C116.98 37.8412 116.968 37.6915 116.999 37.5476L117.763 33.2102L114.609 30.1556C114.511 30.0577 114.441 29.9348 114.408 29.8003C114.374 29.6658 114.378 29.5246 114.418 29.392C114.462 29.2563 114.544 29.1357 114.653 29.0439C114.762 28.9521 114.895 28.8928 115.037 28.8727L119.382 28.2312L121.329 24.2909C121.392 24.1618 121.489 24.0529 121.611 23.9767C121.732 23.9005 121.873 23.8601 122.016 23.8601C122.16 23.8601 122.3 23.9005 122.422 23.9767C122.543 24.0529 122.641 24.1618 122.704 24.2909L124.651 28.2389L128.996 28.8727C129.143 28.8853 129.284 28.9403 129.4 29.0312ZM124.763 32.7477C124.802 32.6307 124.868 32.5247 124.956 32.4389L127.247 30.1556L124.032 29.6898C123.909 29.6726 123.791 29.6253 123.69 29.5521C123.589 29.4788 123.507 29.3819 123.452 29.2698L122.017 26.3547V34.7078C122.03 34.7072 122.042 34.707 122.054 34.707C122.179 34.707 122.302 34.7357 122.413 34.7909L125.285 36.3182L124.735 33.1109C124.715 32.9893 124.724 32.8647 124.763 32.7477Z" fill="white"/>
<path d="M55.0457 77.8407C54.0479 76.8836 53.2791 75.6669 52.7395 74.1905C52.21 72.7142 51.9453 71.1309 51.9453 69.4407C51.9453 67.7098 52.2304 66.0756 52.8006 64.5382C53.3809 63.0007 54.2311 61.7331 55.3511 60.7353H57.1533V60.9033C55.9824 61.9825 55.1017 63.2756 54.5111 64.7825C53.9206 66.2895 53.6253 67.8422 53.6253 69.4407C53.6253 70.9782 53.9002 72.4647 54.45 73.9004C54.9999 75.336 55.7991 76.5935 56.8479 77.6727V77.8407H55.0457ZM58.2558 65.4545V63.8662H61.4325V75H59.6762V65.4545H58.2558ZM63.8244 69.288C63.8244 67.5265 64.1197 66.152 64.7102 65.1644C65.3109 64.1665 66.3393 63.6676 67.7953 63.6676C69.2513 63.6676 70.2746 64.1665 70.8651 65.1644C71.4658 66.152 71.7662 67.5265 71.7662 69.288C71.7662 71.0698 71.4658 72.4647 70.8651 73.4727C70.2746 74.4705 69.2513 74.9695 67.7953 74.9695C66.3393 74.9695 65.3109 74.4705 64.7102 73.4727C64.1197 72.4647 63.8244 71.0698 63.8244 69.288ZM70.0557 69.288C70.0557 68.4633 69.9997 67.7658 69.8877 67.1956C69.7858 66.6255 69.572 66.1622 69.2462 65.8058C68.9204 65.4393 68.4368 65.256 67.7953 65.256C67.1538 65.256 66.6702 65.4393 66.3444 65.8058C66.0186 66.1622 65.7997 66.6255 65.6877 67.1956C65.5858 67.7658 65.5349 68.4633 65.5349 69.288C65.5349 70.1433 65.5858 70.8611 65.6877 71.4415C65.7895 72.0218 66.0033 72.4902 66.3291 72.8465C66.6651 73.2029 67.1538 73.3811 67.7953 73.3811C68.4368 73.3811 68.9204 73.2029 69.2462 72.8465C69.5822 72.4902 69.8011 72.0218 69.9029 71.4415C70.0048 70.8611 70.0557 70.1433 70.0557 69.288ZM75.487 69.1811C74.4281 68.6516 73.8987 67.8167 73.8987 66.6764C73.8987 66.1265 74.0361 65.6225 74.311 65.1644C74.5859 64.7062 74.9983 64.3447 75.5481 64.08C76.0979 63.8051 76.7699 63.6676 77.5641 63.6676C78.3481 63.6676 79.015 63.8051 79.5648 64.08C80.1248 64.3447 80.5423 64.7062 80.8172 65.1644C81.0921 65.6225 81.2296 66.1265 81.2296 66.6764C81.2296 67.2465 81.0819 67.7505 80.7867 68.1884C80.5016 68.616 80.1198 68.9469 79.6412 69.1811C80.2216 69.3949 80.6798 69.7462 81.0158 70.2349C81.3518 70.7135 81.5198 71.2785 81.5198 71.9302C81.5198 72.592 81.3518 73.1775 81.0158 73.6865C80.6798 74.1956 80.2114 74.5876 79.6107 74.8625C79.0099 75.1375 78.3278 75.2749 77.5641 75.2749C76.8005 75.2749 76.1183 75.1375 75.5176 74.8625C74.927 74.5876 74.4638 74.1956 74.1278 73.6865C73.7918 73.1775 73.6238 72.592 73.6238 71.9302C73.6238 71.2684 73.7918 70.6982 74.1278 70.2196C74.4638 69.7411 74.9168 69.3949 75.487 69.1811ZM79.5648 66.8902C79.5648 66.32 79.3867 65.8822 79.0303 65.5767C78.6739 65.2713 78.1852 65.1185 77.5641 65.1185C76.9532 65.1185 76.4696 65.2713 76.1132 65.5767C75.7568 65.8822 75.5787 66.3251 75.5787 66.9055C75.5787 67.4145 75.7619 67.832 76.1285 68.1578C76.5052 68.4735 76.9838 68.6313 77.5641 68.6313C78.1445 68.6313 78.623 68.4684 78.9998 68.1425C79.3765 67.8167 79.5648 67.3993 79.5648 66.8902ZM77.5641 69.9447C76.8921 69.9447 76.3423 70.1127 75.9147 70.4487C75.4972 70.7745 75.2885 71.248 75.2885 71.8691C75.2885 72.4495 75.4921 72.9229 75.8994 73.2895C76.3067 73.6458 76.8616 73.824 77.5641 73.824C78.2565 73.824 78.8012 73.6407 79.1983 73.2742C79.6056 72.9076 79.8092 72.4393 79.8092 71.8691C79.8092 71.2582 79.6005 70.7847 79.183 70.4487C78.7758 70.1127 78.2361 69.9447 77.5641 69.9447ZM83.1493 77.8407V77.6727C84.198 76.5935 84.9973 75.336 85.5471 73.9004C86.0969 72.4647 86.3718 70.9782 86.3718 69.4407C86.3718 67.8422 86.0766 66.2895 85.486 64.7825C84.8955 63.2756 84.0147 61.9825 82.8438 60.9033V60.7353H84.646C85.766 61.7331 86.6111 63.0007 87.1813 64.5382C87.7616 66.0756 88.0518 67.7098 88.0518 69.4407C88.0518 71.1309 87.782 72.7142 87.2424 74.1905C86.7129 75.6669 85.9493 76.8836 84.9515 77.8407H83.1493Z" fill="#58FD0A"/>
<defs>
<linearGradient id="paint0_linear_2005_5590" x1="70" y1="0" x2="70" y2="115" gradientUnits="userSpaceOnUse">
<stop stop-color="#749D1C"/>
<stop offset="1" stop-color="#1A4402"/>
</linearGradient>
</defs>
</svg>
