<svg width="74" height="70" viewBox="0 0 74 70" fill="none" xmlns="http://www.w3.org/2000/svg">
<path d="M38.125 70C33.2489 70 28.6051 69.0026 24.3874 67.2011H27.8501H29.5157C33.799 67.2011 37.2715 63.7289 37.2715 59.4453V56.5133H36.188V54.3915H39.788V42.3085C39.788 41.461 39.652 40.6455 39.4007 39.8821C40.7369 40.3096 41.8825 40.9662 42.6351 41.9384C46.9085 47.4593 42.4674 57.9265 42.407 58.067C42.4068 58.0672 42.4068 58.0674 42.4068 58.0677L43.3335 58.4693L44.5052 58.9781C44.7139 58.4979 49.5538 47.1394 44.4441 40.5382C43.0775 38.7729 40.8618 37.6425 37.833 37.1605C36.4121 35.5608 34.3397 34.5526 32.032 34.5526H29.0515V32.6357H29.8211C30.1156 32.6357 30.3547 32.3966 30.3547 32.102C30.3547 31.8071 30.1156 31.568 29.8211 31.568H29.0515V30.3481H29.8211C30.1156 30.3481 30.3547 30.1093 30.3547 29.8143C30.3547 29.5195 30.1156 29.2807 29.8211 29.2807H29.0515V26.0781H22.3548V29.2807H21.5858C21.2909 29.2807 21.0518 29.5195 21.0518 29.8143C21.0518 30.1093 21.2909 30.3481 21.5858 30.3481H22.3548V31.568H21.5858C21.2909 31.568 21.0518 31.8071 21.0518 32.102C21.0518 32.3966 21.2909 32.6357 21.5858 32.6357H22.3548V34.5526H19.3746C15.091 34.5526 11.6188 38.0252 11.6188 42.3084V54.3915H15.2183V56.5132H14.1351V59.4453C14.1351 59.8238 14.1623 60.1959 14.2148 60.5597C7.38956 54.1728 3.125 45.085 3.125 34.9999C3.125 15.67 18.795 0 38.1249 0C57.455 0 73.1249 15.67 73.1249 34.9999C73.1249 54.33 57.455 70 38.1249 70H38.125Z" fill="#266E43"/>
<path d="M15.2188 58.1039H36.1886V52.6138H15.2188V58.1039Z" fill="#FCB83F"/>
<path d="M45.4173 64.3983C46.0659 64.3008 46.5129 63.696 46.4157 63.0475L46.0634 60.6984C45.9662 60.0498 45.3616 59.6029 44.7128 59.7C44.0641 59.7973 43.6171 60.4021 43.7145 61.0506L44.0667 63.3995C44.1637 64.0482 44.7686 64.4955 45.4173 64.3983Z" fill="#FCB83F"/>
<path d="M37.5627 56.8043C37.4503 57.4506 37.8831 58.0654 38.5296 58.1778L40.8698 58.5845C41.5158 58.6966 42.1309 58.2638 42.243 57.6175C42.3554 56.9713 41.9226 56.3562 41.2764 56.2441L38.9361 55.8376C38.2899 55.7252 37.675 56.1581 37.5627 56.8043H37.5627Z" fill="#FCB83F"/>
<path d="M42.0946 64.9693C42.7422 65.0724 43.3512 64.631 43.4544 63.9834L43.8284 61.6377C43.9317 60.9899 43.4902 60.3811 42.8424 60.278C42.1948 60.1746 41.5859 60.6159 41.4827 61.2639L41.1087 63.6093C41.0056 64.2569 41.4468 64.8662 42.0946 64.9693H42.0946Z" fill="#FCB83F"/>
<path d="M41.3852 59.2288C40.8414 58.8621 40.1033 59.0053 39.7366 59.5491L38.4082 61.5184C38.0415 62.0622 38.1849 62.8002 38.7289 63.1671C39.2726 63.5338 40.0106 63.3903 40.3775 62.8466L41.7057 60.8774C42.0727 60.3337 41.9292 59.5957 41.3852 59.2288V59.2288Z" fill="#FCB83F"/>
<path d="M39.9106 58.8055C39.6883 56.9894 40.9803 55.3371 42.7967 55.115C44.6128 54.8926 46.2651 56.1847 46.4874 58.001C46.7095 59.8171 45.4175 61.4694 43.6014 61.6917C41.7851 61.9139 40.1328 60.6219 39.9106 58.8055V58.8055Z" fill="#FEFEFE"/>
<path d="M37.7716 37.1506C40.8316 37.6271 43.0682 38.7606 44.4441 40.5381C49.5539 47.1393 44.7139 58.4978 44.5052 58.978L42.407 58.0668L43.4562 58.5223L42.4069 58.0675C42.4521 57.9623 46.9159 47.4685 42.6352 41.9382C39.7681 38.2339 31.1922 39.1137 28.1296 39.7659L27.6533 37.5287C27.7778 37.5019 30.7415 36.8799 34.2439 36.8925C35.5198 36.8972 36.6966 36.9836 37.7715 37.1506H37.7716Z" fill="#FEFEFE"/>
<path d="M43.5886 52.8211L46.6025 53.2905C46.9753 53.3486 47.3281 53.0908 47.386 52.7179C47.4441 52.3448 47.1865 51.9923 46.8134 51.9342L43.7997 51.465C43.4269 51.4069 43.0741 51.6647 43.016 52.0373C42.9579 52.4105 43.2157 52.7629 43.5886 52.8211Z" fill="#FCB83F"/>
<path d="M44.0964 49.7073L47.1233 50.0815C47.4979 50.128 47.8423 49.8594 47.8885 49.4847C47.935 49.1102 47.6664 48.7658 47.2917 48.7195L44.2648 48.345C43.8901 48.2988 43.5456 48.5674 43.4994 48.9418C43.4529 49.3163 43.7217 49.6608 44.0964 49.7073Z" fill="#FCB83F"/>
<path d="M44.1084 46.4023L47.1186 45.911C47.491 45.8504 47.7463 45.4958 47.6854 45.1234C47.6246 44.7507 47.2702 44.4957 46.8978 44.5563L43.8871 45.0477C43.5149 45.1083 43.2597 45.4629 43.3205 45.8355C43.3813 46.208 43.7357 46.463 44.1084 46.4023Z" fill="#FCB83F"/>
<path d="M43.1378 43.6731L45.8074 42.1976C46.1375 42.0151 46.2585 41.5953 46.076 41.2649C45.8935 40.9346 45.4737 40.8136 45.1433 40.9964L42.474 42.4719C42.1434 42.6547 42.0226 43.0742 42.2054 43.4045C42.3879 43.7351 42.8077 43.8559 43.1378 43.6731Z" fill="#FCB83F"/>
<path d="M41.1645 41.077L43.1742 38.7826C43.4229 38.4987 43.3941 38.0632 43.1101 37.8142C42.8263 37.5656 42.3904 37.5944 42.1418 37.8783L40.1319 40.1727C39.8834 40.4568 39.9123 40.8927 40.1962 41.1412C40.48 41.3902 40.9158 41.3611 41.1645 41.077Z" fill="#FCB83F"/>
<path d="M15.2188 55.521H36.1886V52.6138H15.2188V55.521Z" fill="#F1A639"/>
<path d="M22.3555 42.2435H29.0521V26.0781H22.3555V42.2435Z" fill="#FCB83F"/>
<path d="M25.584 42.2435H29.0517V26.0781H25.584V42.2435Z" fill="#F1A639"/>
<path d="M31.2605 10.5699L24.7247 9.64C20.0811 8.97909 15.781 12.208 15.1203 16.8519L14.9949 17.7321C14.3343 22.3757 17.5629 26.6758 22.2069 27.3367L28.7426 28.2666C33.3863 28.9274 37.6865 25.6986 38.3471 21.0548L38.4725 20.1746C39.1332 15.5308 35.9042 11.2306 31.2605 10.5699Z" fill="#FEFEFE"/>
<path d="M22.6261 24.3928C19.6131 23.9641 17.5106 21.1641 17.9393 18.1511L18.0646 17.2708C18.4933 14.258 21.2931 12.1556 24.3061 12.5843L30.8419 13.5142C33.8548 13.9429 35.9573 16.7429 35.5284 19.7559L35.4033 20.6359C34.9747 23.6488 32.1746 25.7514 29.1616 25.3227L22.6261 24.3928V24.3928Z" fill="#266E43"/>
<path d="M24.8751 16.7475C24.7564 17.5813 23.9841 18.1612 23.1502 18.0425C22.3164 17.924 21.7365 17.1517 21.8553 16.3179C21.974 15.4841 22.7461 14.9042 23.5801 15.0227C24.414 15.1414 24.9935 15.9137 24.8751 16.7476V16.7475Z" fill="#FEFEFE"/>
<path d="M31.6689 17.714C31.5504 18.5479 30.778 19.1278 29.9442 19.0091C29.1104 18.8903 28.5305 18.1182 28.6492 17.2844C28.7679 16.4506 29.54 15.8707 30.3738 15.9893C31.2077 16.108 31.7876 16.8802 31.6689 17.7141V17.714Z" fill="#FEFEFE"/>
<path d="M27.7894 23.3236L25.6757 23.0231C25.1774 22.9521 24.8279 22.4864 24.8988 21.9882C24.9697 21.4899 25.4352 21.1404 25.9335 21.2113L28.0472 21.5119C28.5456 21.5828 28.8952 22.0485 28.8243 22.5468C28.7533 23.045 28.2878 23.3947 27.7894 23.3236Z" fill="#FCB83F"/>
<path d="M15.4324 15.1728C16.275 9.24009 21.4181 4.9191 27.2503 4.92004C27.8042 4.92004 28.3644 4.95896 28.928 5.03897L28.9521 5.04244H28.9766V4.69933L28.9283 5.03897C34.8604 5.88174 39.1814 11.0247 39.1807 16.8569C39.1807 17.4107 39.1418 17.9711 39.0615 18.5348L38.8599 19.9513C38.6131 21.6915 37.1191 22.948 35.4121 22.948C35.2485 22.948 35.0829 22.9364 34.9161 22.9126L26.5333 21.7201L26.4366 22.3995L34.8194 23.5922C35.0184 23.6204 35.2163 23.6343 35.4121 23.6343C37.4581 23.6341 39.2424 22.1307 39.5394 20.0482L39.7409 18.6314C39.8257 18.0358 39.8669 17.443 39.8669 16.857C39.866 10.6844 35.3026 5.25462 29.0248 4.35969L29.0007 4.35622H28.9762V4.6994L29.0247 4.35969C28.4287 4.27505 27.8363 4.23389 27.2502 4.23389C21.0777 4.23454 15.6479 8.79823 14.7529 15.076L15.4323 15.1728L15.4324 15.1728Z" fill="#FCB83F"/>
<path d="M13.4033 20.5066C12.4068 20.3647 11.7075 19.4335 11.8493 18.437L12.2575 15.5681C12.3993 14.5716 13.3306 13.8723 14.3271 14.0141C15.3236 14.1559 16.0228 15.0872 15.8812 16.0837L15.4729 18.9526C15.3311 19.9491 14.3998 20.6483 13.4033 20.5066Z" fill="#FCB83F"/>
<path d="M32.0324 34.5527H19.3749C15.0914 34.5527 11.6191 38.0253 11.6191 42.3085V54.3916H39.7884V42.3085C39.7884 38.0253 36.3158 34.5527 32.0324 34.5527Z" fill="#FEFEFE"/>
<path d="M25.2723 47.4465C24.7683 47.4465 24.2986 47.3656 23.863 47.2038C23.4337 47.0358 23.0604 46.7994 22.7431 46.4945C22.4257 46.1896 22.1769 45.8318 21.9964 45.4212C21.8222 45.0105 21.7351 44.5594 21.7351 44.0679C21.7351 43.5763 21.8222 43.1252 21.9964 42.7146C22.1769 42.3039 22.4257 41.9462 22.7431 41.6413C23.0666 41.3364 23.443 41.1031 23.8724 40.9413C24.3017 40.7733 24.7714 40.6893 25.2817 40.6893C25.8479 40.6893 26.3581 40.7889 26.8123 40.988C27.2727 41.1808 27.6585 41.4671 27.9696 41.8466L26.9989 42.7426C26.775 42.4875 26.5261 42.2977 26.2523 42.1733C25.9785 42.0426 25.6799 41.9773 25.3563 41.9773C25.0514 41.9773 24.7714 42.027 24.5163 42.1266C24.2612 42.2262 24.0404 42.3693 23.8537 42.5559C23.667 42.7426 23.5208 42.9635 23.415 43.2186C23.3155 43.4737 23.2657 43.7568 23.2657 44.0679C23.2657 44.379 23.3155 44.6621 23.415 44.9172C23.5208 45.1723 23.667 45.3932 23.8537 45.5798C24.0404 45.7665 24.2612 45.9096 24.5163 46.0092C24.7714 46.1087 25.0514 46.1585 25.3563 46.1585C25.6799 46.1585 25.9785 46.0963 26.2523 45.9718C26.5261 45.8412 26.775 45.6452 26.9989 45.3838L27.9696 46.2798C27.6585 46.6594 27.2727 46.9487 26.8123 47.1478C26.3581 47.3469 25.8448 47.4465 25.2723 47.4465Z" fill="#266E43"/>
<path d="M27.9118 40.8013H29.4237V47.3345H27.9118V40.8013ZM24.9438 47.3345H23.4319V40.8013H24.9438V47.3345ZM28.0238 44.6559H24.8318V43.3772H28.0238V44.6559Z" fill="#266E43"/>
<path d="M23.9785 47.3345L26.8904 40.8013H28.3837L31.305 47.3345H29.7183L27.3291 41.5666H27.9264L25.5278 47.3345H23.9785ZM25.4345 45.9345L25.8358 44.7865H29.1957L29.6064 45.9345H25.4345Z" fill="#266E43"/>
<path d="M27.2656 47.3345V42.0333H25.175V40.8013H30.8682V42.0333H28.7776V47.3345H27.2656Z" fill="#266E43"/>
<path d="M27.0139 47.3345V40.8013H30.2058C31.0271 40.8013 31.6431 40.9569 32.0538 41.268C32.4706 41.5791 32.6791 41.9897 32.6791 42.4999C32.6791 42.8421 32.5951 43.1408 32.4271 43.3959C32.2591 43.6448 32.0289 43.8377 31.7364 43.9746C31.444 44.1114 31.108 44.1799 30.7285 44.1799L30.9058 43.7972C31.3165 43.7972 31.6804 43.8657 31.9978 44.0026C32.3151 44.1332 32.5609 44.3292 32.7351 44.5905C32.9155 44.8519 33.0057 45.1723 33.0057 45.5518C33.0057 46.1118 32.7849 46.5505 32.3431 46.8678C31.9013 47.1789 31.2511 47.3345 30.3925 47.3345H27.0139ZM28.5165 46.1958H30.2805C30.6725 46.1958 30.968 46.1336 31.1671 46.0092C31.3725 45.8785 31.4751 45.6732 31.4751 45.3932C31.4751 45.1194 31.3725 44.9172 31.1671 44.7865C30.968 44.6496 30.6725 44.5812 30.2805 44.5812H28.4045V43.4799H30.0192C30.3863 43.4799 30.6663 43.4177 30.8591 43.2932C31.0582 43.1626 31.1578 42.9666 31.1578 42.7053C31.1578 42.4501 31.0582 42.2604 30.8591 42.1359C30.6663 42.0053 30.3863 41.9399 30.0192 41.9399H28.5165V46.1958Z" fill="#266E43"/>
<path d="M31.5241 47.4465C31.0076 47.4465 30.5285 47.3625 30.0868 47.1945C29.6512 47.0265 29.2717 46.79 28.9481 46.4852C28.6308 46.1803 28.3819 45.8225 28.2015 45.4118C28.0273 45.0012 27.9402 44.5532 27.9402 44.0679C27.9402 43.5826 28.0273 43.1346 28.2015 42.7239C28.3819 42.3133 28.6339 41.9555 28.9575 41.6506C29.281 41.3457 29.6606 41.1093 30.0961 40.9413C30.5316 40.7733 31.0045 40.6893 31.5147 40.6893C32.0312 40.6893 32.504 40.7733 32.9334 40.9413C33.3689 41.1093 33.7453 41.3457 34.0627 41.6506C34.3862 41.9555 34.6382 42.3133 34.8186 42.7239C34.9991 43.1284 35.0893 43.5763 35.0893 44.0679C35.0893 44.5532 34.9991 45.0043 34.8186 45.4212C34.6382 45.8318 34.3862 46.1896 34.0627 46.4945C33.7453 46.7931 33.3689 47.0265 32.9334 47.1945C32.504 47.3625 32.0343 47.4465 31.5241 47.4465ZM31.5147 46.1585C31.8072 46.1585 32.0747 46.1087 32.3174 46.0092C32.5663 45.9096 32.784 45.7665 32.9707 45.5798C33.1574 45.3932 33.3005 45.1723 33.4 44.9172C33.5058 44.6621 33.5587 44.379 33.5587 44.0679C33.5587 43.7568 33.5058 43.4737 33.4 43.2186C33.3005 42.9635 33.1574 42.7426 32.9707 42.5559C32.7903 42.3693 32.5756 42.2262 32.3267 42.1266C32.0778 42.027 31.8072 41.9773 31.5147 41.9773C31.2223 41.9773 30.9516 42.027 30.7028 42.1266C30.4601 42.2262 30.2454 42.3693 30.0588 42.5559C29.8721 42.7426 29.7259 42.9635 29.6201 43.2186C29.5206 43.4737 29.4708 43.7568 29.4708 44.0679C29.4708 44.3728 29.5206 44.6559 29.6201 44.9172C29.7259 45.1723 29.869 45.3932 30.0494 45.5798C30.2361 45.7665 30.4539 45.9096 30.7028 46.0092C30.9516 46.1087 31.2223 46.1585 31.5147 46.1585Z" fill="#266E43"/>
<path d="M31.1192 47.3345V42.0333H29.0285V40.8013H34.7217V42.0333H32.6311V47.3345H31.1192Z" fill="#266E43"/>
<path d="M28.9582 40.657H22.1179C20.642 40.657 19.4453 41.8538 19.4453 43.3298V46.4997C19.4453 47.9758 20.642 49.1723 22.1179 49.1723H22.4254V51.7751L25.0282 49.1723H28.9583C30.4345 49.1723 31.6311 47.9758 31.6311 46.4997V43.3298C31.6311 41.8539 30.4345 40.657 28.9583 40.657H28.9582Z" fill="#FCB83F"/>
<path d="M30.105 44.8218C30.105 45.3291 29.6937 45.7405 29.1863 45.7405C28.6789 45.7405 28.2676 45.3291 28.2676 44.8218C28.2676 44.3144 28.6789 43.9031 29.1863 43.9031C29.6937 43.9031 30.105 44.3144 30.105 44.8218Z" fill="#FEFEFE"/>
<path d="M26.487 44.8218C26.487 45.3291 26.0757 45.7405 25.5684 45.7405C25.061 45.7405 24.6494 45.3291 24.6494 44.8218C24.6494 44.3144 25.0609 43.9031 25.5684 43.9031C26.0757 43.9031 26.487 44.3144 26.487 44.8218Z" fill="#FEFEFE"/>
<path d="M23.0984 44.8218C23.0984 45.3291 22.6871 45.7405 22.1795 45.7405C21.6721 45.7405 21.2607 45.3291 21.2607 44.8218C21.2607 44.3144 21.6721 43.9031 22.1795 43.9031C22.6871 43.9031 23.0984 44.3144 23.0984 44.8218Z" fill="#FEFEFE"/>
<path d="M39.7882 54.3916H34.1846C34.2061 51.761 34.2098 51.7285 34.1684 48.0387C34.0742 39.6387 28.0647 35.6808 25.9648 34.5527H32.0322C36.3156 34.5527 39.7882 38.0253 39.7882 42.3085V54.3916H39.7882Z" fill="#DBE4F4"/>
<path d="M29.822 29.2808H21.5867C21.2917 29.2808 21.0527 29.5196 21.0527 29.8144C21.0527 30.1094 21.2917 30.3482 21.5867 30.3482H29.822C30.1165 30.3482 30.3556 30.1094 30.3556 29.8144C30.3556 29.5196 30.1165 29.2808 29.822 29.2808Z" fill="#FEFEFE"/>
<path d="M29.822 31.5681H21.5867C21.2917 31.5681 21.0527 31.8072 21.0527 32.1021C21.0527 32.3967 21.2917 32.6358 21.5867 32.6358H29.822C30.1165 32.6358 30.3556 32.3967 30.3556 32.1021C30.3556 31.8072 30.1165 31.5681 29.822 31.5681Z" fill="#FEFEFE"/>
<path d="M29.8211 30.3481H26.542V29.2808H29.8211C30.1156 29.2808 30.3547 29.5196 30.3547 29.8144C30.3547 30.1094 30.1156 30.3481 29.8211 30.3481Z" fill="#C5D4EC"/>
<path d="M29.8211 32.6358H26.6182V31.5681H29.8211C30.1156 31.5681 30.3547 31.8072 30.3547 32.1021C30.3547 32.3967 30.1156 32.6358 29.8211 32.6358Z" fill="#C5D4EC"/>
<path d="M14.1357 56.5132H37.2721V59.4452C37.2721 63.7287 33.7996 67.201 29.5163 67.201H21.8916C17.6084 67.201 14.1358 63.7287 14.1358 59.4452V56.5132H14.1357Z" fill="#FEFEFE"/>
<path d="M29.5162 67.201H27.8506C32.3572 63.7656 32.5315 59.1634 32.1601 56.5132H37.2719V59.4452C37.2719 63.7287 33.7994 67.201 29.5162 67.201Z" fill="#DBE4F4"/>
<path d="M0.83323 13.243C0.207265 13.439 -0.141417 14.1051 0.0545543 14.731L0.763999 16.998C0.959826 17.6239 1.62616 17.9725 2.25219 17.7767C2.87816 17.5806 3.22677 16.9146 3.0308 16.2887L2.3215 14.0216C2.12553 13.3958 1.45927 13.0471 0.83323 13.243Z" fill="#FCB83F"/>
<path d="M9.76278 19.5377C9.77421 18.8818 9.25191 18.341 8.59635 18.3294L6.22119 18.2878C5.56556 18.2763 5.02453 18.7986 5.01288 19.4544C5.00145 20.1103 5.52375 20.6513 6.17959 20.6627L8.55454 20.7043C9.21038 20.716 9.75142 20.1935 9.76285 19.5377H9.76278Z" fill="#FCB83F"/>
<path d="M4.02877 12.1672C3.373 12.1649 2.8392 12.6948 2.83674 13.3506L2.82813 15.726C2.82575 16.3818 3.35557 16.9156 4.01134 16.918C4.66747 16.9203 5.20113 16.3905 5.20344 15.7347L5.21212 13.3593C5.21437 12.7034 4.68461 12.1697 4.02877 12.1672Z" fill="#FCB83F"/>
<path d="M5.61284 17.7304C6.20669 18.009 6.91404 17.7537 7.19262 17.1601L8.20214 15.01C8.48094 14.4161 8.2255 13.7088 7.6318 13.43C7.03796 13.1513 6.3309 13.4066 6.05202 14.0004L5.04251 16.1505C4.76385 16.7441 5.01914 17.4515 5.61284 17.7303V17.7304Z" fill="#FCB83F"/>
<path d="M7.13576 17.9213C7.63491 19.6816 6.61237 21.513 4.85211 22.0122C3.09176 22.5112 1.26017 21.4885 0.761233 19.7283C0.262154 17.9677 1.28469 16.1363 3.04503 15.6374C4.80545 15.1385 6.63682 16.1609 7.13576 17.9213Z" fill="#FEFEFE"/>
<path d="M12.5798 38.9892C9.48257 38.9892 7.098 38.2133 5.46512 36.6689C-0.599352 30.9324 2.43549 18.9647 2.5678 18.458L4.78114 19.0354L3.67447 18.7467L4.78136 19.0347C4.75249 19.1458 1.95666 30.2012 7.03738 35.0068C10.4401 38.2261 18.7784 36.0371 21.7044 34.9217L22.519 37.0591C22.4002 37.1045 19.5673 38.1752 16.1049 38.7016C14.8432 38.8933 13.6672 38.989 12.5797 38.9892H12.5798Z" fill="#FEFEFE"/>
<path d="M4.42195 24.4004H1.37184C0.994369 24.4004 0.685547 24.7092 0.685547 25.0866C0.685547 25.4641 0.994369 25.7728 1.37184 25.7728H4.42195C4.79913 25.7728 5.10817 25.464 5.10817 25.0866C5.10817 24.7091 4.79913 24.4004 4.42195 24.4004Z" fill="#FCB83F"/>
<path d="M4.39983 27.5556L1.35124 27.6514C0.974131 27.6632 0.675001 27.9815 0.686865 28.3589C0.698873 28.7361 1.0171 29.035 1.39443 29.0232L4.44309 28.9273C4.82027 28.9154 5.11926 28.5972 5.10739 28.22C5.09546 27.8425 4.77701 27.5436 4.39983 27.5555V27.5556Z" fill="#FCB83F"/>
<path d="M4.89514 30.823L1.99623 31.7714C1.63742 31.8888 1.43993 32.2783 1.55734 32.6371C1.67475 32.9957 2.06416 33.1934 2.42297 33.076L5.32195 32.1274C5.6804 32.0102 5.87804 31.6207 5.7607 31.2617C5.64336 30.903 5.25381 30.7056 4.89507 30.8229L4.89514 30.823Z" fill="#FCB83F"/>
<path d="M6.27422 33.3702L3.86382 35.239C3.56534 35.4705 3.51051 35.9035 3.74178 36.2017C3.97298 36.5003 4.40645 36.555 4.70457 36.3236L7.11518 34.4549C7.41351 34.2237 7.46842 33.7904 7.23715 33.4922C7.00587 33.1938 6.57262 33.1389 6.27429 33.3702H6.27422Z" fill="#FCB83F"/>
<path d="M8.62336 35.6319L6.9907 38.2081C6.78872 38.527 6.88429 38.953 7.20316 39.1552C7.52204 39.3572 7.9482 39.2616 8.15025 38.9427L9.78291 36.3665C9.98488 36.0476 9.88925 35.6216 9.57044 35.4194C9.25157 35.2174 8.82541 35.313 8.62336 35.6319Z" fill="#FCB83F"/>
</svg>
