<svg width="13" height="13" viewBox="0 0 13 13" fill="none" xmlns="http://www.w3.org/2000/svg">
<path d="M3.19237 11.1185C3.20479 11.4116 3.44575 11.6426 3.73888 11.6426H8.84502C9.13814 11.6426 9.38035 11.4116 9.39153 11.1185L9.75669 3.42014H2.8272L3.19237 11.1185ZM7.44645 5.33292C7.44645 5.20996 7.54581 5.11059 7.66878 5.11059H8.02401C8.14697 5.11059 8.24634 5.2112 8.24634 5.33292V9.73108C8.24634 9.85404 8.14573 9.95341 8.02401 9.95341H7.66878C7.54581 9.95341 7.44645 9.85404 7.44645 9.73108V5.33292ZM5.89262 5.33292C5.89262 5.20996 5.99199 5.11059 6.11495 5.11059H6.47018C6.59315 5.11059 6.69251 5.2112 6.69251 5.33292V9.73108C6.69251 9.85404 6.59315 9.95341 6.47018 9.95341H6.11495C5.99199 9.95341 5.89262 9.85404 5.89262 9.73108V5.33292ZM4.33755 5.33292C4.33755 5.20996 4.43692 5.11059 4.55864 5.11059H4.91387C5.03684 5.11059 5.1362 5.2112 5.1362 5.33292V9.73108C5.1362 9.85404 5.0356 9.95341 4.91387 9.95341H4.55864C4.43568 9.95341 4.33755 9.85404 4.33755 9.73108V5.33292ZM9.9989 1.33471H7.64394V0.888806C7.64394 0.825461 7.59301 0.774536 7.52967 0.774536H5.05547C4.99212 0.774536 4.9412 0.825461 4.9412 0.888806V1.33471H2.585C2.3962 1.33471 2.24219 1.48748 2.24219 1.67752V2.75563H10.3417V1.67752C10.3417 1.48872 10.1889 1.33471 9.9989 1.33471Z" fill="#FF6760"/>
</svg>
